<?xml version="1.0" encoding="UTF-8"?>
<svg version="1.1" xmlns="http://www.w3.org/2000/svg" width="512" height="512">
<path d="M0 0 C0.79523983 -0.00350607 1.59047966 -0.00701215 2.40981767 -0.01062447 C5.07303159 -0.0199241 7.73602615 -0.01501887 10.39924908 -0.01015663 C12.32857192 -0.01389361 14.25789324 -0.01849532 16.18721217 -0.02388728 C21.48804448 -0.03612671 26.78881373 -0.03585569 32.08965695 -0.03349853 C37.80689825 -0.0330906 43.52411926 -0.04412714 49.24135113 -0.05361366 C60.44195279 -0.07022954 71.6425334 -0.07572347 82.84314636 -0.07683842 C91.94663514 -0.07778856 101.05011697 -0.08189717 110.15360355 -0.08823967 C131.76018113 -0.10298702 153.3667522 -0.11528924 174.97333527 -0.11424255 C175.66419957 -0.1142114 176.35506388 -0.11418024 177.06686346 -0.11414814 C180.56839312 -0.11398192 184.06992277 -0.11378384 187.57145242 -0.11357872 C188.26685983 -0.11353883 188.96226724 -0.11349894 189.6787476 -0.11345784 C191.08503048 -0.11337697 192.49131336 -0.11329337 193.89759623 -0.11320706 C215.77729871 -0.11198154 237.65693921 -0.12699553 259.53662395 -0.15435219 C284.12244164 -0.18507977 308.70821466 -0.20225896 333.29405326 -0.20042574 C346.31027523 -0.19976148 359.32642729 -0.20526999 372.34263325 -0.22678185 C383.42402314 -0.24497859 394.50531142 -0.24935328 405.58670978 -0.235763 C411.24058737 -0.22922595 416.89426995 -0.22914297 422.54812908 -0.2464695 C427.72535914 -0.26217224 432.90223909 -0.25936499 438.07946046 -0.24190123 C439.95088534 -0.23882521 441.82233617 -0.24248635 443.69373045 -0.25362138 C464.86769328 -0.3712502 464.86769328 -0.3712502 471.77594024 6.03658736 C475.87742796 10.49838572 478.10800065 14.37166798 478.10655785 20.51720238 C478.11345604 22.12432704 478.11345604 22.12432704 478.12049359 23.76391888 C478.11277825 25.52829438 478.11277825 25.52829438 478.10490704 27.32831383 C478.10732145 28.57847629 478.10973587 29.82863874 478.11222345 31.11668491 C478.11864358 34.58884798 478.11256369 38.06089464 478.10445917 41.53305006 C478.09788697 45.27678967 478.1028296 49.02051617 478.10634136 52.76425743 C478.11138623 60.09907861 478.10573811 67.43385474 478.09649106 74.76867032 C478.08611374 83.3065056 478.08617708 91.84433111 478.08666364 100.38217151 C478.08716444 115.61365881 478.077998 130.84512512 478.06347942 146.07660484 C478.04939166 160.86371811 478.04230864 175.6508129 478.04297161 190.43793297 C478.04301157 191.34864111 478.04305152 192.25934925 478.04309269 193.1976546 C478.04313304 194.10677258 478.0431734 195.01589056 478.04321498 195.95255756 C478.04390456 212.77624944 478.03801626 229.59993346 478.02906176 246.42362279 C478.02604327 252.37796789 478.02498194 258.33231155 478.02452946 264.28665733 C478.02384781 271.54086861 478.0193899 278.79506664 478.01019665 286.0492723 C478.00557485 289.75198748 478.00253457 293.45468569 478.00379086 297.15740395 C478.00508533 301.16702957 477.99864792 305.17660475 477.99138165 309.18622398 C477.99293025 310.36247432 477.99447885 311.53872465 477.99607438 312.75061893 C477.99284993 313.82203538 477.98962549 314.89345182 477.98630333 315.99733543 C477.9855989 316.92320363 477.98489448 317.84907183 477.98416871 318.80299664 C477.85766888 321.25726891 477.85766888 321.25726891 477.28712922 323.52351475 C477.14540731 324.09565362 477.00368539 324.66779249 476.85766888 325.25726891 C477.18766888 325.58726891 477.51766888 325.91726891 477.85766888 326.25726891 C477.96724895 328.10212876 478.0067678 329.95118889 478.01880169 331.79926109 C478.02840923 332.98429222 478.03801678 334.16932335 478.04791546 335.39026451 C478.05429028 337.32763481 478.05429028 337.32763481 478.06079388 339.30414391 C478.06649395 340.62263329 478.07219402 341.94112267 478.07806683 343.29956627 C478.08858816 346.09732004 478.0944227 348.895045 478.09790325 351.69281578 C478.10337605 355.27182417 478.12737265 358.85044981 478.15587521 362.42933846 C478.17453783 365.1832037 478.1797092 367.93697767 478.18123913 370.6909008 C478.18572744 372.65014106 478.20436183 374.60933241 478.22320843 376.56848717 C478.22020733 377.76612694 478.21720623 378.96376671 478.21411419 380.19769859 C478.21775982 381.24947289 478.22140545 382.30124718 478.22516155 383.38489342 C477.78614869 386.81628093 477.0233266 388.55852621 474.85766888 391.25726891 C470.35392306 393.98856233 467.00113682 394.63223248 461.76869869 394.63199902 C461.07520673 394.63605974 460.38171477 394.64012047 459.6672079 394.64430425 C457.34403459 394.65424798 455.02146581 394.64282404 452.69830608 394.63149071 C451.01575683 394.63423135 449.33320929 394.63828348 447.650666 394.64353436 C443.02757563 394.6541289 438.40467839 394.64598727 433.78159642 394.63478386 C428.7959234 394.62594879 423.81027583 394.63438326 418.82460308 394.64064598 C409.05897051 394.65013922 399.29341177 394.64352999 389.52778468 394.63138304 C378.16333207 394.61777286 366.79889712 394.61939996 355.43443844 394.62151637 C335.16485553 394.62470687 314.89530777 394.61303386 294.62573528 394.59345055 C274.93985201 394.57443606 255.2540099 394.56736554 235.5681181 394.57294273 C214.14481773 394.57899417 192.72153547 394.57883591 171.29823661 394.5674569 C169.01611408 394.56624957 166.73399154 394.56504358 164.45186901 394.56383896 C163.32892748 394.56323542 162.20598595 394.56263188 161.04901589 394.56201005 C153.11950119 394.55812391 145.18999322 394.55852718 137.26047802 394.5604248 C127.60579904 394.56254213 117.9511562 394.55735767 108.29648742 394.54281125 C103.36668319 394.53554502 98.43693171 394.53150917 93.50712299 394.53605461 C89.00081923 394.54010867 84.49462473 394.53502983 79.98833761 394.52242853 C78.3518864 394.51948254 76.715425 394.51995962 75.0789763 394.52407161 C72.86694264 394.52912834 70.65528176 394.52205856 68.4432745 394.5117445 C67.21091698 394.51087772 65.97855946 394.51001094 64.70885777 394.5091179 C61.85766888 394.25726891 61.85766888 394.25726891 59.85766888 392.25726891 C59.38386004 387.70296093 59.40069197 383.13260074 59.37720013 378.55658531 C59.35796817 376.29250377 59.2960448 374.03220138 59.23266888 371.76898766 C59.10470581 362.98765116 59.92305129 356.19160509 65.85766888 349.25726891 C73.07657621 342.84046239 82.60774112 342.96309841 91.79907513 343.06195641 C92.80735867 343.0647863 93.8156422 343.0676162 94.85447979 343.07053185 C98.04316871 343.08163714 101.23156629 343.10672345 104.42016888 343.13226891 C106.595295 343.14231119 108.77042557 343.15143485 110.9455595 343.15961266 C116.24970649 343.1815448 121.55363846 343.21600722 126.85766888 343.25726891 C126.85766888 338.30726891 126.85766888 333.35726891 126.85766888 328.25726891 C124.30979656 328.27059258 124.30979656 328.27059258 121.71045208 328.28418541 C105.70181118 328.36527723 89.69322013 328.42547786 73.68442059 328.46451759 C65.45416279 328.4851227 57.22405856 328.51320389 48.99389935 328.55902672 C41.81856239 328.59895752 34.64333668 328.62471663 27.46789169 328.63362288 C23.67023792 328.63882713 19.87290233 328.65101567 16.07535076 328.68018913 C12.49662538 328.70745728 8.91834749 328.71569117 5.33952808 328.70969963 C3.40870342 328.71131471 1.47792685 328.73277772 -0.45277119 328.75494957 C-8.39845441 328.7174062 -14.01516556 327.8904494 -20.16576862 322.47601891 C-20.61178425 321.90883141 -21.05779987 321.34164391 -21.51733112 320.75726891 C-21.9788155 320.19008141 -22.44029987 319.62289391 -22.91576862 319.03851891 C-25.46415559 315.33767669 -26.39258109 312.6570074 -26.40239334 308.13344765 C-26.41299173 306.57182392 -26.41299173 306.57182392 -26.42380422 304.97865224 C-26.42138914 303.83625797 -26.41897406 302.6938637 -26.41648579 301.51685143 C-26.42172247 300.30217965 -26.42695914 299.08750787 -26.43235451 297.83602786 C-26.44477714 294.46277461 -26.44819763 291.08972968 -26.4477576 287.71646786 C-26.44940498 284.07897661 -26.46247006 280.44152339 -26.47395039 276.80405235 C-26.49680609 268.84946086 -26.50472166 260.89489603 -26.50977683 252.94027615 C-26.5130333 247.97319008 -26.5195555 243.00611176 -26.52677822 238.03903008 C-26.54634519 224.28606096 -26.56274873 210.53309906 -26.56565475 196.78011513 C-26.56584232 195.89991995 -26.56602989 195.01972478 -26.56622315 194.11285703 C-26.5665894 192.32848915 -26.5669531 190.54412126 -26.56731426 188.75975338 C-26.56749707 187.87399209 -26.56767988 186.98823081 -26.56786823 186.07562828 C-26.56804878 185.18878557 -26.56822933 184.30194286 -26.56841535 183.38822612 C-26.57195686 169.01872935 -26.59897734 154.64938245 -26.63636612 140.27993765 C-26.67444721 125.52632245 -26.69381222 110.77278161 -26.69411427 96.01911616 C-26.6946989 87.73574696 -26.70319432 79.45255652 -26.73211193 71.16923332 C-26.75662325 64.11562771 -26.76391052 57.06226604 -26.7488644 50.00862935 C-26.74169424 46.41055848 -26.74255663 42.81296935 -26.765275 39.21495247 C-26.78968468 35.31162827 -26.77523187 31.40899143 -26.75706196 27.50562096 C-26.77026193 26.37214957 -26.78346189 25.23867819 -26.79706186 24.07085919 C-26.71422438 16.28575505 -25.03180804 11.45299768 -19.73506445 5.73919606 C-14.07103666 0.50277267 -7.38801766 -0.0416256 0 0 Z " fill="#F3EEEC" transform="translate(30.14233112335205,58.74273109436035)"/>
<path d="M0 0 C0.79523983 -0.00350607 1.59047966 -0.00701215 2.40981767 -0.01062447 C5.07303159 -0.0199241 7.73602615 -0.01501887 10.39924908 -0.01015663 C12.32857192 -0.01389361 14.25789324 -0.01849532 16.18721217 -0.02388728 C21.48804448 -0.03612671 26.78881373 -0.03585569 32.08965695 -0.03349853 C37.80689825 -0.0330906 43.52411926 -0.04412714 49.24135113 -0.05361366 C60.44195279 -0.07022954 71.6425334 -0.07572347 82.84314636 -0.07683842 C91.94663514 -0.07778856 101.05011697 -0.08189717 110.15360355 -0.08823967 C131.76018113 -0.10298702 153.3667522 -0.11528924 174.97333527 -0.11424255 C175.66419957 -0.1142114 176.35506388 -0.11418024 177.06686346 -0.11414814 C180.56839312 -0.11398192 184.06992277 -0.11378384 187.57145242 -0.11357872 C188.26685983 -0.11353883 188.96226724 -0.11349894 189.6787476 -0.11345784 C191.08503048 -0.11337697 192.49131336 -0.11329337 193.89759623 -0.11320706 C215.77729871 -0.11198154 237.65693921 -0.12699553 259.53662395 -0.15435219 C284.12244164 -0.18507977 308.70821466 -0.20225896 333.29405326 -0.20042574 C346.31027523 -0.19976148 359.32642729 -0.20526999 372.34263325 -0.22678185 C383.42402314 -0.24497859 394.50531142 -0.24935328 405.58670978 -0.235763 C411.24058737 -0.22922595 416.89426995 -0.22914297 422.54812908 -0.2464695 C427.72535914 -0.26217224 432.90223909 -0.25936499 438.07946046 -0.24190123 C439.95088534 -0.23882521 441.82233617 -0.24248635 443.69373045 -0.25362138 C464.86769328 -0.3712502 464.86769328 -0.3712502 471.77594024 6.03658736 C475.87742796 10.49838572 478.10800065 14.37166798 478.10655785 20.51720238 C478.11345604 22.12432704 478.11345604 22.12432704 478.12049359 23.76391888 C478.11277825 25.52829438 478.11277825 25.52829438 478.10490704 27.32831383 C478.10732145 28.57847629 478.10973587 29.82863874 478.11222345 31.11668491 C478.11864358 34.58884798 478.11256369 38.06089464 478.10445917 41.53305006 C478.09788697 45.27678967 478.1028296 49.02051617 478.10634136 52.76425743 C478.11138623 60.09907861 478.10573811 67.43385474 478.09649106 74.76867032 C478.08611374 83.3065056 478.08617708 91.84433111 478.08666364 100.38217151 C478.08716444 115.61365881 478.077998 130.84512512 478.06347942 146.07660484 C478.04939166 160.86371811 478.04230864 175.6508129 478.04297161 190.43793297 C478.04301157 191.34864111 478.04305152 192.25934925 478.04309269 193.1976546 C478.04313304 194.10677258 478.0431734 195.01589056 478.04321498 195.95255756 C478.04390456 212.77624944 478.03801626 229.59993346 478.02906176 246.42362279 C478.02604327 252.37796789 478.02498194 258.33231155 478.02452946 264.28665733 C478.02384781 271.54086861 478.0193899 278.79506664 478.01019665 286.0492723 C478.00557485 289.75198748 478.00253457 293.45468569 478.00379086 297.15740395 C478.00508533 301.16702957 477.99864792 305.17660475 477.99138165 309.18622398 C477.99293025 310.36247432 477.99447885 311.53872465 477.99607438 312.75061893 C477.99284993 313.82203538 477.98962549 314.89345182 477.98630333 315.99733543 C477.9855989 316.92320363 477.98489448 317.84907183 477.98416871 318.80299664 C477.85766888 321.25726891 477.85766888 321.25726891 477.28712922 323.52351475 C477.14540731 324.09565362 477.00368539 324.66779249 476.85766888 325.25726891 C477.18766888 325.58726891 477.51766888 325.91726891 477.85766888 326.25726891 C477.96724895 328.10212876 478.0067678 329.95118889 478.01880169 331.79926109 C478.02840923 332.98429222 478.03801678 334.16932335 478.04791546 335.39026451 C478.05429028 337.32763481 478.05429028 337.32763481 478.06079388 339.30414391 C478.06649395 340.62263329 478.07219402 341.94112267 478.07806683 343.29956627 C478.08858816 346.09732004 478.0944227 348.895045 478.09790325 351.69281578 C478.10337605 355.27182417 478.12737265 358.85044981 478.15587521 362.42933846 C478.17453783 365.1832037 478.1797092 367.93697767 478.18123913 370.6909008 C478.18572744 372.65014106 478.20436183 374.60933241 478.22320843 376.56848717 C478.22020733 377.76612694 478.21720623 378.96376671 478.21411419 380.19769859 C478.21775982 381.24947289 478.22140545 382.30124718 478.22516155 383.38489342 C477.78614869 386.81628093 477.0233266 388.55852621 474.85766888 391.25726891 C470.35392306 393.98856233 467.00113682 394.63223248 461.76869869 394.63199902 C461.07520673 394.63605974 460.38171477 394.64012047 459.6672079 394.64430425 C457.34403459 394.65424798 455.02146581 394.64282404 452.69830608 394.63149071 C451.01575683 394.63423135 449.33320929 394.63828348 447.650666 394.64353436 C443.02757563 394.6541289 438.40467839 394.64598727 433.78159642 394.63478386 C428.7959234 394.62594879 423.81027583 394.63438326 418.82460308 394.64064598 C409.05897051 394.65013922 399.29341177 394.64352999 389.52778468 394.63138304 C378.16333207 394.61777286 366.79889712 394.61939996 355.43443844 394.62151637 C335.16485553 394.62470687 314.89530777 394.61303386 294.62573528 394.59345055 C274.93985201 394.57443606 255.2540099 394.56736554 235.5681181 394.57294273 C214.14481773 394.57899417 192.72153547 394.57883591 171.29823661 394.5674569 C169.01611408 394.56624957 166.73399154 394.56504358 164.45186901 394.56383896 C163.32892748 394.56323542 162.20598595 394.56263188 161.04901589 394.56201005 C153.11950119 394.55812391 145.18999322 394.55852718 137.26047802 394.5604248 C127.60579904 394.56254213 117.9511562 394.55735767 108.29648742 394.54281125 C103.36668319 394.53554502 98.43693171 394.53150917 93.50712299 394.53605461 C89.00081923 394.54010867 84.49462473 394.53502983 79.98833761 394.52242853 C78.3518864 394.51948254 76.715425 394.51995962 75.0789763 394.52407161 C72.86694264 394.52912834 70.65528176 394.52205856 68.4432745 394.5117445 C67.21091698 394.51087772 65.97855946 394.51001094 64.70885777 394.5091179 C61.85766888 394.25726891 61.85766888 394.25726891 59.85766888 392.25726891 C59.38386004 387.70296093 59.40069197 383.13260074 59.37720013 378.55658531 C59.35796817 376.29250377 59.2960448 374.03220138 59.23266888 371.76898766 C59.10470581 362.98765116 59.92305129 356.19160509 65.85766888 349.25726891 C73.07657621 342.84046239 82.60774112 342.96309841 91.79907513 343.06195641 C92.80735867 343.0647863 93.8156422 343.0676162 94.85447979 343.07053185 C98.04316871 343.08163714 101.23156629 343.10672345 104.42016888 343.13226891 C106.595295 343.14231119 108.77042557 343.15143485 110.9455595 343.15961266 C116.24970649 343.1815448 121.55363846 343.21600722 126.85766888 343.25726891 C126.85766888 338.30726891 126.85766888 333.35726891 126.85766888 328.25726891 C124.30979656 328.27059258 124.30979656 328.27059258 121.71045208 328.28418541 C105.70181118 328.36527723 89.69322013 328.42547786 73.68442059 328.46451759 C65.45416279 328.4851227 57.22405856 328.51320389 48.99389935 328.55902672 C41.81856239 328.59895752 34.64333668 328.62471663 27.46789169 328.63362288 C23.67023792 328.63882713 19.87290233 328.65101567 16.07535076 328.68018913 C12.49662538 328.70745728 8.91834749 328.71569117 5.33952808 328.70969963 C3.40870342 328.71131471 1.47792685 328.73277772 -0.45277119 328.75494957 C-8.39845441 328.7174062 -14.01516556 327.8904494 -20.16576862 322.47601891 C-20.61178425 321.90883141 -21.05779987 321.34164391 -21.51733112 320.75726891 C-21.9788155 320.19008141 -22.44029987 319.62289391 -22.91576862 319.03851891 C-25.46415559 315.33767669 -26.39258109 312.6570074 -26.40239334 308.13344765 C-26.41299173 306.57182392 -26.41299173 306.57182392 -26.42380422 304.97865224 C-26.42138914 303.83625797 -26.41897406 302.6938637 -26.41648579 301.51685143 C-26.42172247 300.30217965 -26.42695914 299.08750787 -26.43235451 297.83602786 C-26.44477714 294.46277461 -26.44819763 291.08972968 -26.4477576 287.71646786 C-26.44940498 284.07897661 -26.46247006 280.44152339 -26.47395039 276.80405235 C-26.49680609 268.84946086 -26.50472166 260.89489603 -26.50977683 252.94027615 C-26.5130333 247.97319008 -26.5195555 243.00611176 -26.52677822 238.03903008 C-26.54634519 224.28606096 -26.56274873 210.53309906 -26.56565475 196.78011513 C-26.56584232 195.89991995 -26.56602989 195.01972478 -26.56622315 194.11285703 C-26.5665894 192.32848915 -26.5669531 190.54412126 -26.56731426 188.75975338 C-26.56749707 187.87399209 -26.56767988 186.98823081 -26.56786823 186.07562828 C-26.56804878 185.18878557 -26.56822933 184.30194286 -26.56841535 183.38822612 C-26.57195686 169.01872935 -26.59897734 154.64938245 -26.63636612 140.27993765 C-26.67444721 125.52632245 -26.69381222 110.77278161 -26.69411427 96.01911616 C-26.6946989 87.73574696 -26.70319432 79.45255652 -26.73211193 71.16923332 C-26.75662325 64.11562771 -26.76391052 57.06226604 -26.7488644 50.00862935 C-26.74169424 46.41055848 -26.74255663 42.81296935 -26.765275 39.21495247 C-26.78968468 35.31162827 -26.77523187 31.40899143 -26.75706196 27.50562096 C-26.77026193 26.37214957 -26.78346189 25.23867819 -26.79706186 24.07085919 C-26.71422438 16.28575505 -25.03180804 11.45299768 -19.73506445 5.73919606 C-14.07103666 0.50277267 -7.38801766 -0.0416256 0 0 Z M-16.99310112 15.27937222 C-18.84171462 20.06951866 -18.5573796 24.81476752 -18.53001118 29.90361595 C-18.53539671 31.09605197 -18.54078225 32.28848799 -18.54633099 33.51705843 C-18.55816487 36.82361209 -18.55653809 40.12966193 -18.54916418 43.43619573 C-18.54443719 47.00342363 -18.55693817 50.57059729 -18.56718159 54.13780785 C-18.58438413 61.12491909 -18.5852066 68.11194046 -18.57996868 75.09906738 C-18.57592849 80.77777753 -18.57736875 86.4564611 -18.58271694 92.13516998 C-18.58346536 92.94316568 -18.58421379 93.75116137 -18.58498489 94.58364179 C-18.58651635 96.22504374 -18.5880547 97.86644568 -18.58959986 99.50784761 C-18.60333014 114.90312879 -18.59788348 130.29835915 -18.58641464 145.69363917 C-18.57648148 159.77987958 -18.5894234 173.86598866 -18.61334883 187.95220881 C-18.63772773 202.41430846 -18.6473507 216.87634691 -18.64069611 231.3384667 C-18.63720122 239.45851845 -18.63945371 247.57846917 -18.65694714 255.6985054 C-18.671654 262.61086402 -18.6723245 269.52305048 -18.65487622 276.43540566 C-18.64635126 279.96228066 -18.64425273 283.4888479 -18.65952778 287.01570702 C-18.67588007 290.8386091 -18.66125645 294.66103399 -18.64353657 298.48393822 C-18.65794408 300.1568421 -18.65794408 300.1568421 -18.67264265 301.86354202 C-18.61582177 307.80376123 -18.3785738 311.71285794 -14.14233112 316.25726891 C-8.89046787 321.04663223 -4.02986176 320.81523309 2.71554852 320.73828697 C3.81098354 320.74170467 4.90641857 320.74512237 6.0350486 320.74864364 C9.70649402 320.7552334 13.37720875 320.73322715 17.04858685 320.71137047 C19.6799801 320.71024223 22.31137462 320.71087538 24.94276714 320.71314049 C30.60837527 320.71523616 36.2737989 320.70270448 41.93936062 320.68018913 C50.13074211 320.64765722 58.32203455 320.63726091 66.51347364 320.63223717 C79.80403719 320.62348637 93.09450244 320.59687667 106.38501263 320.55902672 C119.29418732 320.52230104 132.20333529 320.49399201 145.11255169 320.47699547 C145.90850317 320.47594457 146.70445465 320.47489368 147.52452587 320.47381094 C151.51764892 320.46859073 155.51077216 320.46353591 159.50389552 320.45856333 C192.62189153 320.41710801 225.73976704 320.34666548 258.85766888 320.25726891 C258.85322765 319.54174355 258.84878643 318.82621819 258.84421062 318.08901024 C258.80408616 311.33587547 258.77366023 304.58277411 258.75404453 297.82954693 C258.74362079 294.35789263 258.7294875 290.88633708 258.70678997 287.41473961 C258.68084187 283.42083364 258.67118445 279.42703093 258.66235638 275.43305016 C258.64687252 273.568741 258.64687252 273.568741 258.63107586 271.66676903 C258.6309248 270.50594307 258.63077374 269.34511711 258.6306181 268.14911461 C258.62617687 267.1298539 258.62173565 266.11059319 258.61715984 265.06044579 C258.87034461 262.10953095 259.73512001 259.97437413 260.85766888 257.25726891 C260.04274407 255.20542049 260.04274407 255.20542049 258.85766888 253.25726891 C258.53882122 250.96722984 258.53882122 250.96722984 258.44360638 248.49164391 C258.4049345 247.60219078 258.36626263 246.71273766 258.32641888 245.79633141 C258.29548138 244.87594078 258.26454388 243.95555016 258.23266888 243.00726891 C258.193997 242.07140953 258.15532513 241.13555016 258.11548138 240.17133141 C258.02142044 237.86683837 257.93577489 235.56234878 257.85766888 233.25726891 C257.00044231 233.53441734 256.14321575 233.81156578 255.26001263 234.09711266 C254.11661419 234.45933922 252.97321575 234.82156578 251.79516888 235.19476891 C250.66981731 235.55441734 249.54446575 235.91406578 248.38501263 236.28461266 C226.12800528 242.42192697 202.35073623 238.50401635 182.56128216 227.27875328 C178.68035464 224.95175404 175.25461425 222.23045047 171.85766888 219.25726891 C171.18606731 218.72746422 170.51446575 218.19765953 169.82251263 217.65180016 C154.20107104 204.98007201 144.65402964 183.33201984 142.57544231 163.57465172 C140.94676651 140.55221431 147.44100132 118.98167568 162.29516888 101.19476891 C175.18198266 86.51570494 194.78622733 74.40524633 214.72583294 73.06439781 C229.55988437 72.6846866 243.03203789 72.48312121 256.85766888 78.25726891 C258.06036419 78.75355797 259.2630595 79.24984703 260.50220013 79.76117516 C279.89484434 88.63432548 294.39985996 103.71398228 302.85766888 123.25726891 C304.43594926 127.54117279 305.73118949 131.83500083 306.85766888 136.25726891 C307.21216106 137.48961266 307.56665325 138.72195641 307.93188763 139.99164391 C309.12540157 144.83871331 309.28102956 149.59405547 309.29516888 154.56976891 C309.29903606 155.5202108 309.30290325 156.47065269 309.30688763 157.44989586 C309.17191324 165.91602366 307.43050307 173.52424323 304.95141888 181.58148766 C303.71506993 185.09732718 303.71506993 185.09732718 303.85766888 188.25726891 C386.02766888 188.75226891 386.02766888 188.75226891 469.85766888 189.25726891 C470.00332689 159.03562184 470.00332689 159.03562184 470.1018095 128.81390953 C470.13148495 116.49064298 470.16638273 104.16754727 470.23486614 91.84442711 C470.28471719 82.86979134 470.31696374 73.89529409 470.32811135 64.9205237 C470.33462721 60.16880206 470.34993036 55.41747669 470.38631916 50.66588211 C470.42030552 46.19166392 470.43071653 41.71800452 470.42320728 37.24366951 C470.42458065 35.60338299 470.43449769 33.96307742 470.45369625 32.32290268 C470.87559779 22.67332509 470.87559779 22.67332509 467.63469219 13.85152245 C462.77200707 9.30887492 458.3884829 8.96403222 451.93464279 9 C451.13882389 8.99649393 450.34300499 8.99298785 449.52307037 8.98937553 C446.84588354 8.98004249 444.16891333 8.98498974 441.49171734 8.98984337 C439.55714504 8.98610808 437.62257425 8.98150705 435.68800586 8.97611272 C430.36353094 8.96385253 425.0391187 8.96414674 419.71463287 8.96650147 C413.9756195 8.96690887 408.23662644 8.95587795 402.49762249 8.94638634 C391.25129891 8.92975941 380.0049963 8.92427605 368.75866146 8.92316158 C359.62028879 8.92221202 350.48192306 8.91810634 341.34355259 8.91176033 C319.66498999 8.89701169 297.98643334 8.88471107 276.30786514 8.88575745 C275.61448507 8.8857886 274.921105 8.88581976 274.20671341 8.88585186 C270.69229371 8.88601808 267.177874 8.88621616 263.6634543 8.88642128 C262.96546448 8.88646117 262.26747466 8.88650106 261.54833363 8.88654216 C260.1368286 8.88662303 258.72532356 8.88670663 257.31381852 8.88679294 C235.34720768 8.88801878 213.38065855 8.87299962 191.41406536 8.84564781 C166.74113775 8.81493894 142.06825223 8.7977399 117.39530414 8.79957426 C104.32887783 8.80023912 91.26252113 8.79470467 78.19611073 8.77321815 C67.07320258 8.7550451 55.9503956 8.75062716 44.82747907 8.764237 C39.14980809 8.77078592 33.47233142 8.77081456 27.79467869 8.7535305 C22.6003076 8.73787988 17.40628621 8.74058106 12.21192407 8.75809877 C10.32974351 8.76118637 8.44753737 8.75747059 6.56538696 8.74637862 C4.01200973 8.73232389 1.45987039 8.74279085 -1.0934639 8.75949097 C-2.19633394 8.74458643 -2.19633394 8.74458643 -3.32148418 8.72938079 C-9.3190125 8.81263617 -12.99220437 10.90809617 -16.99310112 15.27937222 Z " fill="#6B098A" transform="translate(30.14233112335205,58.74273109436035)"/>
<path d="M0 0 C16.32377656 12.12133321 28.25550215 29.23696852 32.0078125 49.4140625 C33.99227525 65.91298421 32.21015675 80.12964159 25.48046875 95.34375 C24.66368652 95.3530957 23.8469043 95.36244141 23.00537109 95.37207031 C19.28813369 95.42590507 15.57213675 95.50952994 11.85546875 95.59375 C10.57027344 95.60792969 9.28507813 95.62210937 7.9609375 95.63671875 C-1.13216854 95.71440175 -1.13216854 95.71440175 -8.51953125 100.34375 C-10.90901322 103.92797296 -10.82186293 105.71607596 -10.93359375 109.98046875 C-10.97226562 111.27919922 -11.0109375 112.57792969 -11.05078125 113.91601562 C-11.08223642 115.28775573 -11.11348376 116.65950061 -11.14453125 118.03125 C-11.18272322 119.41473785 -11.22177567 120.79820223 -11.26171875 122.18164062 C-11.35613642 125.5688745 -11.44171243 128.95610069 -11.51953125 132.34375 C-33.2475662 140.33802701 -55.16807916 141.66401244 -76.578125 131.95703125 C-96.14479625 122.05157354 -109.38872807 105.39379414 -116.71484375 85.01953125 C-122.64552427 65.83813446 -120.57542886 45.33298442 -111.45703125 27.53125 C-107.21342057 19.71627498 -101.90339561 13.47914059 -95.51953125 7.34375 C-94.8646875 6.68117187 -94.20984375 6.01859375 -93.53515625 5.3359375 C-85.62969495 -2.19789955 -75.04886641 -7.89357961 -64.51953125 -10.65625 C-63.8632373 -10.8325293 -63.20694336 -11.00880859 -62.53076172 -11.19042969 C-40.96601508 -16.50194364 -18.4001471 -12.09560057 0 0 Z " fill="#FE4296" transform="translate(299.51953125,151.65625)"/>
<path d="M0 0 C0.77099974 0.00446144 1.54199947 0.00892289 2.33636284 0.01351953 C3.56187512 0.00883955 3.56187512 0.00883955 4.81214523 0.00406504 C7.56524437 -0.00394818 10.31812512 0.00242154 13.07122612 0.00869775 C15.0386957 0.00598936 17.00616427 0.00242929 18.97363091 -0.00192237 C24.32887301 -0.01106674 29.68403834 -0.0074937 35.03928185 -0.0011642 C40.63310268 0.00388522 46.22691676 -0.00079269 51.82073784 -0.00393653 C61.21609495 -0.00757927 70.61142065 -0.00276901 80.00677299 0.00674462 C90.88244137 0.01762975 101.75803477 0.01410439 112.63370132 0.00309181 C121.95684452 -0.0059723 131.27996509 -0.00727064 140.60311127 -0.00203085 C146.17776151 0.00109368 151.75237646 0.00148499 157.32702446 -0.00510383 C162.56692594 -0.01086395 167.80673037 -0.00690494 173.04662132 0.00468469 C174.97439983 0.00733844 176.90218645 0.00655408 178.82996178 0.00215936 C181.45232445 -0.00326946 184.07437205 0.00350536 186.6967144 0.01351953 C187.46771414 0.00905808 188.23871387 0.00459664 189.03307724 0 C194.28823851 0.0391867 194.28823851 0.0391867 196.51653862 2.26748681 C196.77050591 4.54458642 196.77050591 4.54458642 196.77532768 7.41983056 C196.781632 8.49434472 196.78793633 9.56885888 196.79443169 10.67593408 C196.78835899 12.42281518 196.78835899 12.42281518 196.78216362 14.20498681 C196.78407707 15.39599999 196.78599052 16.58701318 196.78796196 17.81411767 C196.78932492 20.33601109 196.78562078 22.8579115 196.77728081 25.3797915 C196.76658315 29.2513703 196.77717268 33.12248503 196.78997612 36.99404931 C196.78865455 39.43936284 196.7860922 41.88467608 196.78216362 44.32998681 C196.78621208 45.49457421 196.79026054 46.65916162 196.79443169 47.85903955 C196.7849752 49.47081079 196.7849752 49.47081079 196.77532768 51.11514306 C196.7737365 52.06397363 196.77214531 53.01280419 196.77050591 53.9903872 C196.51653862 56.26748681 196.51653862 56.26748681 194.51653862 58.26748681 C191.87540951 58.4650875 189.33904216 58.53674411 186.6967144 58.5214541 C185.47120212 58.52613407 185.47120212 58.52613407 184.22093201 58.53090858 C181.46783287 58.5389218 178.71495212 58.53255208 175.96185112 58.52627587 C173.99438154 58.52898426 172.02691297 58.53254433 170.05944633 58.53689599 C164.70420423 58.54604037 159.3490389 58.54246732 153.99379539 58.53613782 C148.39997456 58.5310884 142.80616048 58.53576631 137.2123394 58.53891015 C127.81698229 58.54255289 118.42165659 58.53774263 109.02630424 58.528229 C98.15063587 58.51734387 87.27504247 58.52086923 76.39937592 58.53188181 C67.07623272 58.54094592 57.75311215 58.54224426 48.42996597 58.53700447 C42.85531573 58.53387994 37.28070078 58.53348863 31.70605278 58.54007745 C26.4661513 58.54583757 21.22634687 58.54187856 15.98645592 58.53028893 C14.05867741 58.52763518 12.13089079 58.52841954 10.20311546 58.53281426 C7.58075279 58.53824308 4.95870519 58.53146827 2.33636284 58.5214541 C1.5653631 58.52591554 0.79436337 58.53037698 0 58.53497362 C-5.25516127 58.49578693 -5.25516127 58.49578693 -7.48346138 56.26748681 C-7.73742867 53.9903872 -7.73742867 53.9903872 -7.74225044 51.11514306 C-7.74855476 50.0406289 -7.75485909 48.96611474 -7.76135445 47.85903955 C-7.75730598 46.69445214 -7.75325752 45.52986474 -7.74908638 44.32998681 C-7.75099983 43.13897363 -7.75291328 41.94796044 -7.75488472 40.72085595 C-7.75624768 38.19896253 -7.75254354 35.67706212 -7.74420357 33.15518212 C-7.73350591 29.28360332 -7.74409544 25.41248859 -7.75689888 21.54092431 C-7.75557731 19.09561078 -7.75301496 16.65029754 -7.74908638 14.20498681 C-7.75313484 13.04039941 -7.7571833 11.87581201 -7.76135445 10.67593408 C-7.75505013 9.60141992 -7.7487458 8.52690576 -7.74225044 7.41983056 C-7.74065926 6.47099999 -7.73906807 5.52216943 -7.73742867 4.54458642 C-7.19646655 -0.30574155 -4.16611777 0.03106591 0 0 Z " fill="#F3EEEC" transform="translate(303.4834613800049,254.7325131893158)"/>
<path d="M0 0 C0.77099974 0.00446144 1.54199947 0.00892289 2.33636284 0.01351953 C3.56187512 0.00883955 3.56187512 0.00883955 4.81214523 0.00406504 C7.56524437 -0.00394818 10.31812512 0.00242154 13.07122612 0.00869775 C15.0386957 0.00598936 17.00616427 0.00242929 18.97363091 -0.00192237 C24.32887301 -0.01106674 29.68403834 -0.0074937 35.03928185 -0.0011642 C40.63310268 0.00388522 46.22691676 -0.00079269 51.82073784 -0.00393653 C61.21609495 -0.00757927 70.61142065 -0.00276901 80.00677299 0.00674462 C90.88244137 0.01762975 101.75803477 0.01410439 112.63370132 0.00309181 C121.95684452 -0.0059723 131.27996509 -0.00727064 140.60311127 -0.00203085 C146.17776151 0.00109368 151.75237646 0.00148499 157.32702446 -0.00510383 C162.56692594 -0.01086395 167.80673037 -0.00690494 173.04662132 0.00468469 C174.97439983 0.00733844 176.90218645 0.00655408 178.82996178 0.00215936 C181.45232445 -0.00326946 184.07437205 0.00350536 186.6967144 0.01351953 C187.46771414 0.00905808 188.23871387 0.00459664 189.03307724 0 C194.28823851 0.0391867 194.28823851 0.0391867 196.51653862 2.26748681 C196.76377678 4.50662255 196.76377678 4.50662255 196.75945854 7.32803369 C196.76253517 8.38252709 196.7656118 9.4370205 196.76878166 10.52346826 C196.75800339 12.23753869 196.75800339 12.23753869 196.74700737 13.98623681 C196.74654915 15.15505395 196.74609093 16.32387109 196.74561882 17.52810693 C196.74259354 20.00293006 196.73469908 22.47775124 196.72234917 24.9525454 C196.70411485 28.75160453 196.70183928 32.55041979 196.70208549 36.34951806 C196.69716963 38.74925976 196.69134102 41.1489998 196.68450737 43.54873681 C196.68339455 44.69145043 196.68228172 45.83416406 196.68113518 47.01150537 C196.67475533 48.06599877 196.66837547 49.12049218 196.66180229 50.20693994 C196.65799049 51.13800561 196.6541787 52.06907128 196.65025139 53.02835107 C196.51653862 55.26748681 196.51653862 55.26748681 195.51653862 57.26748681 C169.19628208 57.29081253 142.87602708 57.30846437 116.55576229 57.31929898 C104.33573436 57.32446264 92.11571283 57.33150665 79.89568901 57.34292626 C69.24888732 57.35287098 58.60209027 57.35933973 47.95528406 57.36157531 C42.3141319 57.36288277 36.67299301 57.3659709 31.03184509 57.37321687 C25.72880438 57.37997375 20.42578249 57.38210445 15.12273788 57.38059449 C13.17034999 57.38087097 11.2179615 57.38287805 9.26557732 57.38669229 C6.61219271 57.39162435 3.95888038 57.39048691 1.30549431 57.38774133 C0.52243559 57.39065417 -0.26062312 57.39356701 -1.06741089 57.39656812 C-6.36934017 57.38160802 -6.36934017 57.38160802 -7.48346138 56.26748681 C-7.58743156 54.59040257 -7.62199047 52.9089589 -7.62872505 51.22866845 C-7.6351049 50.15407876 -7.64148476 49.07948907 -7.64805794 47.97233605 C-7.64917076 46.80258737 -7.65028358 45.63283868 -7.65143013 44.42764306 C-7.65475853 43.23521493 -7.65808693 42.0427868 -7.66151619 40.81422448 C-7.66659054 38.28636079 -7.66892436 35.75849036 -7.66876411 33.23062158 C-7.67094998 29.35022027 -7.68909895 25.47010335 -7.70807076 21.58975244 C-7.71100461 19.13988362 -7.71298946 16.69001345 -7.71393013 14.24014306 C-7.72111565 13.0724186 -7.72830116 11.90469415 -7.73570442 10.7015841 C-7.73262779 9.62384225 -7.72955116 8.5461004 -7.7263813 7.4356997 C-7.72780632 6.48385293 -7.72923134 5.53200616 -7.73069954 4.55131555 C-7.20481787 -0.30644457 -4.16823641 0.03108171 0 0 Z " fill="#F3EDEC" transform="translate(303.4834613800049,320.7325131893158)"/>
<path d="M0 0 C0.77099974 0.00446144 1.54199947 0.00892289 2.33636284 0.01351953 C3.56187512 0.00883955 3.56187512 0.00883955 4.81214523 0.00406504 C7.56524437 -0.00394818 10.31812512 0.00242154 13.07122612 0.00869775 C15.0386957 0.00598936 17.00616427 0.00242929 18.97363091 -0.00192237 C24.32887301 -0.01106674 29.68403834 -0.0074937 35.03928185 -0.0011642 C40.63310268 0.00388522 46.22691676 -0.00079269 51.82073784 -0.00393653 C61.21609495 -0.00757927 70.61142065 -0.00276901 80.00677299 0.00674462 C90.88244137 0.01762975 101.75803477 0.01410439 112.63370132 0.00309181 C121.95684452 -0.0059723 131.27996509 -0.00727064 140.60311127 -0.00203085 C146.17776151 0.00109368 151.75237646 0.00148499 157.32702446 -0.00510383 C162.56692594 -0.01086395 167.80673037 -0.00690494 173.04662132 0.00468469 C174.97439983 0.00733844 176.90218645 0.00655408 178.82996178 0.00215936 C181.45232445 -0.00326946 184.07437205 0.00350536 186.6967144 0.01351953 C187.46771414 0.00905808 188.23871387 0.00459664 189.03307724 0 C194.28823851 0.0391867 194.28823851 0.0391867 196.51653862 2.26748681 C196.77050591 4.50662255 196.77050591 4.50662255 196.77532768 7.32803369 C196.781632 8.38252709 196.78793633 9.4370205 196.79443169 10.52346826 C196.78835899 12.23753869 196.78835899 12.23753869 196.78216362 13.98623681 C196.78407707 15.15505395 196.78599052 16.32387109 196.78796196 17.52810693 C196.78932488 20.00292194 196.78562103 22.47774407 196.77728081 24.9525454 C196.76658308 28.75169886 196.7771728 32.5503794 196.78997612 36.34951806 C196.78865454 38.74925869 196.78609219 41.14899903 196.78216362 43.54873681 C196.78621208 44.69145043 196.79026054 45.83416406 196.79443169 47.01150537 C196.7849752 48.59324548 196.7849752 48.59324548 196.77532768 50.20693994 C196.7737365 51.13800561 196.77214531 52.06907128 196.77050591 53.02835107 C196.51653862 55.26748681 196.51653862 55.26748681 194.51653862 57.26748681 C191.87540951 57.4650875 189.33904216 57.53674411 186.6967144 57.5214541 C185.47120212 57.52613407 185.47120212 57.52613407 184.22093201 57.53090858 C181.46783287 57.5389218 178.71495212 57.53255208 175.96185112 57.52627587 C173.99438154 57.52898426 172.02691297 57.53254433 170.05944633 57.53689599 C164.70420423 57.54604037 159.3490389 57.54246732 153.99379539 57.53613782 C148.39997456 57.5310884 142.80616048 57.53576631 137.2123394 57.53891015 C127.81698229 57.54255289 118.42165659 57.53774263 109.02630424 57.528229 C98.15063587 57.51734387 87.27504247 57.52086923 76.39937592 57.53188181 C67.07623272 57.54094592 57.75311215 57.54224426 48.42996597 57.53700447 C42.85531573 57.53387994 37.28070078 57.53348863 31.70605278 57.54007745 C26.4661513 57.54583757 21.22634687 57.54187856 15.98645592 57.53028893 C14.05867741 57.52763518 12.13089079 57.52841954 10.20311546 57.53281426 C7.58075279 57.53824308 4.95870519 57.53146827 2.33636284 57.5214541 C1.5653631 57.52591554 0.79436337 57.53037698 0 57.53497362 C-5.25516127 57.49578693 -5.25516127 57.49578693 -7.48346138 55.26748681 C-7.73742867 53.02835107 -7.73742867 53.02835107 -7.74225044 50.20693994 C-7.75170692 48.62519982 -7.75170692 48.62519982 -7.76135445 47.01150537 C-7.75730598 45.86879174 -7.75325752 44.72607812 -7.74908638 43.54873681 C-7.75099983 42.37991967 -7.75291328 41.21110253 -7.75488472 40.00686669 C-7.75624764 37.53205168 -7.75254379 35.05722955 -7.74420357 32.58242822 C-7.73350584 28.78327476 -7.74409556 24.98459422 -7.75689888 21.18545556 C-7.7555773 18.78571493 -7.75301495 16.38597459 -7.74908638 13.98623681 C-7.75313484 12.84352319 -7.7571833 11.70080956 -7.76135445 10.52346826 C-7.75505013 9.46897485 -7.7487458 8.41448144 -7.74225044 7.32803369 C-7.74065926 6.39696801 -7.73906807 5.46590234 -7.73742867 4.50662255 C-7.1903965 -0.31635802 -4.13264629 0.03081632 0 0 Z " fill="#F2ECEC" transform="translate(303.4834613800049,386.7325131893158)"/>
<path d="M0 0 C0.74016597 -0.0034177 1.48033195 -0.0068354 2.24292719 -0.01035666 C4.71220655 -0.01692231 7.1803882 0.00501747 9.64956665 0.0269165 C11.42382786 0.02804527 13.19809095 0.02741055 14.97235107 0.02514648 C19.78192388 0.02399955 24.59109707 0.04750554 29.40057707 0.07544231 C34.42940459 0.10045939 39.45824143 0.10279821 44.48712158 0.10754395 C54.00682206 0.1199728 63.52633864 0.15279326 73.04595816 0.1929419 C83.88504286 0.23766235 94.72413636 0.25964735 105.56329036 0.27972364 C127.85731126 0.32152596 150.15108009 0.39487729 172.44497681 0.48101807 C172.44497681 11.37101807 172.44497681 22.26101807 172.44497681 33.48101807 C109.74497681 33.48101807 47.04497681 33.48101807 -17.55502319 33.48101807 C-17.55502319 10.48101807 -17.55502319 10.48101807 -13.55502319 4.48101807 C-9.14243977 0.75606083 -5.62940752 -0.09604759 0 0 Z " fill="#526FAA" transform="translate(115.55502319335938,410.51898193359375)"/>
<path d="M0 0 C1.74216797 0.04060547 1.74216797 0.04060547 3.51953125 0.08203125 C4.39996094 0.11683594 5.28039062 0.15164062 6.1875 0.1875 C5.548125 1.095 4.90875 2.0025 4.25 2.9375 C1.22280476 7.70762583 1.04359877 11.30313998 0.87109375 16.921875 C0.82919922 18.21738281 0.78730469 19.51289062 0.74414062 20.84765625 C0.70433329 22.21093476 0.66462094 23.57421606 0.625 24.9375 C0.58177726 26.31641875 0.53816179 27.69532526 0.49414062 29.07421875 C0.38806042 32.4452119 0.2860015 35.81627826 0.1875 39.1875 C-0.781875 39.166875 -1.75125 39.14625 -2.75 39.125 C-5.68715895 38.83131501 -5.68715895 38.83131501 -6.8125 40.1875 C-6.90017112 42.26012076 -6.91945873 44.33570294 -6.91015625 46.41015625 C-6.90693359 47.67021484 -6.90371094 48.93027344 -6.90039062 50.22851562 C-6.89203403 51.56901109 -6.88356907 52.90950588 -6.875 54.25 C-6.8699866 55.59439942 -6.86542342 56.9388006 -6.86132812 58.28320312 C-6.84949488 61.58467941 -6.83300971 64.88606803 -6.8125 68.1875 C-3.34102158 68.93707157 -3.34102158 68.93707157 0.1875 69.1875 C0.18988835 70.37155961 0.19227671 71.55561922 0.19473743 72.77555943 C0.25210851 100.88847557 0.32484705 129.00132153 0.41648628 157.11414713 C0.42775432 160.57503978 0.43889279 164.03593284 0.44995117 167.49682617 C0.45215486 168.18582201 0.45435854 168.87481785 0.456629 169.58469235 C0.49199262 180.73794306 0.51686203 191.8911937 0.53784702 203.04447968 C0.55961654 214.49045751 0.5929001 225.93634859 0.63620156 237.38226789 C0.66015599 243.81056802 0.67887028 250.23878767 0.68511391 256.66713142 C0.69115462 262.71718594 0.71111816 268.76703447 0.74177551 274.81701279 C0.75057193 277.03777449 0.75427501 279.25856309 0.75250816 281.47934151 C0.75085723 284.51182122 0.7675399 287.54367165 0.78877258 290.57606506 C0.78392501 291.45448423 0.77907743 292.3329034 0.77408296 293.23794132 C0.83673942 298.66177271 1.76748084 302.32916297 4.1875 307.1875 C4.5175 308.1775 4.8475 309.1675 5.1875 310.1875 C-7.70433742 311.04823099 -7.70433742 311.04823099 -11.5 307.9375 C-14.84936971 303.95446575 -16.06144488 301.36450169 -16.06976891 296.15179634 C-16.0762178 295.13038083 -16.08266669 294.10896532 -16.089311 293.05659783 C-16.0862138 291.93618501 -16.0831166 290.81577219 -16.07992554 289.66140747 C-16.08445665 288.46982588 -16.08898776 287.27824428 -16.09365618 286.05055416 C-16.10413889 282.74184375 -16.10562392 279.43335044 -16.10326743 276.1246388 C-16.10285966 272.55671962 -16.1138946 268.988833 -16.12338257 265.42092896 C-16.14000191 258.43035801 -16.14549253 251.4398208 -16.14660732 244.44923176 C-16.14755733 238.76764167 -16.15166522 233.08606273 -16.15800858 227.40447617 C-16.17562328 211.29993879 -16.18484705 195.19542808 -16.18334763 179.090881 C-16.18326772 178.22251625 -16.1831878 177.35415149 -16.18310547 176.45947266 C-16.18302371 175.59004901 -16.18294195 174.72062537 -16.18285771 173.82485555 C-16.18204467 159.73208965 -16.20118623 145.6394306 -16.2293822 131.5466956 C-16.25809803 117.08011362 -16.27192323 102.61358376 -16.27019465 88.14697254 C-16.26953031 80.02354539 -16.27504172 71.90023026 -16.29655075 63.77682877 C-16.31474543 56.86079491 -16.31912405 49.94492384 -16.3055319 43.02887644 C-16.29899358 39.499977 -16.29891573 35.97139002 -16.3162384 32.44252014 C-16.33482234 28.61738796 -16.3224371 24.79271409 -16.30697632 20.96755981 C-16.31726344 19.85160844 -16.32755057 18.73565706 -16.33814943 17.58588898 C-16.28337192 11.47164786 -15.93194361 7.82488923 -11.8125 3.1875 C-7.90505847 0.05497965 -4.93215363 -0.1494592 0 0 Z " fill="#FEFEFE" transform="translate(27.8125,67.8125)"/>
<path d="M0 0 C1.28654984 -0.00810448 1.28654984 -0.00810448 2.59909058 -0.01637268 C5.42261711 -0.02883733 8.24511934 -0.01238274 11.06860352 0.00561523 C13.03866123 0.00546018 15.00871925 0.00397012 16.97877502 0.00120544 C21.10366332 -0.00017759 25.22820351 0.01236246 29.35302734 0.03515625 C34.63002566 0.06352174 39.90644496 0.06080725 45.18348598 0.04806614 C49.2508078 0.04109727 53.31799675 0.04891238 57.38530159 0.06132317 C59.33048047 0.06582723 61.27567367 0.06618363 63.22085381 0.06225777 C65.94440609 0.05933419 68.66717228 0.07590782 71.390625 0.09765625 C72.58705879 0.09090378 72.58705879 0.09090378 73.80766296 0.08401489 C79.0083721 0.15271365 82.64162867 1.06138625 87.26000977 3.50170898 C91.54103418 8.12070901 92.58131514 11.04382951 92.46313477 17.18920898 C92.15742956 20.66954522 91.31958581 22.66979192 89.26000977 25.50170898 C83.82972598 29.96608203 79.20687729 31.23482293 72.29296875 31.1328125 C71.00598083 31.14354546 71.00598083 31.14354546 69.69299316 31.15449524 C66.88014131 31.17129073 64.06890384 31.15203557 61.25610352 31.13061523 C59.28890349 31.1314447 57.32170354 31.13390701 55.35450745 31.13792419 C51.24149595 31.14077584 47.12903092 31.12614155 43.01611328 31.09863281 C37.75473582 31.06452884 32.49433355 31.07058187 27.2329092 31.08929539 C23.17413765 31.09988294 19.11559151 31.09091195 15.0568409 31.07591057 C13.11724581 31.07074271 11.17762706 31.07119354 9.2380352 31.07745552 C6.52406359 31.08292988 3.81147058 31.06246293 1.09765625 31.03515625 C0.30317581 31.04168213 -0.49130463 31.04820801 -1.30986023 31.05493164 C-6.88128632 30.9600175 -10.12895061 29.65448498 -14.73999023 26.50170898 C-18.54629136 22.31477775 -19.09741893 18.26432828 -19.01733398 12.78295898 C-18.4336957 7.98232863 -15.73815437 5.3212844 -12.13780212 2.36509705 C-7.85682113 0.01737177 -4.79211535 -0.05793811 0 0 Z " fill="#6A078A" transform="translate(385.739990234375,267.498291015625)"/>
<path d="M0 0 C0.86905975 -0.00540298 1.73811951 -0.01080597 2.6335144 -0.01637268 C5.4943084 -0.0288374 8.35409157 -0.01238402 11.21484375 0.00561523 C13.20971733 0.00546019 15.20459122 0.00397038 17.19946289 0.00120544 C21.37562412 -0.00017754 25.5514415 0.01236284 29.72753906 0.03515625 C35.07413565 0.0635404 40.42016108 0.06080212 45.76679993 0.04806614 C49.88469297 0.04110318 54.00245456 0.04890533 58.12033081 0.06132317 C60.09145605 0.06583166 62.06259543 0.06617974 64.03372192 0.06225777 C66.79100352 0.05933953 69.54750466 0.07588187 72.3046875 0.09765625 C73.52054031 0.09090378 73.52054031 0.09090378 74.76095581 0.08401489 C79.61846127 0.1475833 82.93429677 0.84071838 87.15234375 3.50170898 C91.3299541 8.13095289 92.5241826 10.99833275 92.42578125 17.11889648 C91.98199507 20.98617609 90.63007554 23.54693142 88.15234375 26.50170898 C82.74172527 30.28195923 78.82925597 31.08866697 72.31469727 31.03515625 C71.45845764 31.04377182 70.60221802 31.05238739 69.72003174 31.06126404 C66.90679159 31.08385351 64.09455334 31.077198 61.28125 31.06811523 C59.31501471 31.07335407 57.34878194 31.0796315 55.3825531 31.0868988 C51.26785429 31.09729017 47.15350158 31.09275985 43.03881836 31.078125 C37.77853623 31.06094251 32.51934697 31.08443268 27.25918674 31.1196146 C23.20038176 31.14162682 19.14183672 31.14013779 15.08299065 31.13184929 C13.14420308 31.1310318 11.20539603 31.13785628 9.26666451 31.15262032 C6.55023112 31.17013644 3.83574173 31.15546581 1.11938477 31.1328125 C0.32692856 31.1445047 -0.46552765 31.1561969 -1.28199768 31.16824341 C-7.19353493 31.06846979 -11.27591232 29.2602548 -15.84765625 25.50170898 C-18.82989723 21.40112764 -19.38694858 17.63503218 -19.1953125 12.67749023 C-18.44076362 7.95520121 -15.82418362 5.30559765 -12.25219727 2.36509705 C-7.94087035 0.00540302 -4.82552057 -0.05755588 0 0 Z " fill="#6B0B8B" transform="translate(385.84765625,333.498291015625)"/>
<path d="M0 0 C1.25947952 -0.0076664 1.25947952 -0.0076664 2.54440308 -0.01548767 C5.31295957 -0.02935881 8.08126645 -0.02842882 10.84985352 -0.02612305 C12.778896 -0.03001123 14.70793763 -0.03434615 16.63697815 -0.03910828 C20.6777728 -0.04656508 24.71848006 -0.04628303 28.75927734 -0.04101562 C33.93210998 -0.03522059 39.10458461 -0.05215548 44.27735806 -0.0753603 C48.26054468 -0.09010647 52.24364524 -0.09096815 56.22685432 -0.08785057 C58.13379691 -0.0883633 60.04074438 -0.09359195 61.94766045 -0.10366249 C64.61638399 -0.11602719 67.28441222 -0.10923518 69.953125 -0.09765625 C70.73721237 -0.10529999 71.52129974 -0.11294373 72.32914734 -0.12081909 C77.79177795 -0.06854924 82.00806837 0.96409883 86.18579102 4.7746582 C90.05118206 9.73890623 90.9671583 12.99265479 90.54125977 19.2746582 C88.55281859 24.61205294 85.63458329 27.72799644 80.54125977 30.2746582 C77.68010307 30.39933955 74.84238247 30.4635777 71.97998047 30.48339844 C70.65041573 30.49807411 70.65041573 30.49807411 69.29399109 30.51304626 C66.35168974 30.54303377 63.40943403 30.56439691 60.46704102 30.58325195 C59.46261648 30.58982378 58.45819195 30.59639561 57.42333031 30.60316658 C52.10498844 30.63577754 46.78666673 30.66022215 41.46826172 30.6796875 C37.06724859 30.6974922 32.6668772 30.73229681 28.26611328 30.78222656 C22.95340833 30.84243563 17.64129795 30.87316474 12.32826805 30.88286018 C10.30486323 30.8914163 8.28147435 30.91023824 6.25826454 30.93960381 C3.42131157 30.97855739 0.58666908 30.97954787 -2.25048828 30.97167969 C-3.0824472 30.9916803 -3.91440613 31.01168091 -4.77157593 31.0322876 C-10.29645844 30.96370265 -13.10970258 29.5992578 -17.11083698 25.78848362 C-20.52104614 21.95848967 -21.07457693 17.62010354 -20.97436523 12.6262207 C-19.99786311 8.17277918 -16.93352769 5.07733977 -13.45874023 2.2746582 C-9.06016393 0.00015925 -4.84253853 -0.01526118 0 0 Z " fill="#6C0D8C" transform="translate(387.458740234375,398.725341796875)"/>
<path d="M0 0 C13.2293578 -0.57798165 13.2293578 -0.57798165 18 3 C21.59788171 7.51193914 22.4978642 10.47723942 22.48101807 16.21334839 C22.48443577 16.91676239 22.48785347 17.62017639 22.49137473 18.34490597 C22.4979365 20.68983139 22.47600753 23.03359895 22.45410156 25.37841797 C22.45297271 27.06401035 22.45360769 28.74960469 22.45587158 30.43519592 C22.45701818 35.00304969 22.43351769 39.57048242 22.40557575 44.13823843 C22.38055306 48.91481988 22.37821941 53.69141122 22.37347412 58.4680481 C22.3610469 67.50963771 22.3282287 76.55103363 22.28807616 85.592538 C22.24335059 95.88749622 22.22136943 106.18246375 22.20129442 116.47749496 C22.15949587 137.65177429 22.08834199 158.82586812 22 180 C16.72 179.67 11.44 179.34 6 179 C5.99413376 176.89829941 5.98826752 174.79659882 5.98222351 172.63121033 C5.92556808 152.84009669 5.85249426 133.04909237 5.76428509 113.25809383 C5.71932921 103.08296177 5.67991403 92.90786468 5.65356445 82.73266602 C5.63058273 73.86344079 5.59718268 64.99432629 5.55129844 56.12518889 C5.52736863 51.42951635 5.50863825 46.73395347 5.50238609 42.03822136 C5.49633418 37.616552 5.47633038 33.19516319 5.44572449 28.77359772 C5.436946 27.15271262 5.43322129 25.53179085 5.43499184 23.91088295 C5.43664937 21.69282457 5.41990576 19.47561661 5.39872742 17.25767517 C5.39181397 15.39795783 5.39181397 15.39795783 5.38476086 13.50067043 C4.80778846 8.25120139 2.94185772 4.41278658 0 0 Z " fill="#D5D0CE" transform="translate(478,68)"/>
<path d="M0 0 C3.73255129 1.49302052 6.82962441 2.95145089 10.26171875 4.94921875 C11.79844238 5.84000122 11.79844238 5.84000122 13.36621094 6.7487793 C14.46223633 7.38855713 15.55826172 8.02833496 16.6875 8.6875 C18.42304835 9.69547202 20.15860054 10.70343751 21.89437866 11.71101379 C23.09517911 12.40831124 24.29571702 13.10606096 25.4960022 13.804245 C29.75128214 16.2789662 34.01557716 18.73754241 38.28515625 21.1875 C39.46461558 21.86496243 40.64405916 22.54245228 41.82348633 23.2199707 C44.06349858 24.50620218 46.30419328 25.79124607 48.5456543 27.07495117 C53.47258734 29.9093854 58.33097829 32.75583491 63 36 C60.16001025 39.06942939 57.40137415 41.09918742 53.73828125 43.1015625 C52.71009277 43.66915283 51.6819043 44.23674316 50.62255859 44.8215332 C49.53023926 45.41667725 48.43791992 46.01182129 47.3125 46.625 C45.03960239 47.88013116 42.76746861 49.13664652 40.49609375 50.39453125 C39.38476074 51.00893066 38.27342773 51.62333008 37.12841797 52.25634766 C33.00984839 54.55187005 28.93308688 56.91199592 24.875 59.3125 C24.21145508 59.704375 23.54791016 60.09625 22.86425781 60.5 C19.46301192 62.51680222 16.07710316 64.55760819 12.69921875 66.61328125 C11.65628662 67.24592896 11.65628662 67.24592896 10.59228516 67.89135742 C9.27293569 68.69321848 7.95605106 69.49915417 6.64208984 70.30981445 C2.22149371 73 2.22149371 73 0 73 C0 48.91 0 24.82 0 0 Z " fill="#F2ECEC" transform="translate(233,178)"/>
<path d="M0 0 C4.60785537 0.30539869 7.84574537 1.76472596 11.796875 4.0703125 C12.90740234 4.71194336 14.01792969 5.35357422 15.16210938 6.01464844 C16.35817713 6.71792176 17.55413796 7.42137694 18.75 8.125 C19.99754372 8.85015017 21.24559899 9.57442093 22.49414062 10.29785156 C25.06706301 11.79016629 27.63709474 13.28728909 30.20507812 14.78808594 C33.7676744 16.86804213 37.34268792 18.92527825 40.921875 20.9765625 C51.15993607 26.84547159 61.36730439 32.76318464 71.5 38.8125 C72.75586914 39.55935059 72.75586914 39.55935059 74.03710938 40.32128906 C74.79830078 40.77858398 75.55949219 41.23587891 76.34375 41.70703125 C77.00568359 42.1038208 77.66761719 42.50061035 78.34960938 42.90942383 C80 44 80 44 82 46 C81.81533769 48.63713637 81.34097251 49.69785134 79.35327148 51.45922852 C78.63727783 51.90709717 77.92128418 52.35496582 77.18359375 52.81640625 C76.36616699 53.33090332 75.54874023 53.84540039 74.70654297 54.37548828 C69.85665111 57.28647334 64.97555401 60.1344013 60.0625 62.9375 C58.34317672 63.92359333 56.62385663 64.90969228 54.90472412 65.89611816 C53.12626841 66.91615003 51.34707824 67.93489281 49.56787109 68.95361328 C44.93747175 71.60693494 40.31879407 74.28040676 35.69970703 76.95336914 C32.44214767 78.83618966 29.1804566 80.71167305 25.91796875 82.5859375 C22.25833263 84.68971551 18.61474115 86.81614964 14.98828125 88.9765625 C13.88057373 89.6264917 13.88057373 89.6264917 12.75048828 90.28955078 C11.42819312 91.0654016 10.11207586 91.85193818 8.80419922 92.65185547 C6.03558954 94.25925883 4.37885137 95.02902281 1.14453125 94.78125 C-1 94 -1 94 -2 93 C-2.1058609 90.18034058 -2.14677774 87.3850448 -2.14526367 84.56469727 C-2.14862228 83.6801889 -2.1519809 82.79568054 -2.15544128 81.8843689 C-2.16498143 78.94503394 -2.16689592 76.00575575 -2.16796875 73.06640625 C-2.17117917 71.03238399 -2.17454307 68.99836197 -2.17805481 66.96434021 C-2.18405373 62.69456446 -2.18589393 58.42480897 -2.18530273 54.1550293 C-2.18520106 48.67237637 -2.19885527 43.18985281 -2.21607494 37.70723057 C-2.22717027 33.50460712 -2.22922271 29.30201519 -2.22869301 25.09937859 C-2.22987678 23.07748913 -2.23432063 21.05559895 -2.24202538 19.03372383 C-2.25177578 16.2106217 -2.24896694 13.38780355 -2.24291992 10.56469727 C-2.24853943 9.72254166 -2.25415894 8.88038605 -2.25994873 8.01271057 C-2.22831532 2.22831532 -2.22831532 2.22831532 0 0 Z M6 11 C6 35.09 6 59.18 6 84 C9.88461437 82.44615425 13.17185557 80.86235312 16.76953125 78.796875 C18.45731689 77.83056152 18.45731689 77.83056152 20.17919922 76.84472656 C21.39039568 76.14665126 22.60149377 75.44840525 23.8125 74.75 C25.05996322 74.03336261 26.30752298 73.31689323 27.55517578 72.60058594 C31.37350037 70.40623529 35.18728023 68.20407119 39 66 C39.59548645 65.65598145 40.1909729 65.31196289 40.80450439 64.95751953 C44.66448836 62.72708626 48.52087458 60.49053961 52.375 58.25 C53.35960205 57.67862305 54.3442041 57.10724609 55.35864258 56.51855469 C60.00464737 53.80747042 64.56985469 51.05220714 69 48 C65.58502891 44.10974943 61.74972962 42.01775661 57.25 39.625 C49.69668188 35.51876013 42.23417043 31.27722106 34.8125 26.9375 C33.79365723 26.34259766 32.77481445 25.74769531 31.72509766 25.13476562 C27.20167237 22.48655085 22.68886807 19.82355358 18.20703125 17.10546875 C17.50666748 16.68080322 16.80630371 16.2561377 16.0847168 15.81860352 C14.81653623 15.04619355 13.55088767 14.2696044 12.28833008 13.48803711 C9.35976247 11.57765461 9.35976247 11.57765461 6 11 Z " fill="#6C078A" transform="translate(227,167)"/>
<path d="M0 0 C40.59 0 81.18 0 123 0 C123 5.28 123 10.56 123 16 C82.41 16 41.82 16 0 16 C0 10.72 0 5.44 0 0 Z " fill="#34508B" transform="translate(165,387)"/>
<path d="M0 0 C1.23262825 -0.01051392 1.23262825 -0.01051392 2.49015808 -0.02124023 C5.19886346 -0.03880492 7.9065189 -0.02720323 10.61523438 -0.01367188 C12.50183309 -0.01636724 14.38843045 -0.02025002 16.27502441 -0.02526855 C20.22596483 -0.03116153 24.17654313 -0.02260713 28.12744141 -0.00390625 C33.18842645 0.01888319 38.24856298 0.00575903 43.30951691 -0.01819611 C47.20434955 -0.03265952 51.09898146 -0.0280456 54.99382019 -0.01768494 C56.8597168 -0.01501915 58.72563172 -0.0182822 60.59150696 -0.02760315 C63.20081764 -0.03777776 65.80875984 -0.0222557 68.41796875 0 C69.57144051 -0.01214539 69.57144051 -0.01214539 70.74821472 -0.02453613 C74.38833707 0.03289967 76.5572607 0.4256535 79.69592285 2.32727051 C81.70898438 4.51757812 81.70898438 4.51757812 82.20898438 8.08007812 C81.70898438 11.51757812 81.70898438 11.51757812 80.70666504 13.2081604 C77.4781467 15.32435405 73.98202999 14.93354025 70.24609375 14.90576172 C69.38240677 14.91101868 68.51871979 14.91627563 67.62886047 14.92169189 C64.76996856 14.9349107 61.91163209 14.92614719 59.05273438 14.91601562 C57.06880588 14.91803582 55.0848781 14.9209468 53.10095215 14.92471313 C48.94141577 14.92913904 44.78207254 14.92269683 40.62255859 14.90869141 C35.28568904 14.89159942 29.94927207 14.90143918 24.61241913 14.9194088 C20.51524432 14.93023942 16.41817716 14.92680361 12.32099915 14.91902542 C10.35297085 14.91702142 8.38493285 14.91948969 6.41691589 14.92646408 C3.66830487 14.93406666 0.920431 14.92249121 -1.828125 14.90576172 C-3.05320015 14.91487076 -3.05320015 14.91487076 -4.30302429 14.92416382 C-9.76487538 14.86244674 -9.76487538 14.86244674 -12.28869629 13.2081604 C-14.05681417 10.22592845 -13.76189136 7.87256771 -13.29101562 4.51757812 C-9.325036 0.20240182 -5.56850881 -0.05863315 0 0 Z " fill="#526BA8" transform="translate(388.291015625,406.482421875)"/>
<path d="M0 0 C0.85232712 -0.00686325 1.70465424 -0.0137265 2.58280945 -0.02079773 C5.40441478 -0.03912108 8.225467 -0.03522031 11.04711914 -0.02954102 C13.00623252 -0.03410028 14.9653443 -0.03940508 16.92445374 -0.04542542 C21.03270968 -0.05436748 25.14077135 -0.05192107 29.24902344 -0.04199219 C34.5163887 -0.03050316 39.78308352 -0.05070749 45.05036068 -0.07990932 C49.09697233 -0.09824722 53.14342262 -0.09798364 57.19006538 -0.0922718 C59.1321564 -0.09211828 61.07425814 -0.09818797 63.01630974 -0.11056328 C65.73135411 -0.12542544 68.44515117 -0.11483162 71.16015625 -0.09765625 C72.36581238 -0.1121582 72.36581238 -0.1121582 73.5958252 -0.12695312 C77.15769054 -0.07972084 79.23594555 0.10193503 82.13990784 2.24790955 C83.64477539 4.40405273 83.64477539 4.40405273 84.20727539 7.40405273 C83.64477539 10.40405273 83.64477539 10.40405273 81.63453674 12.5592041 C77.80949907 14.91946457 74.60491612 14.96688399 70.24609375 14.92163086 C69.41298172 14.92864014 68.57986969 14.93564941 67.72151184 14.94287109 C64.97553907 14.96043561 62.23060186 14.94883516 59.48461914 14.93530273 C57.57320457 14.93799784 55.66179135 14.94188042 53.75038147 14.94689941 C49.74816815 14.95279215 45.74631234 14.94423778 41.74414062 14.92553711 C36.6135591 14.90273226 31.48381385 14.91588177 26.3532629 14.93982697 C22.40785922 14.95427783 18.46265399 14.94968249 14.51724434 14.9393158 C12.62540144 14.93664734 10.73354054 14.93992243 8.84171867 14.94923401 C6.19868059 14.95938966 3.55699946 14.94391373 0.9140625 14.92163086 C-0.25882828 14.93377625 -0.25882828 14.93377625 -1.45541382 14.94616699 C-4.94814362 14.89159423 -6.98410012 14.67383572 -9.8447113 12.59436035 C-12.03439834 9.41922235 -11.83393779 7.16537061 -11.35522461 3.40405273 C-8.84462685 -0.81612821 -4.36477001 -0.02438419 0 0 Z " fill="#526CA9" transform="translate(386.355224609375,341.595947265625)"/>
<path d="M0 0 C0.84271957 -0.00700928 1.68543915 -0.01401855 2.55369568 -0.02124023 C5.33756523 -0.03883633 8.1204171 -0.02719196 10.90429688 -0.01367188 C12.8395609 -0.01636633 14.77482361 -0.02024836 16.71008301 -0.02526855 C20.76534926 -0.03116578 24.82026301 -0.02259337 28.87548828 -0.00390625 C34.07447619 0.01888339 39.27263816 0.00576152 44.47159576 -0.01819611 C48.46761299 -0.03264798 52.46343428 -0.02805089 56.4594574 -0.01768494 C58.37642006 -0.01501596 60.29340049 -0.0182934 62.21034241 -0.02760315 C64.8894057 -0.0377587 67.56713022 -0.02228214 70.24609375 0 C71.4353672 -0.01214539 71.4353672 -0.01214539 72.64866638 -0.02453613 C76.18570858 0.02998437 78.23480579 0.23125293 81.1192627 2.35852051 C83.14974715 5.27378787 83.14110389 7.03919533 82.62304688 10.51757812 C81.07798221 12.55425427 79.90158531 13.37830891 77.62304688 14.51757812 C74.92888735 14.63156516 72.25998003 14.68541503 69.56494141 14.69458008 C68.73226746 14.70115128 67.89959351 14.70772247 67.04168701 14.7144928 C64.27974361 14.7342416 61.51785458 14.74589096 58.75585938 14.75585938 C57.81388577 14.7599349 56.87191216 14.76401043 55.90139389 14.76820946 C50.91717497 14.78907544 45.93298364 14.80337573 40.94873047 14.81274414 C35.79461631 14.82381886 30.64093267 14.85822945 25.4869709 14.89791584 C21.52874942 14.92402819 17.57063144 14.9324311 13.61233139 14.93602562 C11.71208661 14.94090434 9.81184684 14.95255472 7.91168594 14.97106361 C5.25408784 14.99534437 2.59761586 14.9945107 -0.06005859 14.98754883 C-0.84669891 15.00035889 -1.63333923 15.01316895 -2.44381714 15.02636719 C-5.97388297 14.99261441 -7.98987118 14.80407193 -10.86550903 12.67570496 C-12.93124936 9.72612207 -12.96471103 8.04412554 -12.37695312 4.51757812 C-9.08278153 -0.19123893 -5.32468602 -0.05437805 0 0 Z " fill="#526EA9" transform="translate(387.376953125,275.482421875)"/>
<path d="M0 0 C0.77099974 0.00446144 1.54199947 0.00892289 2.33636284 0.01351953 C3.56187512 0.00883955 3.56187512 0.00883955 4.81214523 0.00406504 C7.56524437 -0.00394818 10.31812512 0.00242154 13.07122612 0.00869775 C15.0386957 0.00598936 17.00616427 0.00242929 18.97363091 -0.00192237 C24.32887301 -0.01106674 29.68403834 -0.0074937 35.03928185 -0.0011642 C40.63310268 0.00388522 46.22691676 -0.00079269 51.82073784 -0.00393653 C61.21609495 -0.00757927 70.61142065 -0.00276901 80.00677299 0.00674462 C90.88244137 0.01762975 101.75803477 0.01410439 112.63370132 0.00309181 C121.95684452 -0.0059723 131.27996509 -0.00727064 140.60311127 -0.00203085 C146.17776151 0.00109368 151.75237646 0.00148499 157.32702446 -0.00510383 C162.56692594 -0.01086395 167.80673037 -0.00690494 173.04662132 0.00468469 C174.97439983 0.00733844 176.90218645 0.00655408 178.82996178 0.00215936 C181.45232445 -0.00326946 184.07437205 0.00350536 186.6967144 0.01351953 C187.46771414 0.00905808 188.23871387 0.00459664 189.03307724 0 C194.28823851 0.0391867 194.28823851 0.0391867 196.51653862 2.26748681 C196.77050591 4.54458642 196.77050591 4.54458642 196.77532768 7.41983056 C196.781632 8.49434472 196.78793633 9.56885888 196.79443169 10.67593408 C196.78835899 12.42281518 196.78835899 12.42281518 196.78216362 14.20498681 C196.78407707 15.39599999 196.78599052 16.58701318 196.78796196 17.81411767 C196.78932492 20.33601109 196.78562078 22.8579115 196.77728081 25.3797915 C196.76658315 29.2513703 196.77717268 33.12248503 196.78997612 36.99404931 C196.78865455 39.43936284 196.7860922 41.88467608 196.78216362 44.32998681 C196.78621208 45.49457421 196.79026054 46.65916162 196.79443169 47.85903955 C196.7849752 49.47081079 196.7849752 49.47081079 196.77532768 51.11514306 C196.7737365 52.06397363 196.77214531 53.01280419 196.77050591 53.9903872 C196.51653862 56.26748681 196.51653862 56.26748681 194.51653862 58.26748681 C191.87068953 58.46072571 189.32993547 58.52795886 186.68325615 58.50799584 C185.45562717 58.51055912 185.45562717 58.51055912 184.2031976 58.51317418 C181.44541517 58.51648315 178.68787306 58.50544235 175.93011284 58.49453759 C173.9593996 58.49397378 171.98868594 58.49428945 170.01797295 58.4954226 C164.65458955 58.49599829 159.29129495 58.48420905 153.92793226 58.47027469 C148.32784375 58.4578033 142.72775338 58.45659967 137.12765312 58.45422387 C126.51707621 58.44799851 115.90654034 58.43157345 105.29598153 58.41152489 C93.21878251 58.38919869 81.14158156 58.37818072 69.06436706 58.36813402 C44.21506813 58.34720811 19.36580567 58.31201167 -5.48346138 58.26748681 C-5.48346138 57.93748681 -5.48346138 57.60748681 -5.48346138 57.26748681 C57.87653862 56.93748681 121.23653862 56.60748681 186.51653862 56.26748681 C186.51653862 38.44748681 186.51653862 20.62748681 186.51653862 2.26748681 C180.74629204 2.26748681 174.97604546 2.26748681 169.03094292 2.26748681 C110.19280815 2.26748681 51.35467339 2.26748681 -7.48346138 2.26748681 C-4.96808597 -0.2478886 -3.43161181 0.02558885 0 0 Z " fill="#D6C9D3" transform="translate(303.4834613800049,254.7325131893158)"/>
<path d="M0 0 C4.34731225 2.2146685 7.48432837 4.80721395 10 9 C11.24526852 12.96359857 11.67563996 16.34811754 10.078125 20.25390625 C7.20653432 25.06647951 4.40149977 28.19950008 -1 30 C-7.11186871 30.58767968 -10.09254619 29.39746802 -15 26 C-18.80630113 21.81306876 -19.35742869 17.76261929 -19.27734375 12.28125 C-18.6848301 7.40761657 -15.84661748 4.74817359 -12.3125 1.625 C-8.0333271 -0.47421689 -4.68209654 -0.83218592 0 0 Z " fill="#6E0D8B" transform="translate(337,268)"/>
<path d="M0 0 C4.44741002 2.02155001 7.16479174 4.70598516 9.37109375 9.0078125 C10.99455809 14.15046351 9.65030251 18.69939497 7.3125 23.375 C3.43499351 27.77649385 -0.17577584 29.16905905 -5.9375 29.5625 C-10.77862316 29.43106679 -13.20932694 27.93082353 -16.625 24.60546875 C-20.27686824 20.3414976 -20.59242208 17.31598065 -20.52734375 11.87109375 C-19.63874279 7.03315519 -16.66839152 4.1040236 -13 1 C-9.04626902 -0.97686549 -4.30934862 -0.42666818 0 0 Z " fill="#6E0D8A" transform="translate(338,400)"/>
<path d="M0 0 C3.62330073 1.30550527 6.28743796 3.24146622 8.9375 6.0625 C11.05330394 11.9120756 11.00993339 17.77814654 8.4375 23.4375 C4.5412573 27.53355002 1.1719609 29.64458822 -4.4375 30.5625 C-9.1658974 29.81591094 -12.36886113 28.09137498 -16 25 C-18.98224098 20.89941865 -19.53929233 17.13332319 -19.34765625 12.17578125 C-18.58118706 7.37888982 -15.82504268 4.72910749 -12.3125 1.625 C-8.01213267 -0.48461416 -4.70334572 -0.80979344 0 0 Z " fill="#6E0C8A" transform="translate(337,334)"/>
<path d="M0 0 C-0.35151123 0.50394287 -0.70302246 1.00788574 -1.06518555 1.52709961 C-5.26700386 8.16892249 -5.77049101 13.81884217 -5.8125 21.5625 C-5.83763672 22.66658203 -5.86277344 23.77066406 -5.88867188 24.90820312 C-5.9470461 27.60509233 -5.97650704 30.30258141 -6 33 C-11.28 33 -16.56 33 -22 33 C-22.1082077 29.29088058 -22.18742278 25.58493544 -22.25 21.875 C-22.28351563 20.82828125 -22.31703125 19.7815625 -22.3515625 18.703125 C-22.4308835 12.43676639 -22.2241437 8.74830751 -18 4 C-12.62207022 -1.10903329 -6.97791095 -0.40648025 0 0 Z " fill="#6F8BC7" transform="translate(120,411)"/>
<path d="M0 0 C2.64 0 5.28 0 8 0 C8 18.81 8 37.62 8 57 C5.03 57 2.06 57 -1 57 C-2.67735484 55.32264516 -2.13603961 53.26260311 -2.14526367 50.96118164 C-2.15164352 49.88659195 -2.15802338 48.81200226 -2.16459656 47.70484924 C-2.16570938 46.53510056 -2.1668222 45.36535187 -2.16796875 44.16015625 C-2.17129715 42.96772812 -2.17462555 41.77529999 -2.17805481 40.54673767 C-2.18312916 38.01887397 -2.18546298 35.49100355 -2.18530273 32.96313477 C-2.1874886 29.08273346 -2.20563757 25.20261654 -2.22460938 21.32226562 C-2.22754323 18.87239681 -2.22952808 16.42252664 -2.23046875 13.97265625 C-2.23765427 12.80493179 -2.24483978 11.63720734 -2.25224304 10.43409729 C-2.24916641 9.35635544 -2.24608978 8.27861359 -2.24291992 7.16821289 C-2.24434494 6.21636612 -2.24576996 5.26451935 -2.24723816 4.28382874 C-2 2 -2 2 0 0 Z " fill="#FEFEFE" transform="translate(298,321)"/>
<path d="M0 0 C2.64 0 5.28 0 8 0 C10.55921608 2.55921608 10.2527187 3.50853718 10.25878906 7.06054688 C10.26509338 8.11504028 10.27139771 9.16953369 10.27789307 10.25598145 C10.2738446 11.39869507 10.26979614 12.54140869 10.265625 13.71875 C10.26753845 14.88756714 10.2694519 16.05638428 10.27142334 17.26062012 C10.27278626 19.73543513 10.26908241 22.21025726 10.26074219 24.68505859 C10.25004446 28.48421205 10.26063418 32.28289259 10.2734375 36.08203125 C10.27211592 38.48177188 10.26955357 40.88151222 10.265625 43.28125 C10.26967346 44.42396362 10.27372192 45.56667725 10.27789307 46.74401855 C10.27158875 47.79851196 10.26528442 48.85300537 10.25878906 49.93945312 C10.25640228 51.33605164 10.25640228 51.33605164 10.25396729 52.76086426 C10 55 10 55 8 57 C5.36 57 2.72 57 0 57 C0 38.19 0 19.38 0 0 Z " fill="#D5D0CE" transform="translate(490,387)"/>
<path d="M0 0 C2.64 0 5.28 0 8 0 C10 2 10 2 10.24723816 4.23913574 C10.24510063 5.63573425 10.24510063 5.63573425 10.24291992 7.06054688 C10.24599655 8.11504028 10.24907318 9.16953369 10.25224304 10.25598145 C10.24505753 11.39869507 10.23787201 12.54140869 10.23046875 13.71875 C10.22978142 15.47197571 10.22978142 15.47197571 10.2290802 17.26062012 C10.22605492 19.73544325 10.21816046 22.21026443 10.20581055 24.68505859 C10.18757623 28.48411772 10.18530066 32.28293298 10.18554688 36.08203125 C10.18063101 38.48177295 10.1748024 40.88151299 10.16796875 43.28125 C10.16685593 44.42396362 10.1657431 45.56667725 10.16459656 46.74401855 C10.15821671 47.79851196 10.15183685 48.85300537 10.14526367 49.93945312 C10.14145187 50.8705188 10.13764008 51.80158447 10.13371277 52.76086426 C10 55 10 55 9 57 C6.03 57 3.06 57 0 57 C0 38.19 0 19.38 0 0 Z " fill="#D5D0CE" transform="translate(490,321)"/>
<path d="M0 0 C2.64 0 5.28 0 8 0 C8 18.81 8 37.62 8 57 C5.36 57 2.72 57 0 57 C-2.55921608 54.44078392 -2.2527187 53.49146282 -2.25878906 49.93945312 C-2.26824554 48.35771301 -2.26824554 48.35771301 -2.27789307 46.74401855 C-2.2738446 45.60130493 -2.26979614 44.45859131 -2.265625 43.28125 C-2.26753845 42.11243286 -2.2694519 40.94361572 -2.27142334 39.73937988 C-2.27278626 37.26456487 -2.26908241 34.78974274 -2.26074219 32.31494141 C-2.25004446 28.51578795 -2.26063418 24.71710741 -2.2734375 20.91796875 C-2.27211592 18.51822812 -2.26955357 16.11848778 -2.265625 13.71875 C-2.26967346 12.57603638 -2.27372192 11.43332275 -2.27789307 10.25598145 C-2.27158875 9.20148804 -2.26528442 8.14699463 -2.25878906 7.06054688 C-2.25719788 6.1294812 -2.25560669 5.19841553 -2.25396729 4.23913574 C-2 2 -2 2 0 0 Z " fill="#FEFEFE" transform="translate(298,387)"/>
<path d="M0 0 C0.33 18.48 0.66 36.96 1 56 C-1.97 56 -4.94 56 -8 56 C-9.66375517 54.33624483 -9.14439946 52.34017838 -9.16113281 50.05297852 C-9.17074036 48.99840958 -9.1803479 47.94384064 -9.19024658 46.85731506 C-9.19449646 45.70944016 -9.19874634 44.56156525 -9.203125 43.37890625 C-9.20882507 42.20867416 -9.21452515 41.03844208 -9.22039795 39.83274841 C-9.22986441 37.35196848 -9.23638843 34.87117587 -9.24023438 32.39038086 C-9.24994949 28.58229824 -9.28096209 24.77475288 -9.3125 20.96679688 C-9.31902859 18.56250322 -9.32427963 16.15820569 -9.328125 13.75390625 C-9.3404718 12.60805557 -9.3528186 11.4622049 -9.36553955 10.28163147 C-9.36253845 9.22391037 -9.35953735 8.16618927 -9.35644531 7.07641602 C-9.36009094 6.14233414 -9.36373657 5.20825226 -9.36749268 4.24586487 C-9.24622009 3.50472946 -9.12494751 2.76359406 -9 2 C-6 0 -6 0 0 0 Z " fill="#FEFEFE" transform="translate(305,256)"/>
<path d="M0 0 C4.55555556 0.55555556 4.55555556 0.55555556 6 2 C6.2541555 6.64015325 6.18522798 11.29121306 6.1875 15.9375 C6.19974609 17.25169922 6.21199219 18.56589844 6.22460938 19.91992188 C6.22750977 21.7984082 6.22750977 21.7984082 6.23046875 23.71484375 C6.23457764 24.87105225 6.23868652 26.02726074 6.24291992 27.21850586 C6 30 6 30 4 32 C-0.55555556 31.44444444 -0.55555556 31.44444444 -2 30 C-2.2541555 25.35984675 -2.18522798 20.70878694 -2.1875 16.0625 C-2.19974609 14.74830078 -2.21199219 13.43410156 -2.22460938 12.08007812 C-2.22750977 10.2015918 -2.22750977 10.2015918 -2.23046875 8.28515625 C-2.23457764 7.12894775 -2.23868652 5.97273926 -2.24291992 4.78149414 C-2 2 -2 2 0 0 Z " fill="#6B088A" transform="translate(22,106)"/>
<path d="M0 0 C3.375 0.875 3.375 0.875 5.375 2.875 C6.05181895 9.98159898 6.05181895 9.98159898 3.8125 12.9375 C0.3242992 14.27911569 -2.05025344 13.80178615 -5.625 12.875 C-7.95249345 9.38375983 -8.12799316 7.98277749 -7.625 3.875 C-5.30290294 0.25252859 -4.34513693 -0.14983231 0 0 Z " fill="#F6BA4E" transform="translate(333.625,276.125)"/>
<path d="M0 0 C1.9375 1.0625 1.9375 1.0625 3 3 C3.36528977 6.4093712 3.6140629 8.88023824 1.9375 11.9375 C-1.11976176 13.6140629 -3.5906288 13.36528977 -7 13 C-8.9375 11.9375 -8.9375 11.9375 -10 10 C-10.36528977 6.5906288 -10.6140629 4.11976176 -8.9375 1.0625 C-5.88023824 -0.6140629 -3.4093712 -0.36528977 0 0 Z " fill="#F8BD4D" transform="translate(336,408)"/>
<path d="M0 0 C1.9375 1.0625 1.9375 1.0625 3 3 C3.36528977 6.4093712 3.6140629 8.88023824 1.9375 11.9375 C-1.11976176 13.6140629 -3.5906288 13.36528977 -7 13 C-8.9375 11.9375 -8.9375 11.9375 -10 10 C-10.36528977 6.5906288 -10.6140629 4.11976176 -8.9375 1.0625 C-5.88023824 -0.6140629 -3.4093712 -0.36528977 0 0 Z " fill="#F8BD4D" transform="translate(336,342)"/>
</svg>
