<?xml version="1.0" standalone="no"?>
<!DOCTYPE svg PUBLIC "-//W3C//DTD SVG 20010904//EN"
 "http://www.w3.org/TR/2001/REC-SVG-20010904/DTD/svg10.dtd">
<svg version="1.0" xmlns="http://www.w3.org/2000/svg"
 width="512.000000pt" height="512.000000pt" viewBox="0 0 512.000000 512.000000"
 preserveAspectRatio="xMidYMid meet">

<g transform="translate(0.000000,512.000000) scale(0.100000,-0.100000)"
fill="#000000" stroke="none">
<path d="M2230 4744 c-89 -8 -187 -37 -285 -84 -209 -101 -351 -272 -420 -505
-38 -129 -45 -145 -69 -149 -11 -3 -66 -7 -121 -10 -527 -26 -960 -408 -1050
-925 -23 -127 -22 -1651 0 -1772 44 -235 148 -434 316 -600 184 -182 422 -293
685 -319 131 -13 2417 -13 2548 0 288 28 559 166 742 378 119 138 197 288 246
473 22 83 22 93 26 909 3 879 2 916 -45 1065 -58 184 -141 323 -278 461 -199
203 -453 316 -740 330 -158 8 -144 -3 -185 144 -67 234 -212 415 -415 516
-163 81 -192 86 -575 89 -184 1 -355 1 -380 -1z m691 -328 c92 -20 163 -58
235 -127 74 -72 103 -124 142 -254 17 -55 35 -113 41 -128 20 -52 70 -114 118
-149 78 -57 124 -69 278 -79 159 -9 228 -25 334 -75 228 -107 383 -297 442
-539 18 -76 19 -125 19 -881 0 -770 -1 -804 -20 -880 -38 -150 -110 -275 -217
-381 -123 -120 -288 -200 -463 -223 -59 -8 -463 -10 -1325 -8 -1361 4 -1276 0
-1428 64 -131 55 -270 167 -346 278 -48 70 -98 182 -121 270 -19 76 -20 110
-20 880 0 759 1 805 20 882 57 241 213 431 441 538 106 50 175 66 334 75 150
9 197 22 273 74 47 31 96 92 119 147 8 19 28 79 45 135 38 130 68 182 142 254
71 67 143 107 230 126 89 19 637 20 727 1z"/>
<path d="M2385 3361 c-148 -38 -255 -98 -380 -214 l-70 -66 92 -92 92 -93 78
75 c88 84 160 123 266 146 123 26 263 -1 371 -72 28 -18 195 -177 371 -354
l320 -321 -170 0 c-142 0 -176 -3 -204 -18 -101 -51 -101 -173 0 -224 31 -16
73 -18 427 -18 l392 0 0 393 c0 353 -2 395 -18 426 -51 101 -173 101 -224 0
-15 -28 -18 -62 -18 -203 l0 -170 -327 326 c-330 328 -397 384 -518 437 -136
60 -338 78 -480 42z"/>
<path d="M1150 2080 c0 -432 1 -443 62 -480 66 -40 149 -16 181 53 14 28 17
67 17 208 l0 173 333 -330 c182 -182 354 -346 380 -363 131 -88 279 -134 437
-134 216 0 411 85 570 247 l54 56 -88 89 -89 90 -75 -70 c-147 -137 -312 -186
-491 -144 -133 32 -159 53 -521 412 l-335 333 173 0 c192 0 224 7 255 59 21
36 22 93 2 131 -31 59 -36 60 -470 60 l-395 0 0 -390z"/>
</g>
</svg>
