<?xml version="1.0" standalone="no"?>
<!DOCTYPE svg PUBLIC "-//W3C//DTD SVG 20010904//EN"
 "http://www.w3.org/TR/2001/REC-SVG-20010904/DTD/svg10.dtd">
<svg version="1.0" xmlns="http://www.w3.org/2000/svg"
 width="512.000000pt" height="512.000000pt" viewBox="0 0 512.000000 512.000000"
 preserveAspectRatio="xMidYMid meet">

<g transform="translate(0.000000,512.000000) scale(0.100000,-0.100000)"
fill="#000000" stroke="none">
<path d="M2418 4901 c-32 -11 -79 -33 -105 -49 -27 -17 -287 -271 -580 -564
-471 -473 -532 -537 -538 -571 -23 -122 58 -227 175 -227 25 0 60 8 77 18 18
9 235 217 483 461 l450 443 0 -1268 0 -1269 23 -40 c71 -125 243 -125 314 0
l23 40 0 1268 c0 697 3 1267 8 1267 4 0 207 -201 452 -446 251 -252 459 -452
477 -460 91 -40 208 8 242 99 15 39 14 102 -3 140 -19 44 -1068 1087 -1126
1120 -104 58 -258 74 -372 38z"/>
<path d="M145 2008 c-32 -17 -76 -61 -91 -90 -12 -23 -14 -144 -14 -731 0
-613 2 -710 16 -758 49 -169 192 -301 366 -339 39 -8 609 -10 2168 -8 l2115 3
57 21 c105 40 203 123 258 220 60 104 60 101 60 869 l0 701 -27 41 c-35 55
-87 83 -153 83 -28 0 -61 -5 -73 -11 -28 -15 -76 -58 -90 -84 -9 -14 -13 -212
-17 -712 -5 -682 -5 -692 -26 -720 -11 -15 -36 -33 -55 -40 -49 -17 -4109 -17
-4158 0 -19 7 -44 25 -55 40 -21 28 -21 38 -26 720 -4 500 -8 698 -17 712 -14
26 -62 69 -90 84 -28 14 -122 14 -148 -1z"/>
</g>
</svg>
