<?xml version="1.0" standalone="no"?>
<!DOCTYPE svg PUBLIC "-//W3C//DTD SVG 20010904//EN"
 "http://www.w3.org/TR/2001/REC-SVG-20010904/DTD/svg10.dtd">
<svg version="1.0" xmlns="http://www.w3.org/2000/svg"
 width="512.000000pt" height="512.000000pt" viewBox="0 0 512.000000 512.000000"
 preserveAspectRatio="xMidYMid meet">

<g transform="translate(0.000000,512.000000) scale(0.100000,-0.100000)"
fill="#000000" stroke="none">
<path d="M1223 4416 c-102 -32 -176 -97 -222 -196 l-26 -55 0 -1620 0 -1620
21 -46 c63 -135 215 -213 351 -180 26 7 300 139 608 293 487 245 566 282 605
282 39 -1 121 -39 606 -282 308 -154 581 -286 608 -293 134 -34 287 45 350
180 l21 46 0 1620 0 1620 -33 67 c-38 77 -92 130 -171 167 l-56 26 -1310 2
c-1064 1 -1318 -1 -1352 -11z m2655 -142 c49 -20 90 -60 113 -109 18 -38 19
-103 19 -1617 0 -1090 -3 -1585 -11 -1605 -14 -38 -57 -83 -96 -99 -71 -31
-75 -29 -667 270 -607 306 -632 317 -731 296 -37 -8 -240 -104 -619 -296 -584
-294 -595 -299 -663 -273 -38 14 -83 57 -99 96 -12 27 -14 292 -14 1608 0
1402 2 1580 16 1613 20 49 60 90 109 113 38 18 96 19 1323 19 1137 0 1287 -2
1320 -16z"/>
<path d="M2500 3662 c-31 -16 -47 -44 -135 -220 -55 -111 -103 -204 -107 -208
-4 -3 -106 -21 -227 -39 -240 -35 -263 -44 -288 -103 -30 -72 -19 -90 163
-273 l166 -166 -38 -225 c-38 -220 -38 -227 -21 -262 23 -50 71 -78 122 -73
25 3 111 42 233 107 l192 102 193 -102 c121 -65 207 -104 232 -107 51 -5 99
23 122 73 17 35 17 42 -21 261 l-38 226 165 166 c91 91 168 177 172 189 17 58
-21 133 -78 151 -17 6 -111 22 -207 35 -96 14 -190 28 -208 32 -33 5 -37 12
-133 208 -69 144 -106 209 -125 221 -40 26 -93 29 -134 7z m155 -333 c88 -175
119 -221 160 -232 11 -3 103 -18 205 -32 102 -15 191 -28 198 -31 7 -2 -53
-68 -142 -155 -129 -125 -157 -157 -162 -187 -5 -25 4 -103 26 -235 18 -108
31 -200 27 -203 -3 -3 -83 36 -179 87 -233 125 -222 125 -456 0 -95 -51 -176
-90 -179 -87 -4 3 9 95 27 203 22 132 31 210 27 234 -6 30 -35 63 -162 188
-86 84 -150 153 -143 156 7 2 83 13 168 25 227 32 251 37 280 65 14 13 65 105
115 204 49 100 92 181 95 181 3 0 46 -81 95 -181z"/>
</g>
</svg>
