<?xml version="1.0" encoding="UTF-8"?>
<svg version="1.1" xmlns="http://www.w3.org/2000/svg" width="512" height="512">
<path d="M0 0 C0.33 0.33 0.66 0.66 1 1 C2.60012911 1.11557044 4.20530904 1.16183643 5.80949402 1.18081665 C7.37148277 1.20238831 7.37148277 1.20238831 8.96502686 1.22439575 C10.69393158 1.24021194 10.69393158 1.24021194 12.45776367 1.25634766 C13.66437149 1.27095032 14.87097931 1.28555298 16.114151 1.30059814 C27.28959665 1.42698295 38.46581819 1.49686944 49.64184093 1.54844093 C57.89369138 1.58721619 66.14416176 1.6552906 74.3954069 1.76298869 C80.20534113 1.8362337 86.01490219 1.8743385 91.82527906 1.88746679 C95.28947639 1.89627634 98.75197171 1.9200549 102.21565819 1.98213577 C121.54539821 2.68832161 121.54539821 2.68832161 138.227005 -5.73989868 C154.69411057 -19.1612453 181.91302014 -20.22172508 202 -19 C230.77293389 -15.75741545 257.87437837 -1.20445534 275.9921875 21.49609375 C277.75704841 23.94728946 279.39370692 26.44240713 281 29 C281.57234375 29.86625 282.1446875 30.7325 282.734375 31.625 C288.33171877 40.54112281 291.68911683 50.06902518 295 60 C295.34820801 61.03801758 295.69641602 62.07603516 296.05517578 63.14550781 C305.66703044 92.12123582 312.59032259 121.79029137 317 152 C317.16371094 153.07733398 317.32742188 154.15466797 317.49609375 155.26464844 C319.98706267 172.27426056 320.30692865 189.21229209 320.375 206.375 C320.38294586 207.42392426 320.39089172 208.47284851 320.39907837 209.55355835 C320.59986731 244.04369988 316.42029772 284.45008666 290.95703125 310.296875 C280.73081102 320.03742619 268.36064924 323.54151046 254.54248047 323.41772461 C225.12305476 322.38118863 199.24678647 300.49607078 180 280 C177.58276408 277.39903118 175.27952038 274.72239862 173 272 C172.5570459 271.47615723 172.1140918 270.95231445 171.65771484 270.41259766 C148.76099488 243.23822107 148.76099488 243.23822107 145.25571537 234.04878426 C144.1117545 231.48817972 143.08263421 229.89844405 141 228 C136.21784955 226.70586439 131.40785062 226.80150105 126.48608398 226.80615234 C124.98753386 226.77892709 123.48903967 226.74845864 121.99061584 226.71499634 C117.92392678 226.6358293 113.85851253 226.60880404 109.79112887 226.5960803 C107.24622486 226.58593802 104.70164759 226.56490821 102.156847 226.54008865 C93.26641109 226.45409169 84.3769228 226.41165735 75.48608398 226.40771484 C67.21855659 226.40285422 58.9560661 226.30105266 50.68995804 226.15393102 C43.57869726 226.03186766 36.46908635 225.97988601 29.35678536 225.98104441 C25.11459479 225.98047981 20.87722365 225.95210977 16.63610649 225.85233688 C-0.16876041 224.764941 -0.16876041 224.764941 -15.55604172 229.76026154 C-19.5615877 233.90223972 -21.94306357 238.50400915 -24.05042839 243.82011795 C-25.49217223 247.12985414 -27.51403272 249.67374123 -29.75 252.5 C-30.47058594 253.44101562 -31.19117188 254.38203125 -31.93359375 255.3515625 C-32.61550781 256.22554688 -33.29742187 257.09953125 -34 258 C-34.63035156 258.81210937 -35.26070312 259.62421875 -35.91015625 260.4609375 C-47.6716783 275.38623653 -59.99174022 289.24180476 -75 301 C-75.92425781 301.7528125 -76.84851563 302.505625 -77.80078125 303.28125 C-94.89786187 316.79233942 -115.05372444 324.77996526 -137 323 C-150.65117379 320.55281334 -162.14068897 313.1017634 -170.21484375 301.9375 C-186.43150465 278.2088589 -192.07186523 248.47321511 -192.203125 220.10546875 C-192.21013931 219.08815674 -192.21715363 218.07084473 -192.22438049 217.02270508 C-192.24183265 213.74425803 -192.2482362 210.46599185 -192.25 207.1875 C-192.25067474 206.06574371 -192.25134949 204.94398743 -192.25204468 203.78823853 C-192.23535316 186.31720834 -191.63737789 169.29605288 -189 152 C-188.82839355 150.83952148 -188.65678711 149.67904297 -188.47998047 148.48339844 C-180.85183258 97.99719357 -170.39263122 33.23738131 -126.4375 0.8125 C-88.40493375 -25.88215636 -38.24722899 -25.68185693 0 0 Z " fill="#DDE6F5" transform="translate(192,104)"/>
<path d="M0 0 C0.33 0.33 0.66 0.66 1 1 C2.60012911 1.11557044 4.20530904 1.16183643 5.80949402 1.18081665 C7.37148277 1.20238831 7.37148277 1.20238831 8.96502686 1.22439575 C10.69393158 1.24021194 10.69393158 1.24021194 12.45776367 1.25634766 C13.66437149 1.27095032 14.87097931 1.28555298 16.114151 1.30059814 C27.28959665 1.42698295 38.46581819 1.49686944 49.64184093 1.54844093 C57.89369138 1.58721619 66.14416176 1.6552906 74.3954069 1.76298869 C80.20534113 1.8362337 86.01490219 1.8743385 91.82527906 1.88746679 C95.28947639 1.89627634 98.75197171 1.9200549 102.21565819 1.98213577 C121.54539821 2.68832161 121.54539821 2.68832161 138.227005 -5.73989868 C154.69411057 -19.1612453 181.91302014 -20.22172508 202 -19 C230.77293389 -15.75741545 257.87437837 -1.20445534 275.9921875 21.49609375 C277.75704841 23.94728946 279.39370692 26.44240713 281 29 C281.57234375 29.86625 282.1446875 30.7325 282.734375 31.625 C288.33171877 40.54112281 291.68911683 50.06902518 295 60 C295.34820801 61.03801758 295.69641602 62.07603516 296.05517578 63.14550781 C305.66703044 92.12123582 312.59032259 121.79029137 317 152 C317.16371094 153.07733398 317.32742188 154.15466797 317.49609375 155.26464844 C319.98706267 172.27426056 320.30692865 189.21229209 320.375 206.375 C320.38294586 207.42392426 320.39089172 208.47284851 320.39907837 209.55355835 C320.59986731 244.04369988 316.42029772 284.45008666 290.95703125 310.296875 C280.73081102 320.03742619 268.36064924 323.54151046 254.54248047 323.41772461 C225.12305476 322.38118863 199.24678647 300.49607078 180 280 C177.58276408 277.39903118 175.27952038 274.72239862 173 272 C172.5570459 271.47615723 172.1140918 270.95231445 171.65771484 270.41259766 C148.76099488 243.23822107 148.76099488 243.23822107 145.25571537 234.04878426 C144.1117545 231.48817972 143.08263421 229.89844405 141 228 C136.21784955 226.70586439 131.40785062 226.80150105 126.48608398 226.80615234 C124.98753386 226.77892709 123.48903967 226.74845864 121.99061584 226.71499634 C117.92392678 226.6358293 113.85851253 226.60880404 109.79112887 226.5960803 C107.24622486 226.58593802 104.70164759 226.56490821 102.156847 226.54008865 C93.26641109 226.45409169 84.3769228 226.41165735 75.48608398 226.40771484 C67.21855659 226.40285422 58.9560661 226.30105266 50.68995804 226.15393102 C43.57869726 226.03186766 36.46908635 225.97988601 29.35678536 225.98104441 C25.11459479 225.98047981 20.87722365 225.95210977 16.63610649 225.85233688 C-0.16876041 224.764941 -0.16876041 224.764941 -15.55604172 229.76026154 C-19.5615877 233.90223972 -21.94306357 238.50400915 -24.05042839 243.82011795 C-25.49217223 247.12985414 -27.51403272 249.67374123 -29.75 252.5 C-30.47058594 253.44101562 -31.19117188 254.38203125 -31.93359375 255.3515625 C-32.61550781 256.22554688 -33.29742187 257.09953125 -34 258 C-34.63035156 258.81210937 -35.26070312 259.62421875 -35.91015625 260.4609375 C-47.6716783 275.38623653 -59.99174022 289.24180476 -75 301 C-75.92425781 301.7528125 -76.84851563 302.505625 -77.80078125 303.28125 C-94.89786187 316.79233942 -115.05372444 324.77996526 -137 323 C-150.65117379 320.55281334 -162.14068897 313.1017634 -170.21484375 301.9375 C-186.43150465 278.2088589 -192.07186523 248.47321511 -192.203125 220.10546875 C-192.21013931 219.08815674 -192.21715363 218.07084473 -192.22438049 217.02270508 C-192.24183265 213.74425803 -192.2482362 210.46599185 -192.25 207.1875 C-192.25067474 206.06574371 -192.25134949 204.94398743 -192.25204468 203.78823853 C-192.23535316 186.31720834 -191.63737789 169.29605288 -189 152 C-188.82839355 150.83952148 -188.65678711 149.67904297 -188.47998047 148.48339844 C-180.85183258 97.99719357 -170.39263122 33.23738131 -126.4375 0.8125 C-88.40493375 -25.88215636 -38.24722899 -25.68185693 0 0 Z M-121 25 C-121.73476562 25.62261719 -122.46953125 26.24523437 -123.2265625 26.88671875 C-133.85182477 36.64418071 -140.35335752 49.56643745 -145 63 C-145.24169922 63.67337402 -145.48339844 64.34674805 -145.73242188 65.04052734 C-150.31245642 77.80811714 -153.74284762 90.84173031 -157 104 C-157.22574707 104.90717773 -157.45149414 105.81435547 -157.68408203 106.74902344 C-159.18655134 112.81860144 -160.6156636 118.90246995 -162 125 C-162.17772949 125.76715332 -162.35545898 126.53430664 -162.53857422 127.32470703 C-163.87969934 133.18662012 -164.99383969 139.07178577 -166 145 C-166.277229 146.60367432 -166.277229 146.60367432 -166.56005859 148.23974609 C-169.71641162 167.34623874 -170.37700103 186.21669699 -170.375 205.5625 C-170.37681274 206.70516327 -170.37862549 207.84782654 -170.38049316 209.02511597 C-170.37580004 235.14163573 -169.06226068 266.05104692 -153 288 C-152.52820313 288.65226562 -152.05640625 289.30453125 -151.5703125 289.9765625 C-147.44250191 295.21999758 -142.34201875 298.88599375 -136 301 C-119.33271879 302.70780184 -106.20010893 296.96589421 -93 287 C-92.11570312 286.33742188 -91.23140625 285.67484375 -90.3203125 284.9921875 C-84.79358694 280.70855522 -79.84012064 276.03678468 -75 271 C-70 266 -70 266 -68.3046875 264.41015625 C-62.38449442 258.74163129 -57.41709517 252.41642329 -52.46191406 245.91503906 C-51.01268714 244.01661956 -49.5499361 242.12922784 -48.0859375 240.2421875 C-41.7013272 231.9371236 -35.86775773 223.39120613 -30.36376953 214.47412109 C-29.85185059 213.66023926 -29.33993164 212.84635742 -28.8125 212.0078125 C-28.36519531 211.28223145 -27.91789063 210.55665039 -27.45703125 209.80908203 C-25.70958111 207.63940953 -24.6045103 207.00317835 -22 206 C-18.8355875 205.74552441 -18.8355875 205.74552441 -15.02284241 205.73930359 C-14.32058153 205.73547804 -13.61832065 205.73165249 -12.89477915 205.72771102 C-10.54183715 205.71739297 -8.18913972 205.72137084 -5.83618164 205.7253418 C-4.14914219 205.72099466 -2.46210472 205.71581151 -0.77507019 205.70985413 C3.80754936 205.69645319 8.39008649 205.69588666 12.97272182 205.69841743 C16.79737818 205.69948637 20.62201781 205.69460575 24.44667059 205.689812 C33.46893567 205.67871309 42.49115913 205.67828161 51.51342773 205.68432617 C60.82360088 205.69036766 70.13362297 205.67805138 79.44377035 205.6567561 C87.43538024 205.63914832 95.426942 205.63313743 103.41857058 205.63639385 C108.19239283 205.63820812 112.96610732 205.63555615 117.73991203 205.62167931 C122.22888345 205.60911892 126.71761911 205.61102806 131.20658684 205.62409019 C132.85413695 205.62645941 134.50170357 205.62370893 136.14923477 205.61546707 C138.39838402 205.60502683 140.64673824 205.61307764 142.89585876 205.6257782 C144.15444167 205.62561046 145.41302458 205.62544271 146.70974636 205.62526989 C151.00524627 206.11448845 153.7549422 207.45852924 156.47875977 210.83081055 C156.87893311 211.50926025 157.27910645 212.18770996 157.69140625 212.88671875 C158.15506592 213.65242187 158.61872559 214.418125 159.09643555 215.20703125 C159.58023682 216.02558594 160.06403809 216.84414063 160.5625 217.6875 C179.97301519 249.45621471 210.07983619 290.69300225 248 301 C256.42808056 301.74416317 264.94281567 302.30953255 272 297 C272.5878125 296.59910156 273.175625 296.19820313 273.78125 295.78515625 C289.4278188 283.94729169 293.81495417 260.92102413 296.63037109 242.75561523 C297.64294124 235.20681785 298.17800032 227.81574373 298.23828125 220.1953125 C298.2480751 219.17079483 298.25786896 218.14627716 298.26795959 217.0907135 C298.6551936 165.94955987 291.4773436 116.86127295 274.875 68.3125 C274.47958008 67.14968506 274.08416016 65.98687012 273.67675781 64.78881836 C265.27901739 40.94733561 251.47174204 23.35506715 229.11328125 11.46484375 C206.54271964 0.69028368 182.20556092 0.11786349 158.77734375 8.09765625 C152.17197332 10.61195854 146.54785051 14.05565405 140.7890625 18.1328125 C139.86867188 18.74898437 138.94828125 19.36515625 138 20 C137.2235463 20.52354065 136.44709259 21.0470813 135.64710999 21.58648682 C130.11170951 23.73184618 124.74555077 23.46758059 118.85717773 23.48339844 C117.51778448 23.49729999 116.17840298 23.51237625 114.83903503 23.52853394 C111.2105382 23.56776002 107.58220754 23.5872131 103.95353198 23.60056591 C101.68093911 23.6093853 99.40839072 23.62170494 97.13582039 23.63507843 C90.00937293 23.67607259 82.88302825 23.70508415 75.7564711 23.7166841 C67.55996296 23.73010264 59.36496166 23.78264378 51.1689114 23.86968589 C44.81446921 23.93480067 38.46044809 23.96481096 32.10567623 23.96880746 C28.31923877 23.9719343 24.5342194 23.98927071 20.74813652 24.0432663 C-7.79251395 24.42765028 -7.79251395 24.42765028 -16.77867126 16.20269775 C-17.51170975 15.4758075 -18.24474823 14.74891724 -19 14 C-51.50819966 -5.98213423 -93.07850463 0.79354954 -121 25 Z " fill="#0A115A" transform="translate(192,104)"/>
<path d="M0 0 C6.52326747 4.11804036 11.78299225 8.71464289 14.09765625 16.32421875 C14.56545704 21.17082305 14.47615406 25.96107094 14.34765625 30.82421875 C14.32960938 32.12359375 14.3115625 33.42296875 14.29296875 34.76171875 C14.2460824 37.94999026 14.18046518 41.13671175 14.09765625 44.32421875 C14.67265869 44.04126953 15.24766113 43.75832031 15.84008789 43.46679688 C24.3404791 39.45583173 32.34996525 38.73700883 41.41015625 41.76171875 C48.32897112 44.93941548 53.68408335 51.05131814 56.52416992 58.09985352 C57.83092416 63.16832429 57.5662871 68.43786698 57.53515625 73.63671875 C57.55513672 74.80912109 57.57511719 75.98152344 57.59570312 77.18945312 C57.59064328 86.25163865 55.86546409 93.00969477 50.97265625 100.63671875 C44.26203257 106.90969306 36.17355737 109.71558782 27.10546875 109.69140625 C22.19456374 109.09189317 18.27910023 106.86392442 14.09765625 104.32421875 C14.15566406 105.07445312 14.21367187 105.8246875 14.2734375 106.59765625 C14.6552378 115.25906876 13.1860441 121.39691495 7.59375 128.13671875 C2.19794643 133.33749327 -5.50271035 136.37105275 -12.96484375 136.82421875 C-21.28346546 135.76788583 -27.51048523 132.80090914 -33.2109375 126.59375 C-38.00959866 120.15489981 -39.39488567 113.18981902 -39.90234375 105.32421875 C-40.95421875 105.79859375 -42.00609375 106.27296875 -43.08984375 106.76171875 C-49.61158756 109.52141873 -56.54916888 110.70564421 -63.42578125 108.5234375 C-70.62916814 105.2985366 -77.06658241 100.09407101 -79.96289062 92.56860352 C-81.56739283 87.02748351 -81.63201327 81.43623221 -81.90234375 75.69921875 C-81.99128906 74.49136719 -82.08023437 73.28351563 -82.171875 72.0390625 C-82.61608846 62.44198569 -80.60480323 54.60987977 -74.09521484 47.29296875 C-67.5206453 41.11811098 -61.24272005 39.99310914 -52.4765625 39.828125 C-47.59306033 40.50594443 -43.3932852 42.34690165 -38.90234375 44.32421875 C-38.94161987 43.17590576 -38.94161987 43.17590576 -38.98168945 42.00439453 C-39.08657097 38.48621714 -39.15095874 34.96836993 -39.21484375 31.44921875 C-39.25673828 30.24523437 -39.29863281 29.04125 -39.34179688 27.80078125 C-39.46344161 18.84772911 -38.14060397 11.90907912 -31.92602539 5.1862793 C-22.98094678 -3.29181951 -11.20227629 -5.79428084 0 0 Z " fill="#B4CBE4" transform="translate(390.90234375,146.67578125)"/>
<path d="M0 0 C5.72217538 4.04598259 9.43826779 9.32084066 11.70703125 15.9140625 C11.93408203 18.59301758 11.93408203 18.59301758 11.90234375 21.43359375 C11.89589844 22.45517578 11.88945312 23.47675781 11.8828125 24.52929688 C11.85767578 26.11194336 11.85767578 26.11194336 11.83203125 27.7265625 C11.82300781 28.80099609 11.81398438 29.87542969 11.8046875 30.98242188 C11.78118431 33.62653104 11.748327 36.27018122 11.70703125 38.9140625 C12.32634521 38.89311523 12.94565918 38.87216797 13.58374023 38.85058594 C16.43716667 38.7665443 19.29033161 38.71512805 22.14453125 38.6640625 C23.11841797 38.63054687 24.09230469 38.59703125 25.09570312 38.5625 C33.43999675 38.45087065 40.94247365 40.41975812 47.2890625 46.1796875 C51.94017649 51.86865337 55.77682332 59.13905768 55.15234375 66.6328125 C53.17157324 76.77991759 49.25434635 83.40879499 40.703125 89.29296875 C32.03673946 93.74243682 21.16448737 92.25341367 11.70703125 91.9140625 C11.74630737 92.83517822 11.74630737 92.83517822 11.78637695 93.77490234 C12.67207181 117.65502962 12.67207181 117.65502962 3.26953125 127.8515625 C-1.00169539 131.78924432 -5.47962992 134.23809287 -11.29296875 134.9140625 C-11.916875 135.00171875 -12.54078125 135.089375 -13.18359375 135.1796875 C-20.51142253 135.75958762 -26.23776338 132.830107 -32.29296875 128.9140625 C-37.38108092 124.54427205 -40.93863551 118.96291028 -41.53100586 112.1940918 C-41.58746115 109.11614921 -41.55497054 106.05405937 -41.48046875 102.9765625 C-41.46016602 101.37844727 -41.46016602 101.37844727 -41.43945312 99.74804688 C-41.40431599 97.13618662 -41.35512059 94.52539616 -41.29296875 91.9140625 C-42.27523437 91.9454834 -42.27523437 91.9454834 -43.27734375 91.97753906 C-46.28239203 92.06136633 -49.28719339 92.11293145 -52.29296875 92.1640625 C-53.32292969 92.19757813 -54.35289063 92.23109375 -55.4140625 92.265625 C-62.07214887 92.35044139 -66.68684339 91.55762499 -72.29296875 87.9140625 C-73.32421875 87.2540625 -74.35546875 86.5940625 -75.41796875 85.9140625 C-80.5477049 81.30575558 -83.65277022 74.51461168 -84.84375 67.81640625 C-85.21665566 59.55920947 -82.94233208 53.0380765 -77.4609375 46.84375 C-69.67386596 39.50209281 -62.11949385 38.46230103 -51.79296875 38.7265625 C-50.27316406 38.74686523 -50.27316406 38.74686523 -48.72265625 38.76757812 C-46.24552471 38.80263187 -43.76953948 38.85176486 -41.29296875 38.9140625 C-41.31915283 38.2341626 -41.34533691 37.5542627 -41.37231445 36.85375977 C-41.47721452 33.72826905 -41.54158634 30.60314998 -41.60546875 27.4765625 C-41.64736328 26.40728516 -41.68925781 25.33800781 -41.73242188 24.23632812 C-41.8644257 15.60327789 -39.93716116 10.12989293 -34.30078125 3.609375 C-23.43822625 -5.45026631 -12.57767628 -6.95646054 0 0 Z " fill="#0A115B" transform="translate(148.29296875,148.0859375)"/>
<path d="M0 0 C1.0299624 3.25320847 0.9512999 5.7138152 0.4765625 9.078125 C0.3425 10.07585937 0.2084375 11.07359375 0.0703125 12.1015625 C-0.07664062 13.14054688 -0.22359375 14.17953125 -0.375 15.25 C-2.43040025 29.9042425 -3.15603315 44.4319343 -3.1328125 59.21875 C-3.13348978 60.61486833 -3.13446328 62.01098655 -3.13571167 63.40710449 C-3.13716878 66.30445501 -3.13509922 69.20177427 -3.13037109 72.09912109 C-3.12467506 75.76278931 -3.1279649 79.4263842 -3.13394356 83.09004974 C-3.13760357 85.96442185 -3.13638599 88.83877734 -3.13381577 91.71315002 C-3.1328497 93.70455983 -3.1358193 95.69597035 -3.13894653 97.68737793 C-3.10399948 111.52909156 -2.21147456 125.1736486 -0.1875 138.875 C-0.01009277 140.08607422 0.16731445 141.29714844 0.35009766 142.54492188 C4.68843926 171.34445218 11.40201035 208.42170799 35 228 C37.28822494 229.5565522 39.5108988 230.7554494 42 232 C43.33333333 232.66666667 44.66666667 233.33333333 46 234 C33.67323016 242.72936558 21.33425532 247.91231389 6 246 C2.89454178 245.12322236 0.59134511 243.90151944 -2 242 C-2.5775 241.62230469 -3.155 241.24460937 -3.75 240.85546875 C-18.31006698 230.09791926 -23.56552365 207.78276525 -26.4921875 190.87109375 C-27.63581801 182.15311038 -28.17685051 173.49245076 -28.2734375 164.703125 C-28.28596558 163.64775543 -28.29849365 162.59238586 -28.31140137 161.5050354 C-28.64289954 126.77869677 -26.16699735 93.77391246 -17.74414062 60.01318359 C-17.01836261 57.07435411 -16.33961215 54.12827572 -15.671875 51.17578125 C-11.63665653 33.73677275 -5.83620004 16.9009872 0 0 Z " fill="#B5CCE5" transform="translate(50,159)"/>
<path d="M0 0 C3.40722681 5.11084022 4.82021516 11.11946525 6.6875 16.9375 C7.02072769 17.97250137 7.02072769 17.97250137 7.36068726 19.02841187 C11.90139544 33.19534795 15.74721616 47.47970936 19 62 C19.23557617 63.04865234 19.47115234 64.09730469 19.71386719 65.17773438 C21.37562405 72.74927704 22.77131918 80.34665082 24 88 C24.19754883 89.2281543 24.39509766 90.45630859 24.59863281 91.72167969 C30.97647806 133.36034528 37.02355739 192.09155958 12.46484375 229.02734375 C7.36179146 235.89945417 2.38678182 241.22401051 -6 244 C-21.69381588 245.6492395 -33.15657186 240.93120153 -46 232 C-45.42894531 231.72542969 -44.85789062 231.45085937 -44.26953125 231.16796875 C-25.7941286 221.65997324 -17.24428674 205.00521214 -11 186 C-10.63261719 184.89914062 -10.26523437 183.79828125 -9.88671875 182.6640625 C-5.55137729 169.1056587 -2.51693256 155.52740744 -0.61694336 141.44360352 C-0.31014727 139.17006493 0.00891047 136.8985021 0.33007812 134.62695312 C2.17326259 121.39842509 3.16872182 108.44525972 3.203125 95.08203125 C3.20595238 94.3266828 3.20877975 93.57133434 3.21169281 92.79309654 C3.22661525 88.77506553 3.23588169 84.7570696 3.24023438 80.73901367 C3.24456845 77.49215137 3.25827007 74.24556241 3.28125 70.9987793 C3.42593369 50.16128431 2.67638127 29.72725559 0.27142334 9.01860046 C-0.00047609 5.9947052 -0.04706355 3.03430321 0 0 Z " fill="#B5CCE5" transform="translate(462,161)"/>
<path d="M0 0 C6.17307214 3.70615963 9.91054947 9.15175686 12 16 C13.26667868 24.98003098 12.38477437 32.57366996 7 40 C1.87499568 46.15000519 -5.37413942 48.99023015 -13.1328125 50.3828125 C-19.78332307 50.78668966 -26.02732008 48.2167407 -31.2734375 44.3046875 C-37.85847635 38.25820201 -41.07146362 31.42678951 -41.5625 22.5 C-41.20723646 14.11578052 -37.12755478 7.09297429 -31.015625 1.47265625 C-20.89227295 -5.9236688 -10.86400447 -5.19653428 0 0 Z " fill="#0B125C" transform="translate(393,233)"/>
<path d="M0 0 C6.28169151 4.00913417 11.33729381 10.26379046 13.2890625 17.4609375 C14.59104118 26.66874549 12.60435761 33.84347636 7.2890625 41.4609375 C4.84207906 43.96724175 2.33734649 45.75413802 -0.7109375 47.4609375 C-2.3196875 48.3890625 -2.3196875 48.3890625 -3.9609375 49.3359375 C-11.17388951 51.4998231 -18.08729376 51.59066089 -25.0234375 48.4609375 C-31.61290469 44.70006796 -36.9573806 39.13197406 -39.2734375 31.79296875 C-40.67305741 24.33249479 -40.89578338 16.75152835 -36.90625 10.09765625 C-27.95065884 -2.16506498 -14.14008467 -6.49430599 0 0 Z " fill="#0A125B" transform="translate(434.7109375,189.5390625)"/>
<path d="M0 0 C6.3982077 4.03909201 12.09874581 8.77833185 14.09765625 16.32421875 C15.22516688 25.48524265 14.23639493 33.87575265 8.5546875 41.35546875 C3.87281652 46.41231796 -1.0314996 49.84284454 -7.94921875 50.703125 C-16.39347622 51.01036911 -23.66784942 50.00230342 -30.19140625 44.3359375 C-36.32460655 37.87935028 -38.94985252 32.30673452 -39.40234375 23.44921875 C-39.18188187 16.16479086 -36.91651968 10.66629667 -32.03515625 5.25390625 C-22.96701172 -3.17911532 -11.3227524 -5.85659607 0 0 Z " fill="#0B125B" transform="translate(390.90234375,146.67578125)"/>
<path d="M0 0 C5.37724719 3.61930099 8.98205186 7.83404734 11 14 C12.03382961 23.080145 12.02301449 31.66556166 6.40625 39.11328125 C0.35979159 45.8907664 -7.03417197 49.00974522 -16.0625 49.5625 C-24.07581985 49.18091334 -31.1706775 44.90334125 -36.52734375 39.078125 C-40.49718053 33.47612721 -42.87155604 26.28957451 -42.51171875 19.390625 C-40.90315756 11.87582007 -36.99640833 4.6980096 -30.76171875 0.11328125 C-21.12423741 -5.97692315 -9.78640054 -6.03461616 0 0 Z " fill="#0B125B" transform="translate(351,191)"/>
<path d="M0 0 C2.9375 0.875 2.9375 0.875 4.9375 3.875 C5.24047852 7.08959961 5.24047852 7.08959961 5.31640625 11.02734375 C5.33340073 11.72388565 5.3503952 12.42042755 5.36790466 13.13807678 C5.42098196 15.36279245 5.46128538 17.58749172 5.5 19.8125 C5.54403697 22.03384027 5.59086427 24.25504177 5.64280701 26.47621155 C5.68921046 28.49434661 5.7267827 30.51267895 5.76391602 32.53100586 C5.84042409 36.33795794 5.84042409 36.33795794 6.9375 39.875 C10.91337187 42.19972545 14.79572882 42.15346182 19.3203125 42.21875 C20.36443802 42.2406842 20.36443802 42.2406842 21.42965698 42.26306152 C24.39091231 42.32503037 27.35236641 42.36498944 30.31396484 42.40673828 C32.48296858 42.44047306 34.65153293 42.48556432 36.8203125 42.53125 C38.11340332 42.54994141 39.40649414 42.56863281 40.73876953 42.58789062 C43.9375 42.875 43.9375 42.875 46.9375 44.875 C47.32149075 47.88292756 47.53786581 49.93329829 45.87255859 52.54541016 C42.95391297 54.55082829 40.01618814 54.25689337 36.6015625 54.2109375 C35.13020394 54.22345169 33.65884975 54.23648889 32.1875 54.25 C29.87451652 54.25392697 27.56196557 54.24999662 25.24902344 54.23535156 C23.01171879 54.22675756 20.77620927 54.2485012 18.5390625 54.2734375 C17.85244537 54.26009369 17.16582825 54.24674988 16.45840454 54.23300171 C12.82227878 54.28866502 10.9968509 54.83332809 8 56.9375 C5.48312963 60.52213355 5.2537631 63.24820902 5.3359375 67.4765625 C5.32793121 68.19484222 5.31992493 68.91312195 5.31167603 69.65316772 C5.28868391 71.93602676 5.29804513 74.21709436 5.3125 76.5 C5.31634825 78.78970901 5.31292576 81.07863501 5.29190063 83.36825562 C5.27981308 84.7894522 5.28247904 86.21086924 5.30160522 87.63198853 C5.28540085 90.48801985 5.25163726 92.41781089 3.60791016 94.81005859 C0.99579829 96.47536581 -1.05457244 96.25899075 -4.0625 95.875 C-6.53266312 92.16975532 -6.34229934 90.18198502 -6.40625 85.7578125 C-6.4208728 85.06364227 -6.43549561 84.36947205 -6.45056152 83.65426636 C-6.49702025 81.43623597 -6.53122933 79.21829336 -6.5625 77 C-6.60378027 74.08561304 -6.65753427 71.1718413 -6.71875 68.2578125 C-6.73744141 66.96246582 -6.75613281 65.66711914 -6.77539062 64.33251953 C-7.05111869 61.01205957 -7.38288769 58.7475643 -9.0625 55.875 C-12.46365082 54.24445413 -16.61027033 54.73125373 -20.3125 54.69921875 C-21.73959826 54.6760313 -23.16668167 54.65191441 -24.59375 54.62695312 C-26.83213432 54.59179397 -29.06996632 54.56245536 -31.30859375 54.54907227 C-33.47723046 54.53358881 -35.64428282 54.49340045 -37.8125 54.44921875 C-39.10671875 54.43463623 -40.4009375 54.42005371 -41.734375 54.4050293 C-45.0625 53.875 -45.0625 53.875 -47.5234375 52.00317383 C-49.0625 49.875 -49.0625 49.875 -48.9375 47.25 C-48.0625 44.875 -48.0625 44.875 -46.0625 42.875 C-42.97729492 42.60375977 -42.97729492 42.60375977 -39.04296875 42.56640625 C-37.61392838 42.541237 -36.18489201 42.51583911 -34.75585938 42.49023438 C-32.50448734 42.46154354 -30.25318531 42.43752663 -28.00170898 42.41870117 C-25.8275854 42.3969671 -23.65429997 42.3575136 -21.48046875 42.31640625 C-20.17875732 42.30295166 -18.8770459 42.28949707 -17.53588867 42.27563477 C-13.83159964 41.84836701 -11.96193258 41.18557233 -9.0625 38.875 C-6.48182583 35.41834846 -6.79367994 31.78635748 -6.75390625 27.58984375 C-6.7287603 26.15819881 -6.70336208 24.72655828 -6.67773438 23.29492188 C-6.64893434 21.04778047 -6.62490193 18.80071524 -6.60620117 16.5534668 C-6.58457429 14.37770707 -6.54515747 12.20280683 -6.50390625 10.02734375 C-6.49045166 8.72788818 -6.47699707 7.42843262 -6.46313477 6.08959961 C-6.0625 2.875 -6.0625 2.875 -4.72631836 0.92016602 C-3.0625 -0.125 -3.0625 -0.125 0 0 Z " fill="#F8F8FA" transform="translate(134.0625,165.125)"/>
<path d="M0 0 C1.44709099 -0.01441132 1.44709099 -0.01441132 2.92341614 -0.02911377 C3.96922348 -0.03336365 5.01503082 -0.03761353 6.0925293 -0.04199219 C7.7019062 -0.0505423 7.7019062 -0.0505423 9.34379578 -0.05926514 C11.61769624 -0.06872402 13.89161047 -0.07525263 16.16552734 -0.07910156 C19.6420898 -0.08879841 23.11805903 -0.1198104 26.59448242 -0.15136719 C28.8021612 -0.15789798 31.00984421 -0.16314815 33.2175293 -0.16699219 C34.25726395 -0.17933899 35.2969986 -0.19168579 36.36824036 -0.20440674 C42.77683533 -0.18466424 46.30403627 0.51761594 51.22924805 4.78613281 C53.03195946 8.59185691 52.45546127 12.16739952 51.35424805 16.16113281 C49.45361123 18.61356742 48.0956995 19.79040709 45.35424805 21.16113281 C43.74732127 21.2765336 42.13579802 21.33063439 40.52490234 21.35400391 C39.52013351 21.37006683 38.51536469 21.38612976 37.48014832 21.40267944 C32.88293081 21.44708387 28.28585829 21.48819219 23.68847656 21.51123047 C21.26259777 21.52779602 18.83676789 21.55509357 16.41113281 21.59326172 C12.91665276 21.6479782 9.42331732 21.66989722 5.9284668 21.68457031 C4.84498459 21.70723969 3.76150238 21.72990906 2.64518738 21.75326538 C-4.88961983 21.7320921 -4.88961983 21.7320921 -8.81396484 18.76879883 C-11.49817453 14.9476548 -12.2240275 11.79548193 -11.64575195 7.16113281 C-8.90986567 2.00050026 -5.67128741 0.04550588 0 0 Z " fill="#0A115B" transform="translate(235.645751953125,255.8388671875)"/>
<path d="M0 0 C0.33 0 0.66 0 1 0 C1.61537414 11.02203455 1.47010863 19.01631763 -5.609375 28.0546875 C-10.5837882 33.55392411 -15.1934499 35.58272717 -22.4921875 36.3828125 C-31.1902309 36.78533765 -37.37317654 35.85885514 -44 30 C-50.14056706 23.42356806 -52.33447058 17.70279155 -52.125 8.6875 C-52.11597656 7.94693359 -52.10695313 7.20636719 -52.09765625 6.44335938 C-52.07424213 4.62876533 -52.03837615 2.81433929 -52 1 C-49.99331125 3.00668875 -49.43575127 4.19230068 -48.375 6.75 C-45.38797909 12.86839598 -40.38065104 15.70146307 -34.5625 18.875 C-27.11589192 21.22656045 -19.99478483 20.47875622 -13 17 C-6.32662283 12.67132292 -3.02820044 7.23565202 0 0 Z " fill="#B4CCE4" transform="translate(159,262)"/>
<path d="M0 0 C0.33 0 0.66 0 1 0 C2.0090647 18.07346993 2.0090647 18.07346993 -4 26 C-8.53814892 30.94974847 -13.78655138 34.64295015 -20.5859375 35.3984375 C-30.41466441 35.33764125 -36.89286157 35.12688938 -44.25 28.375 C-50.78719514 21.2973281 -52.45791448 15.05470387 -52.3359375 5.50390625 C-52 3 -52 3 -50 1 C-49.505 2.175625 -49.01 3.35125 -48.5 4.5625 C-45.36941228 10.77958265 -40.41936753 15.23327825 -34 17.9375 C-25.59763456 20.54794363 -18.78141945 18.6162118 -11 15 C-5.04690428 11.25175455 -2.74518228 6.25561449 0 0 Z " fill="#B4CCE4" transform="translate(404,263)"/>
<path d="M0 0 C0.29519531 0.60070312 0.59039062 1.20140625 0.89453125 1.8203125 C4.58231382 9.09162937 9.27641303 13.89230926 16.3125 17.875 C25.02260214 20.5323193 32.95970603 19.17405767 41 15 C46.60845376 10.9647737 49.05192838 6.53176954 51 0 C51.33 0 51.66 0 52 0 C54.02959016 13.09853146 54.02959016 13.09853146 51.6484375 17.49609375 C49.8125 19.4375 49.8125 19.4375 47.828125 21.23046875 C45.84114232 23.15376608 45.08573008 24.70587794 44.0625 27.25 C42.2337814 31.26214555 39.94464627 32.65211911 35.9375 34.32421875 C33.56631211 35.15126614 31.5106941 35.75505423 29 36 C28.35546875 36.07476562 27.7109375 36.14953125 27.046875 36.2265625 C20.40459956 36.66783255 15.43826068 34.77099296 10 31 C4.71303443 26.19848202 0.41633065 21.43848702 -0.15136719 14.02270508 C-0.19589674 11.88602864 -0.17522452 9.76147389 -0.125 7.625 C-0.11597656 6.88894531 -0.10695313 6.15289062 -0.09765625 5.39453125 C-0.07430144 3.5962112 -0.03843836 1.79806089 0 0 Z " fill="#B3CAE3" transform="translate(310,220)"/>
<path d="M0 0 C0.33 0 0.66 0 1 0 C1.495 7.92 1.495 7.92 2 16 C0.02 16.99 0.02 16.99 -2 18 C-3.17103761 19.79913933 -3.17103761 19.79913933 -4 22 C-8.83584383 33.10937097 -8.83584383 33.10937097 -14.625 35.6875 C-23.33100875 38.34512372 -31.34499009 38.01532421 -39.453125 33.875 C-39.96359375 33.58625 -40.4740625 33.2975 -41 33 C-41 35.64 -41 38.28 -41 41 C-41.33 41 -41.66 41 -42 41 C-42.00257813 40.24976563 -42.00515625 39.49953125 -42.0078125 38.7265625 C-42.30944603 30.74332832 -44.10115444 25.33293384 -49 19 C-49.74121094 18.37609375 -50.48242188 17.7521875 -51.24609375 17.109375 C-53 15 -53 15 -52.953125 11.984375 C-52.72109375 10.91703125 -52.4890625 9.8496875 -52.25 8.75 C-52.02828125 7.67234375 -51.8065625 6.5946875 -51.578125 5.484375 C-51.38734375 4.66453125 -51.1965625 3.8446875 -51 3 C-49.92026879 4.61959681 -48.84214778 6.24029733 -47.7734375 7.8671875 C-43.54028738 13.94495052 -38.49231214 18.62163292 -31 20 C-22.47557813 20.79880794 -15.83248208 20.46598566 -9 15 C-4.18035078 10.63583411 -1.94228219 6.15056027 0 0 Z " fill="#B1C9E2" transform="translate(404,176)"/>
<path d="M0 0 C1.41740118 1.86500156 2.81862779 3.72279638 4.1015625 5.68359375 C7.94738401 11.45232602 12.40733218 14.71664146 19 17 C21.69993904 17.35976806 21.69993904 17.35976806 24.51953125 17.4140625 C25.54111328 17.45273438 26.56269531 17.49140625 27.61523438 17.53125 C29.19788086 17.57765625 29.19788086 17.57765625 30.8125 17.625 C31.88693359 17.66367188 32.96136719 17.70234375 34.06835938 17.7421875 C36.71196539 17.83618238 39.35595876 17.91916849 42 18 C42 24.27 42 30.54 42 37 C41.67 36.01 41.34 35.02 41 34 C40.42668945 34.0314209 39.85337891 34.0628418 39.26269531 34.09521484 C17.02030545 35.15246442 17.02030545 35.15246442 8 28 C5.51859791 25.53354612 3.70571088 23.04633978 2 20 C1.38125 18.9275 0.7625 17.855 0.125 16.75 C-1.4459195 11.51360167 -1.44559064 6.43277821 -1 1 C-0.67 0.67 -0.34 0.34 0 0 Z " fill="#B4CBE4" transform="translate(65,222)"/>
<path d="M0 0 C0.33 0 0.66 0 1 0 C1.08172936 2.5215021 1.14083373 5.04029917 1.1875 7.5625 C1.21263672 8.26697266 1.23777344 8.97144531 1.26367188 9.69726562 C1.37462702 17.72302126 -1.69655499 23.36302522 -7.02734375 29.203125 C-12.01582179 33.74708519 -18.17835969 36.13831297 -24.88671875 36.09765625 C-25.82451172 36.09443359 -26.76230469 36.09121094 -27.72851562 36.08789062 C-29.19321289 36.07532227 -29.19321289 36.07532227 -30.6875 36.0625 C-32.16959961 36.05573242 -32.16959961 36.05573242 -33.68164062 36.04882812 C-36.12111958 36.0370432 -38.56056741 36.01910783 -41 36 C-41 30.72 -41 25.44 -41 20 C-39.60007813 19.97421875 -38.20015625 19.9484375 -36.7578125 19.921875 C-20.14767817 19.71137849 -20.14767817 19.71137849 -6.0625 11.75 C-2.77041267 8.17063146 -1.38030564 4.62808362 0 0 Z " fill="#B4CCE4" transform="translate(201,220)"/>
<path d="M0 0 C0 8.58 0 17.16 0 26 C-2.97 25.01 -5.94 24.02 -9 23 C-16.78289443 21.05427639 -21.69615363 21.91407468 -28.8984375 25.125 C-31 26 -31 26 -33 26 C-33.02727345 23.33326258 -33.04696948 20.66681131 -33.0625 18 C-33.07087891 17.25621094 -33.07925781 16.51242188 -33.08789062 15.74609375 C-33.10966272 10.73851156 -32.71541549 5.95720968 -32 1 C-31.48953125 1.2165625 -30.9790625 1.433125 -30.453125 1.65625 C-21.97768781 4.90216212 -13.81922091 5.41484082 -5.3125 2 C-0.95833333 0 -0.95833333 0 0 0 Z " fill="#DBE4F4" transform="translate(395,208)"/>
<path d="M0 0 C2.4375 0.75 2.4375 0.75 4.4375 2.75 C4.80237512 5.59602594 4.83949375 7.1364306 3.25 9.5625 C0.78842224 11.17525784 -0.67315736 11.1834014 -3.5625 10.75 C-5.4375 9.625 -5.4375 9.625 -6.5625 7.75 C-6.4375 4.6875 -6.4375 4.6875 -5.5625 1.75 C-2.5625 -0.25 -2.5625 -0.25 0 0 Z " fill="#EBB85C" transform="translate(379.5625,165.25)"/>
<path d="M0 0 C5.45454545 0.45454545 5.45454545 0.45454545 8 3 C7.8125 6 7.8125 6 7 9 C4 11 4 11 1.4375 10.8125 C-1 10 -1 10 -3 7 C-2.6758631 3.67759676 -2.39223697 2.39223697 0 0 Z " fill="#4BC08E" transform="translate(419,208)"/>
<path d="M0 0 C2.875 0.6875 2.875 0.6875 3.875 1.6875 C4.33191383 6.94200902 4.33191383 6.94200902 2.6875 9.625 C0.875 10.6875 0.875 10.6875 -1.6875 10.5 C-4.125 9.6875 -4.125 9.6875 -6.125 7.6875 C-6.4375 4.6875 -6.4375 4.6875 -6.125 1.6875 C-3.125 -0.3125 -3.125 -0.3125 0 0 Z " fill="#CB4F62" transform="translate(337.125,208.3125)"/>
<path d="M0 0 C3.625 0.375 3.625 0.375 7 1 C8.33157895 6.44736842 8.33157895 6.44736842 6.875 8.875 C4.36737712 10.37957373 2.87879197 10.4318188 0 10 C-1.875 8.8125 -1.875 8.8125 -3 7 C-2.75546876 3.65807308 -2.39456443 2.39456443 0 0 Z " fill="#54A5D7" transform="translate(376,251)"/>
</svg>
