<?xml version="1.0" standalone="no"?>
<!DOCTYPE svg PUBLIC "-//W3C//DTD SVG 20010904//EN"
 "http://www.w3.org/TR/2001/REC-SVG-20010904/DTD/svg10.dtd">
<svg version="1.0" xmlns="http://www.w3.org/2000/svg"
 width="512.000000pt" height="512.000000pt" viewBox="0 0 512.000000 512.000000"
 preserveAspectRatio="xMidYMid meet">

<g transform="translate(0.000000,512.000000) scale(0.100000,-0.100000)"
fill="#000000" stroke="none">
<path d="M2485 4966 c-37 -17 -80 -62 -94 -99 -8 -20 -11 -424 -11 -1295 l0
-1267 -457 457 c-410 409 -463 458 -502 468 -51 14 -117 1 -162 -31 -62 -44
-87 -155 -50 -227 11 -20 256 -272 548 -563 475 -474 534 -529 593 -557 135
-65 286 -66 419 -1 60 29 117 83 595 558 358 357 534 539 547 566 10 22 19 55
19 73 0 64 -44 138 -102 168 -32 17 -115 18 -155 3 -15 -5 -232 -213 -480
-462 l-453 -452 0 1267 c0 871 -3 1275 -11 1295 -14 38 -57 83 -96 99 -41 18
-109 17 -148 0z"/>
<path d="M150 2069 c-32 -13 -78 -56 -96 -91 -12 -23 -14 -145 -14 -731 0
-672 1 -708 20 -768 48 -156 179 -283 335 -324 52 -13 302 -15 2165 -15 2305
0 2160 -4 2273 58 65 35 147 116 185 183 63 113 62 93 62 861 0 759 2 736 -56
790 -70 65 -178 65 -248 0 -58 -54 -56 -33 -56 -759 0 -747 3 -719 -70 -755
-33 -17 -154 -18 -2090 -18 -1936 0 -2057 1 -2090 18 -73 36 -70 8 -70 754 0
447 -4 676 -11 695 -14 38 -57 83 -96 99 -37 16 -107 17 -143 3z"/>
</g>
</svg>
