<?xml version="1.0" standalone="no"?>
<!DOCTYPE svg PUBLIC "-//W3C//DTD SVG 20010904//EN"
 "http://www.w3.org/TR/2001/REC-SVG-20010904/DTD/svg10.dtd">
<svg version="1.0" xmlns="http://www.w3.org/2000/svg"
 width="256.000000pt" height="256.000000pt" viewBox="0 0 256.000000 256.000000"
 preserveAspectRatio="xMidYMid meet">

<g transform="translate(0.000000,256.000000) scale(0.100000,-0.100000)"
fill="#000000" stroke="none">
<path d="M0 1280 l0 -1280 1280 0 1280 0 0 1280 0 1280 -1280 0 -1280 0 0
-1280z m1155 685 c72 -19 153 -66 198 -115 25 -27 26 -29 3 -9 -26 24 -31 26
-69 16 -23 -6 -44 -13 -47 -16 -8 -10 -44 -31 -62 -37 -12 -4 -18 -17 -18 -36
0 -16 -7 -40 -16 -53 -18 -27 -89 -58 -146 -64 -5 -1 -8 -8 -8 -16 0 -8 -5
-15 -11 -15 -5 0 -7 -4 -4 -10 3 -5 1 -10 -4 -10 -6 0 -11 -8 -11 -18 0 -23
-55 -89 -88 -106 -40 -20 -128 -25 -124 -7 3 12 1 12 -15 0 -46 -35 -69 -54
-70 -59 -1 -3 -6 -16 -11 -30 -9 -24 -10 -24 -21 15 -32 116 -22 233 28 342
87 186 293 280 496 228z m-92 -362 c-7 -2 -19 -2 -25 0 -7 3 -2 5 12 5 14 0
19 -2 13 -5z m-70 -38 c-3 -9 -8 -14 -10 -11 -3 3 -2 9 2 15 9 16 15 13 8 -4z
m-324 -245 c11 -24 11 -24 -3 -6 -9 11 -16 24 -16 30 0 12 5 7 19 -24z"/>
<path d="M974 1856 c-28 -28 -34 -42 -34 -76 0 -91 107 -135 180 -73 30 25 32
30 27 77 -3 40 -11 55 -36 78 -45 40 -93 38 -137 -6z"/>
<path d="M762 1670 c-19 -12 -40 -37 -49 -57 -45 -109 94 -190 181 -104 49 49
36 135 -26 167 -37 19 -67 18 -106 -6z"/>
</g>
</svg>
