<?xml version="1.0" encoding="UTF-8"?>
<svg version="1.1" xmlns="http://www.w3.org/2000/svg" width="512" height="512">
<path d="M0 0 C4.27275696 0.00913131 8.54545086 -0.00495887 12.81819487 -0.01591969 C21.16696011 -0.0336241 29.5155808 -0.02990117 37.86435151 -0.01826912 C44.65490649 -0.00920308 51.44542121 -0.00802445 58.23598051 -0.01236439 C59.20569605 -0.01297732 60.17541159 -0.01359025 61.17451245 -0.01422176 C63.14501295 -0.01550077 65.11551344 -0.01679763 67.08601391 -0.01811212 C85.5252262 -0.02949426 103.9643587 -0.01644146 122.4035579 0.00508934 C138.19497787 0.02295816 153.98628019 0.01985338 169.77769804 0.0014143 C188.15490067 -0.02003434 206.53203352 -0.02839584 224.90924692 -0.01613665 C226.87214167 -0.01486257 228.83503643 -0.01360508 230.79793119 -0.01236439 C232.24627107 -0.01143873 232.24627107 -0.01143873 233.72387034 -0.01049438 C240.49932722 -0.00705344 247.27473952 -0.01284261 254.0501895 -0.0222826 C262.31715708 -0.03354846 270.58397291 -0.03036672 278.8509233 -0.00915962 C283.0617364 0.00128945 287.27229731 0.00557877 291.48310804 -0.00775623 C323.90212955 -0.10175735 349.12359498 4.24026877 373.51695585 27.52289867 C374.41994413 28.31373852 374.41994413 28.31373852 375.3411746 29.12055492 C383.88934821 36.91154765 390.01461726 47.50799328 394.45445585 58.08539867 C394.72451445 58.72010082 394.99457304 59.35480297 395.27281523 60.00873852 C399.80323171 71.4924841 400.96049139 83.21335074 400.90463591 95.45534801 C400.90881986 96.9072489 400.91430314 98.35914652 400.92095572 99.8110382 C400.93529013 103.76000741 400.93120364 107.70876579 400.92378891 111.65774596 C400.91902946 115.9325947 400.9315915 120.20739963 400.94180632 124.482234 C400.9589459 132.84141132 400.95984437 141.20051331 400.95459341 149.55970363 C400.95054123 156.35890735 400.95200769 163.15808893 400.95734167 169.9572916 C400.95809009 170.92741361 400.95883852 171.89753562 400.95960962 172.89705526 C400.9611412 174.86828036 400.96267955 176.83950545 400.96422458 178.81073054 C400.97793226 197.2699426 400.97252426 215.7291122 400.96103937 234.18832328 C400.95111008 251.04715839 400.9640455 267.9058837 400.98797356 284.76470188 C401.01240168 302.1075389 401.02196324 319.45032487 401.01532084 336.79317874 C401.0118367 346.51696382 401.01400726 356.24066452 401.03157187 365.96443653 C401.0463404 374.24244869 401.04686884 382.52031705 401.02950095 390.79832653 C401.02102648 395.01519979 401.01875356 399.23181666 401.03415251 403.44867611 C401.14402133 435.88694272 396.81466194 461.11374239 373.51695585 485.52289867 C372.72611601 486.42588696 372.72611601 486.42588696 371.9192996 487.34711742 C364.12830687 495.89529103 353.53186125 502.02056008 342.95445585 506.46039867 C342.3197537 506.73045727 341.68505156 507.00051586 341.03111601 507.27875805 C329.54737043 511.80917453 317.82650378 512.96643421 305.58450651 512.91057873 C304.13260562 512.91476268 302.68070801 512.92024596 301.22881633 512.92689854 C297.27984712 512.94123295 293.33108873 512.93714646 289.38210857 512.92973173 C285.10725983 512.92497228 280.8324549 512.93753432 276.55762053 512.94774914 C268.19844321 512.96488872 259.83934122 512.96578719 251.4801509 512.96053623 C244.68094718 512.95648405 237.8817656 512.95795051 231.08256292 512.96328449 C229.62737991 512.96440713 229.62737991 512.96440713 228.14279926 512.96555244 C226.17157417 512.96708402 224.20034907 512.96862237 222.22912399 512.97016741 C203.76991193 512.98387508 185.31074232 512.97846708 166.85153124 512.96698219 C149.99269613 512.9570529 133.13397082 512.96998833 116.27515265 512.99391638 C98.93231562 513.0183445 81.58952966 513.02790606 64.24667579 513.02126366 C54.5228907 513.01777952 44.79919 513.01995008 35.075418 513.03751469 C26.79740583 513.05228322 18.51953748 513.05281167 10.241528 513.03544378 C6.02465474 513.02696931 1.80803787 513.02469638 -2.40882158 513.04009533 C-34.8470882 513.14996415 -60.07388786 508.82060476 -84.48304415 485.52289867 C-85.08503633 484.99567211 -85.68702852 484.46844555 -86.3072629 483.92524242 C-94.85543651 476.1342497 -100.98070556 465.53780407 -105.42054415 454.96039867 C-105.69060274 454.32569653 -105.96066133 453.69099438 -106.23890352 453.03705883 C-107.08684906 450.8876779 -107.80248896 448.73122624 -108.48304415 446.52289867 C-108.75970919 445.628531 -109.03637423 444.73416332 -109.32142305 443.8126936 C-112.25402842 432.54664488 -112.00643856 421.0930203 -111.98402071 409.52460766 C-111.98303764 405.93665957 -112.02500042 402.35077949 -112.06898165 398.76313305 C-112.07418192 396.47342393 -112.07687695 394.18370745 -112.07679415 391.89399242 C-112.09318941 390.82628109 -112.10958467 389.75856976 -112.12647676 388.65850353 C-112.05777136 381.3082517 -112.05777136 381.3082517 -109.13343477 377.31220531 C-106.48304415 375.52289867 -106.48304415 375.52289867 -103.48304415 375.52289867 C-103.48304415 370.24289867 -103.48304415 364.96289867 -103.48304415 359.52289867 C-105.46304415 358.86289867 -107.44304415 358.20289867 -109.48304415 357.52289867 C-111.60480373 354.3402593 -111.73406743 353.56608575 -111.74031305 349.92208195 C-111.74676195 348.97214229 -111.75321084 348.02220264 -111.75985515 347.04347694 C-111.75675795 345.99769167 -111.75366074 344.95190639 -111.75046968 343.87443066 C-111.7550008 342.76496865 -111.75953191 341.65550665 -111.76420033 340.51242459 C-111.77691423 336.77482607 -111.7752194 333.03737197 -111.77357149 329.29975414 C-111.77955278 326.62741581 -111.78630055 323.955089 -111.79392672 321.28275585 C-111.8105592 314.76227282 -111.81603747 308.24182594 -111.81715147 301.72132348 C-111.81810188 296.4149944 -111.82221187 291.10867725 -111.82855272 285.80235195 C-111.84617942 270.74370383 -111.85539059 255.68508424 -111.85389178 240.62642573 C-111.85381186 239.81415145 -111.85373195 239.00187717 -111.85364962 238.16498852 C-111.85356785 237.35171585 -111.85348609 236.53844319 -111.85340185 235.70052589 C-111.85259089 222.55277044 -111.87167686 209.4051301 -111.89992635 196.25740789 C-111.92873214 182.74340436 -111.94246209 169.22945677 -111.9407388 155.7154218 C-111.94007704 148.13433075 -111.94547359 140.55336 -111.9670949 132.97229671 C-111.98540929 126.50926445 -111.98957154 120.04640684 -111.97607605 113.5833597 C-111.96959454 110.29206001 -111.97147227 107.0011599 -111.98678255 103.70987988 C-112.118168 73.48973813 -105.8907993 49.95194123 -84.48304415 27.52289867 C-83.95581758 26.92090649 -83.42859102 26.3189143 -82.8853879 25.69867992 C-61.12984784 1.82879071 -30.02765399 -0.09509302 0 0 Z " fill="#3C5662" transform="translate(111.48304414749146,-0.5228986740112305)"/>
<path d="M0 0 C4.27275696 0.00913131 8.54545086 -0.00495887 12.81819487 -0.01591969 C21.16696011 -0.0336241 29.5155808 -0.02990117 37.86435151 -0.01826912 C44.65490649 -0.00920308 51.44542121 -0.00802445 58.23598051 -0.01236439 C59.20569605 -0.01297732 60.17541159 -0.01359025 61.17451245 -0.01422176 C63.14501295 -0.01550077 65.11551344 -0.01679763 67.08601391 -0.01811212 C85.5252262 -0.02949426 103.9643587 -0.01644146 122.4035579 0.00508934 C138.19497787 0.02295816 153.98628019 0.01985338 169.77769804 0.0014143 C188.15490067 -0.02003434 206.53203352 -0.02839584 224.90924692 -0.01613665 C226.87214167 -0.01486257 228.83503643 -0.01360508 230.79793119 -0.01236439 C232.24627107 -0.01143873 232.24627107 -0.01143873 233.72387034 -0.01049438 C240.49932722 -0.00705344 247.27473952 -0.01284261 254.0501895 -0.0222826 C262.31715708 -0.03354846 270.58397291 -0.03036672 278.8509233 -0.00915962 C283.0617364 0.00128945 287.27229731 0.00557877 291.48310804 -0.00775623 C323.90212955 -0.10175735 349.12359498 4.24026877 373.51695585 27.52289867 C374.41994413 28.31373852 374.41994413 28.31373852 375.3411746 29.12055492 C383.88934821 36.91154765 390.01461726 47.50799328 394.45445585 58.08539867 C394.72451445 58.72010082 394.99457304 59.35480297 395.27281523 60.00873852 C399.80323171 71.4924841 400.96049139 83.21335074 400.90463591 95.45534801 C400.90881986 96.9072489 400.91430314 98.35914652 400.92095572 99.8110382 C400.93529013 103.76000741 400.93120364 107.70876579 400.92378891 111.65774596 C400.91902946 115.9325947 400.9315915 120.20739963 400.94180632 124.482234 C400.9589459 132.84141132 400.95984437 141.20051331 400.95459341 149.55970363 C400.95054123 156.35890735 400.95200769 163.15808893 400.95734167 169.9572916 C400.95809009 170.92741361 400.95883852 171.89753562 400.95960962 172.89705526 C400.9611412 174.86828036 400.96267955 176.83950545 400.96422458 178.81073054 C400.97793226 197.2699426 400.97252426 215.7291122 400.96103937 234.18832328 C400.95111008 251.04715839 400.9640455 267.9058837 400.98797356 284.76470188 C401.01240168 302.1075389 401.02196324 319.45032487 401.01532084 336.79317874 C401.0118367 346.51696382 401.01400726 356.24066452 401.03157187 365.96443653 C401.0463404 374.24244869 401.04686884 382.52031705 401.02950095 390.79832653 C401.02102648 395.01519979 401.01875356 399.23181666 401.03415251 403.44867611 C401.14402133 435.88694272 396.81466194 461.11374239 373.51695585 485.52289867 C372.72611601 486.42588696 372.72611601 486.42588696 371.9192996 487.34711742 C364.12830687 495.89529103 353.53186125 502.02056008 342.95445585 506.46039867 C342.3197537 506.73045727 341.68505156 507.00051586 341.03111601 507.27875805 C329.54737043 511.80917453 317.82650378 512.96643421 305.58450651 512.91057873 C304.13260562 512.91476268 302.68070801 512.92024596 301.22881633 512.92689854 C297.27984712 512.94123295 293.33108873 512.93714646 289.38210857 512.92973173 C285.10725983 512.92497228 280.8324549 512.93753432 276.55762053 512.94774914 C268.19844321 512.96488872 259.83934122 512.96578719 251.4801509 512.96053623 C244.68094718 512.95648405 237.8817656 512.95795051 231.08256292 512.96328449 C229.62737991 512.96440713 229.62737991 512.96440713 228.14279926 512.96555244 C226.17157417 512.96708402 224.20034907 512.96862237 222.22912399 512.97016741 C203.76991193 512.98387508 185.31074232 512.97846708 166.85153124 512.96698219 C149.99269613 512.9570529 133.13397082 512.96998833 116.27515265 512.99391638 C98.93231562 513.0183445 81.58952966 513.02790606 64.24667579 513.02126366 C54.5228907 513.01777952 44.79919 513.01995008 35.075418 513.03751469 C26.79740583 513.05228322 18.51953748 513.05281167 10.241528 513.03544378 C6.02465474 513.02696931 1.80803787 513.02469638 -2.40882158 513.04009533 C-34.8470882 513.14996415 -60.07388786 508.82060476 -84.48304415 485.52289867 C-85.08503633 484.99567211 -85.68702852 484.46844555 -86.3072629 483.92524242 C-94.85543651 476.1342497 -100.98070556 465.53780407 -105.42054415 454.96039867 C-105.69060274 454.32569653 -105.96066133 453.69099438 -106.23890352 453.03705883 C-107.08684906 450.8876779 -107.80248896 448.73122624 -108.48304415 446.52289867 C-108.75970919 445.628531 -109.03637423 444.73416332 -109.32142305 443.8126936 C-112.25402842 432.54664488 -112.00643856 421.0930203 -111.98402071 409.52460766 C-111.98303764 405.93665957 -112.02500042 402.35077949 -112.06898165 398.76313305 C-112.07418192 396.47342393 -112.07687695 394.18370745 -112.07679415 391.89399242 C-112.09318941 390.82628109 -112.10958467 389.75856976 -112.12647676 388.65850353 C-112.05753421 381.28288111 -112.05753421 381.28288111 -109.07703829 377.34003735 C-106.435834 375.48982714 -105.54085346 374.88922002 -102.42054415 375.39789867 C-101.76956758 375.47782055 -101.11859102 375.55774242 -100.4478879 375.64008617 C-97.34316686 377.0350503 -96.28005232 378.61224193 -94.48304415 381.52289867 C-93.90226629 384.97130784 -93.94953176 388.38036495 -93.9791379 391.87055492 C-93.96971666 392.87823421 -93.96029543 393.88591351 -93.9505887 394.92412853 C-93.9219521 398.14475825 -93.91885777 401.36465209 -93.92054415 404.58539867 C-94.24240777 422.82034722 -94.24240777 422.82034722 -90.48304415 440.52289867 C-89.95323946 442.26700024 -89.95323946 442.26700024 -89.41273165 444.04633617 C-81.95674834 464.20510586 -68.45312184 478.37531451 -49.41273165 488.08930492 C-37.30799025 493.49608941 -24.9978724 494.9722441 -11.85862398 494.9038496 C-10.44028335 494.90731583 -9.02194543 494.9120868 -7.60361302 494.91803133 C-3.74759642 494.93043842 0.10819455 494.92441855 3.96421146 494.91507268 C8.13875451 494.90823997 12.31326076 494.9187841 16.48779631 494.92701244 C24.6487833 494.94030653 32.80968722 494.93749161 40.97067739 494.92877452 C47.60592627 494.92198222 54.24115197 494.92108792 60.87640333 494.92434597 C62.29628439 494.92503552 62.29628439 494.92503552 63.74484991 494.925739 C65.66817067 494.92669823 67.59149142 494.92767087 69.51481216 494.92865677 C87.52130459 494.93719775 105.5277511 494.92739636 123.534236 494.91125567 C138.96795205 494.89784932 154.4016004 494.90018571 169.83531523 494.91401196 C187.78321314 494.93008312 205.73107088 494.93637847 223.67897499 494.92717516 C225.59436329 494.92621957 227.50975159 494.92527646 229.4251399 494.92434597 C230.36741135 494.92388314 231.3096828 494.92342032 232.28050793 494.92294347 C238.90498424 494.92035851 245.52943496 494.92471379 252.1539073 494.93178463 C260.23075815 494.94021672 268.30752158 494.93788344 276.38436247 494.9219424 C280.50133702 494.91408332 284.61816605 494.9109276 288.73513937 494.92088985 C292.51017287 494.92988626 296.28492714 494.92482339 300.05993561 494.9089572 C302.0585812 494.90406482 304.05724645 494.91376131 306.05587113 494.92412889 C326.89605774 494.78939396 346.31615299 486.55743012 361.39195585 472.27289867 C375.7431918 457.09978578 382.84004822 437.82026326 382.79542875 417.12673473 C382.80121443 416.14371883 382.8070001 415.16070293 382.8129611 414.14789867 C382.82985605 410.87678735 382.83281769 407.60581761 382.83580351 404.33466625 C382.8452223 401.94038174 382.85550258 399.54610049 382.86657095 397.15182304 C382.8937515 390.76076877 382.90919655 384.3697374 382.922153 377.97864056 C382.93612141 371.97362785 382.9607505 365.96867695 382.98448515 359.96369457 C383.04764708 342.42096445 383.093768 324.87817632 383.14195585 307.33539867 C383.26570585 268.12727367 383.38945585 228.91914867 383.51695585 188.52289867 C225.77695585 188.52289867 68.03695585 188.52289867 -94.48304415 188.52289867 C-94.48304415 242.64289867 -94.48304415 296.76289867 -94.48304415 352.52289867 C-97.48304415 357.52289867 -97.48304415 357.52289867 -99.35023165 358.55414867 C-103.04579031 359.41692502 -104.82668975 359.80219842 -108.42054415 358.27289867 C-110.48304415 356.52289867 -110.48304415 356.52289867 -111.48304415 354.52289867 C-111.57969885 353.03277003 -111.61401755 351.53838627 -111.61726522 350.04512978 C-111.62172307 349.09718117 -111.62618091 348.14923257 -111.63077384 347.17255825 C-111.63058948 346.12386013 -111.63040512 345.07516202 -111.63021517 343.99468517 C-111.63389186 342.8860776 -111.63756854 341.77747002 -111.64135665 340.63526827 C-111.65243049 336.89460077 -111.6562437 333.15396101 -111.6600461 329.41327953 C-111.66630832 326.74109257 -111.672942 324.06890861 -111.67995882 321.39672375 C-111.69974284 313.35439383 -111.70979621 305.31206263 -111.71868661 297.26971444 C-111.72307018 293.47888519 -111.72843717 289.68805734 -111.73367548 285.89722919 C-111.75069691 273.28613958 -111.76518637 260.67505084 -111.77242422 248.06395149 C-111.77433404 244.78944364 -111.77625437 241.5149358 -111.77821016 238.24042797 C-111.77893577 237.01967072 -111.77893577 237.01967072 -111.77967604 235.77425171 C-111.78795849 222.61997183 -111.81326098 209.46578342 -111.84579084 196.3115434 C-111.87894723 182.79305783 -111.89688109 169.27461855 -111.90006846 155.75609213 C-111.90222667 148.17162449 -111.91087262 140.58728984 -111.93652964 133.00286198 C-111.95835494 126.53615475 -111.96622985 120.06961278 -111.95656285 113.6028729 C-111.95205073 110.30954779 -111.95595203 107.0166301 -111.9733243 103.72333813 C-112.12376165 73.49498078 -105.89644267 49.95785382 -84.48304415 27.52289867 C-83.95581758 26.92090649 -83.42859102 26.3189143 -82.8853879 25.69867992 C-61.12984784 1.82879071 -30.02765399 -0.09509302 0 0 Z " fill="#262626" transform="translate(111.48304414749146,-0.5228986740112305)"/>
<path d="M0 0 C15.9489444 12.70621297 26.76606962 27.34598202 35.07421875 45.8125 C35.48414063 46.69808594 35.8940625 47.58367187 36.31640625 48.49609375 C47.17491532 74.80062153 45.31678077 105.006673 34.765625 130.9296875 C29.98104186 142.14734732 24.2213629 151.66974959 16.07421875 160.8125 C15.37683594 161.65296875 14.67945313 162.4934375 13.9609375 163.359375 C-3.05014932 183.38705309 -28.94735238 196.07588068 -54.92578125 198.8125 C-68.9984513 199.71697768 -83.31918234 199.87141764 -96.92578125 195.8125 C-97.58658691 195.61914062 -98.24739258 195.42578125 -98.92822266 195.2265625 C-114.86881303 190.44770404 -128.44686109 182.83417784 -140.92578125 171.8125 C-141.94671875 171.00619141 -141.94671875 171.00619141 -142.98828125 170.18359375 C-162.57829981 154.42468769 -172.67418888 129.67358125 -177.92578125 105.8125 C-178.19165039 104.61560547 -178.19165039 104.61560547 -178.46289062 103.39453125 C-183.19430416 77.00242705 -175.15120256 47.43399434 -160.09765625 25.609375 C-143.29835427 2.18084984 -119.54098558 -15.27864612 -90.92578125 -21.1875 C-58.15224319 -26.42404327 -26.63748789 -19.91587879 0 0 Z " fill="#FEFEFE" transform="translate(323.92578125,253.1875)"/>
<path d="M0 0 C34.13963652 -1.27149484 66.75515407 10.43304091 92.16015625 33.390625 C115.1617884 54.79143798 132.61391636 85.27325804 134.26171875 117.26318359 C134.71342031 130.80858407 134.8082814 143.96324339 131.09765625 157.078125 C130.76385706 158.41231934 130.43191413 159.7469791 130.1015625 161.08203125 C121.61993707 193.84245191 100.12453577 221.86692663 71.09765625 239.078125 C51.00281652 250.55087069 30.57743781 256.2881149 7.41015625 256.390625 C6.19875977 256.39626465 4.98736328 256.4019043 3.73925781 256.40771484 C-4.30492025 256.34317765 -11.99601921 255.54664423 -19.90234375 254.078125 C-20.63718994 253.942854 -21.37203613 253.80758301 -22.12915039 253.66821289 C-53.46262068 247.44798033 -82.08947188 227.25067391 -100.02734375 201.015625 C-118.87225672 172.38163024 -127.00548971 137.4767316 -120.33984375 103.578125 C-112.69816944 68.99353238 -92.59286663 39.36066108 -62.90234375 20.078125 C-61.96261719 19.45421875 -61.02289063 18.8303125 -60.0546875 18.1875 C-42.10009634 6.97535024 -21.07097971 0.86533798 0 0 Z M-68.90234375 46.078125 C-69.79179687 46.85542969 -70.68125 47.63273437 -71.59765625 48.43359375 C-92.4656196 67.96051243 -103.93325389 96.08702751 -105.15625 124.27734375 C-105.97188638 152.47010043 -96.6548123 178.15216299 -78.90234375 200.078125 C-78.23847656 200.91988281 -77.57460937 201.76164063 -76.890625 202.62890625 C-63.11388815 219.08226626 -43.23314469 230.06231565 -22.90234375 236.078125 C-21.75894531 236.41972656 -20.61554688 236.76132812 -19.4375 237.11328125 C8.33270161 243.95244889 38.76209713 238.62870265 63.09765625 224.078125 C68.33991356 220.68531002 73.31173186 217.08655265 78.09765625 213.078125 C78.87367188 212.459375 79.6496875 211.840625 80.44921875 211.203125 C98.57183327 196.01464807 109.09858525 174.52433171 115.09765625 152.078125 C115.36449219 151.13066406 115.63132812 150.18320312 115.90625 149.20703125 C121.93186621 123.23454759 115.01717463 92.89613998 101.29296875 70.45703125 C88.43125464 50.26658883 71.39750921 36.49784829 50.09765625 26.078125 C49.28425781 25.66820312 48.47085938 25.25828125 47.6328125 24.8359375 C34.11823329 18.70806151 19.14872573 17.7210294 4.53515625 17.703125 C3.27541992 17.70151367 2.01568359 17.69990234 0.71777344 17.69824219 C-25.53119936 18.01114385 -49.39320988 28.80826712 -68.90234375 46.078125 Z " fill="#272728" transform="translate(249.90234375,212.921875)"/>
<path d="M0 0 C3.45344279 2.03240132 6.78526334 4.22828935 10.1171875 6.453125 C11.05499054 7.07217712 11.99279358 7.69122925 12.95901489 8.32904053 C14.93262074 9.63367091 16.90409745 10.94152737 18.87353516 12.25244141 C21.85500015 14.23668954 24.84285631 16.21098431 27.83203125 18.18359375 C60.51104469 39.79528322 60.51104469 39.79528322 63 50 C64.04161677 58.13763099 61.79717738 65.13641165 57.01611328 71.74023438 C53.46230719 75.93021884 48.962049 78.66057701 44.37890625 81.61328125 C43.44255844 82.22713181 42.50621063 82.84098236 41.54148865 83.47343445 C38.55423048 85.42874396 35.55856452 87.37071808 32.5625 89.3125 C30.58342234 90.60525978 28.60490117 91.89887192 26.62695312 93.19335938 C21.92807661 96.26556778 17.21864499 99.32111199 12.50567627 102.37164307 C10.22309113 103.85502038 7.94935669 105.35072809 5.67919922 106.85302734 C5.04134995 107.27198776 4.40350067 107.69094818 3.74632263 108.12260437 C2.11343985 109.19534672 0.48414826 110.27355024 -1.14477539 111.35229492 C-7.58592435 115.06938037 -13.69505709 115.84048349 -21 115 C-28.8666083 112.54168491 -33.87556111 106.9688795 -38 100 C-39.86260618 95.39035465 -40.29695164 91.21802994 -40.29052734 86.30151367 C-40.29724457 85.55431564 -40.30396179 84.80711761 -40.31088257 84.03727722 C-40.32979331 81.58077236 -40.33378332 79.12454176 -40.3359375 76.66796875 C-40.34237058 74.94932445 -40.34909932 73.23068123 -40.35610962 71.51203918 C-40.36806532 67.91351789 -40.37179224 64.31509248 -40.37060547 60.71655273 C-40.37040246 56.12348654 -40.39769377 51.53104031 -40.43214989 46.93812084 C-40.4544758 43.38887249 -40.45844126 39.83977195 -40.45738602 36.29046059 C-40.45973383 34.59810565 -40.46851079 32.90574614 -40.48405075 31.21346092 C-40.58011475 19.67112143 -39.92540625 10.31014191 -31.67578125 1.5078125 C-22.23035302 -6.99087118 -10.60547763 -5.36869287 0 0 Z " fill="#292828" transform="translate(253,286)"/>
<path d="M0 0 C-0.74894531 0.86117432 -1.49789062 1.72234863 -2.26953125 2.60961914 C-4.84119005 5.60220281 -7.34097869 8.6468689 -9.8232708 11.7138567 C-17.26312513 20.88006452 -25.00532155 29.75132747 -33 38.4375 C-33.66812965 39.16416115 -34.33625931 39.8908223 -35.02463531 40.63950348 C-51.06648717 57.91699435 -65.71411552 71.82938224 -90.12561798 73.23019981 C-106.11287941 73.82229599 -122.30452955 71.92297643 -138 69 C-136.87658203 67.70823853 -136.87658203 67.70823853 -135.73046875 66.39038086 C-133.15880995 63.39779719 -130.65902131 60.3531311 -128.1767292 57.2861433 C-120.73687487 48.11993548 -112.99467845 39.24867253 -105 30.5625 C-104.33187035 29.83583885 -103.66374069 29.1091777 -102.97536469 28.36049652 C-72.06222424 -4.9337582 -43.32040038 -8.06758291 0 0 Z " fill="#2D434B" transform="translate(355,102)"/>
<path d="M0 0 C-0.74894531 0.86117432 -1.49789062 1.72234863 -2.26953125 2.60961914 C-4.84119005 5.60220281 -7.34097869 8.6468689 -9.8232708 11.7138567 C-17.26312513 20.88006452 -25.00532155 29.75132747 -33 38.4375 C-33.66812965 39.16416115 -34.33625931 39.8908223 -35.02463531 40.63950348 C-51.06648717 57.91699435 -65.71411552 71.82938224 -90.12561798 73.23019981 C-106.11287941 73.82229599 -122.30452955 71.92297643 -138 69 C-136.87658203 67.70823853 -136.87658203 67.70823853 -135.73046875 66.39038086 C-133.15880995 63.39779719 -130.65902131 60.3531311 -128.1767292 57.2861433 C-120.73687487 48.11993548 -112.99467845 39.24867253 -105 30.5625 C-104.33187035 29.83583885 -103.66374069 29.1091777 -102.97536469 28.36049652 C-72.06222424 -4.9337582 -43.32040038 -8.06758291 0 0 Z " fill="#C4DCEB" transform="translate(261,102)"/>
<path d="M0 0 C-1.69550853 3.97266795 -4.3552776 7.12289906 -7.08300781 10.42089844 C-7.60624351 11.05528052 -8.1294792 11.68966261 -8.66857052 12.34326839 C-15.62011379 20.69662721 -22.86109362 28.78250332 -30.25 36.75 C-30.95932049 37.51646221 -31.66864098 38.28292442 -32.39945602 39.07261276 C-49.76938829 57.67859209 -65.36389022 72.52959603 -91.77944946 73.53982544 C-96.55811103 73.6136713 -101.29675541 73.40057129 -106.0625 73.0625 C-106.84403946 73.0071257 -107.62557892 72.9517514 -108.43080139 72.8946991 C-118.05834975 72.15845318 -127.52421919 70.86689066 -137 69 C-136.62810327 68.56993621 -136.25620653 68.13987242 -135.8730402 67.69677639 C-132.89180167 64.23603864 -129.95952225 60.74476098 -127.08582497 57.19439888 C-119.66722383 48.05055663 -111.91643924 39.2204979 -103.9375 30.5625 C-103.26851433 29.83583885 -102.59952866 29.1091777 -101.91027069 28.36049652 C-71.23470118 -4.64079734 -43.02148856 -8.15002799 0 0 Z " fill="#C4DCEB" transform="translate(448,102)"/>
<path d="M0 0 C0.78153946 0.0553743 1.56307892 0.1107486 2.36830139 0.1678009 C11.99584975 0.90404682 21.46171919 2.19560934 30.9375 4.0625 C30.56560327 4.49256379 30.19370653 4.92262758 29.8105402 5.36572361 C26.82930167 8.82646136 23.89702225 12.31773902 21.02332497 15.86810112 C13.60472383 25.01194337 5.85393924 33.8420021 -2.125 42.5 C-2.79398567 43.22666115 -3.46297134 43.9533223 -4.15222931 44.70200348 C-20.92175574 62.7429422 -35.83947233 76.42550563 -61.33015442 77.38273621 C-76.30183733 77.61560513 -91.37325061 75.84524411 -106.0625 73.0625 C-104.36699147 69.08983205 -101.7072224 65.93960094 -98.97949219 62.64160156 C-98.19463865 61.69002843 -98.19463865 61.69002843 -97.39392948 60.71923161 C-90.44238621 52.36587279 -83.20140638 44.27999668 -75.8125 36.3125 C-75.10317951 35.54603779 -74.39385902 34.77957558 -73.66304398 33.98988724 C-51.44257809 10.18820957 -33.22368097 -2.35681383 0 0 Z " fill="#2D434B" transform="translate(136.0625,97.9375)"/>
<path d="M0 0 C10.21734704 -2.08758516 20.41666378 -3.42368626 30.8125 -4.1875 C31.58655434 -4.24470592 32.36060867 -4.30191185 33.1581192 -4.36085129 C53.31510536 -5.6716723 69.06131508 -2.67375273 84.76451111 10.56666565 C92.91090949 17.76493352 100.49096059 25.46611779 107.875 33.4375 C108.61625248 34.23663944 109.35750496 35.03577888 110.12121964 35.85913467 C137 64.99541185 137 64.99541185 137 68 C126.78265296 70.08758516 116.58333622 71.42368626 106.1875 72.1875 C105.41344566 72.24470592 104.63939133 72.30191185 103.8418808 72.36085129 C83.68489464 73.6716723 67.93868492 70.67375273 52.23548889 57.43333435 C44.08909051 50.23506648 36.50903941 42.53388221 29.125 34.5625 C28.38374752 33.76336056 27.64249504 32.96422112 26.87878036 32.14086533 C0 3.00458815 0 3.00458815 0 0 Z " fill="#DCEFFD" transform="translate(311,17)"/>
<path d="M0 0 C10.21734704 -2.08758516 20.41666378 -3.42368626 30.8125 -4.1875 C31.58655434 -4.24470592 32.36060867 -4.30191185 33.1581192 -4.36085129 C53.31510536 -5.6716723 69.06131508 -2.67375273 84.76451111 10.56666565 C92.91090949 17.76493352 100.49096059 25.46611779 107.875 33.4375 C108.61625248 34.23663944 109.35750496 35.03577888 110.12121964 35.85913467 C137 64.99541185 137 64.99541185 137 68 C126.78265296 70.08758516 116.58333622 71.42368626 106.1875 72.1875 C105.41344566 72.24470592 104.63939133 72.30191185 103.8418808 72.36085129 C83.68489464 73.6716723 67.93868492 70.67375273 52.23548889 57.43333435 C44.08909051 50.23506648 36.50903941 42.53388221 29.125 34.5625 C28.38374752 33.76336056 27.64249504 32.96422112 26.87878036 32.14086533 C0 3.00458815 0 3.00458815 0 0 Z " fill="#DCEFFD" transform="translate(123,17)"/>
<path d="M0 0 C10.21734704 -2.08758516 20.41666378 -3.42368626 30.8125 -4.1875 C31.58655434 -4.24470592 32.36060867 -4.30191185 33.1581192 -4.36085129 C53.31510536 -5.6716723 69.06131508 -2.67375273 84.76451111 10.56666565 C92.91090949 17.76493352 100.49096059 25.46611779 107.875 33.4375 C108.61625248 34.23663944 109.35750496 35.03577888 110.12121964 35.85913467 C137 64.99541185 137 64.99541185 137 68 C126.78265296 70.08758516 116.58333622 71.42368626 106.1875 72.1875 C105.41344566 72.24470592 104.63939133 72.30191185 103.8418808 72.36085129 C83.68489464 73.6716723 67.93868492 70.67375273 52.23548889 57.43333435 C44.08909051 50.23506648 36.50903941 42.53388221 29.125 34.5625 C28.38374752 33.76336056 27.64249504 32.96422112 26.87878036 32.14086533 C0 3.00458815 0 3.00458815 0 0 Z " fill="#3C5662" transform="translate(217,17)"/>
<path d="M0 0 C5.96915294 -0.67559118 9.98737947 -0.47075195 14.77542114 3.18415833 C19.10527938 6.92779646 23.02649303 11.06577634 26.96884155 15.20835876 C28.44797306 16.71109402 29.93017375 18.21081389 31.4152832 19.7076416 C35.29735748 23.63727504 39.13513398 27.60753675 42.96536255 31.58763123 C46.88720242 35.646179 50.85232397 39.66197647 54.81259155 43.68296814 C60.56891844 49.54234412 66.31230143 55.41383396 72.0171814 61.323349 C72.62168625 61.9462532 73.2261911 62.56915741 73.84901428 63.2109375 C77.94540405 67.47017488 77.94540405 67.47017488 77.94540405 68.58726501 C67.51477587 70.12444104 57.09574435 71.13639807 46.57040405 71.71226501 C45.79367466 71.75506592 45.01694527 71.79786682 44.21667862 71.84196472 C24.33321971 72.80915782 8.49695741 71.07341248 -6.7694397 57.45445251 C-11.56313689 53.06930456 -16.0211973 48.41314287 -20.36709595 43.58726501 C-20.90592155 42.98937416 -21.44474716 42.39148331 -21.99990082 41.77547455 C-28.68413586 34.30087165 -35.00993868 26.58925886 -41.05459595 18.58726501 C-39.20096188 14.35164776 -36.57177269 12.74664739 -32.61709595 10.58726501 C-31.98891968 10.23841248 -31.36074341 9.88955994 -30.71353149 9.53013611 C-20.70449291 4.09836304 -11.03388749 2.1213333 0 0 Z " fill="#3C5662" transform="translate(88.05459594726563,16.412734985351563)"/>
<path d="M0 0 C0 22.77 0 45.54 0 69 C-29.7 69 -59.4 69 -90 69 C-86.06340327 64.40730381 -82.12305422 59.90564194 -77.9765625 55.51391602 C-77.40630341 54.90817245 -76.83604431 54.30242889 -76.24850464 53.67832947 C-71.01123547 48.13140736 -65.71403354 42.64283745 -60.39569092 37.17369175 C-56.83831781 33.5128327 -53.3048887 29.83414906 -49.81933594 26.10473633 C-46.42497939 22.47430176 -42.97777211 18.90238247 -39.48895264 15.36271477 C-38.18094727 14.01699015 -36.89205975 12.65236823 -35.62481689 11.26819038 C-35.01982361 10.60988668 -34.41483032 9.95158298 -33.79150391 9.27333069 C-33.27182037 8.69569001 -32.75213684 8.11804934 -32.21670532 7.5229044 C-20.44694607 -3.24685781 -18.89642924 0 0 0 Z " fill="#2D434B" transform="translate(495,102)"/>
<path d="M0 0 C4.0907675 0.75590269 7.05907419 2.60159036 10.45703125 4.87792969 C11.14925781 5.32642273 11.84148437 5.77491577 12.5546875 6.23699951 C14.76050551 7.6714879 16.95280241 9.12515168 19.14453125 10.58105469 C20.56459401 11.51217174 21.98516158 12.44251939 23.40625 13.37207031 C26.95279915 15.69934004 30.48497012 18.04739638 34.01123047 20.40527344 C36.16924139 21.84756959 38.33056164 23.28480853 40.4921875 24.72167969 C59.76884572 37.56133683 59.76884572 37.56133683 61.45703125 42.14355469 C61.04563058 46.668962 59.48159176 47.59694972 56.14453125 50.58105469 C54.35373267 51.90717864 52.52418058 53.1821813 50.6640625 54.40917969 C49.59438232 55.11896973 48.52470215 55.82875977 47.42260742 56.56005859 C46.26770508 57.31749922 45.11250592 58.07448743 43.95703125 58.83105469 C42.76192761 59.61770051 41.56702506 60.40465192 40.37231445 61.19189453 C38.51806608 62.41311932 36.66326136 63.63345128 34.80662537 64.8510437 C31.05361038 67.3139797 27.31984634 69.80286832 23.60218811 72.31884766 C21.24842597 73.91013689 18.88743857 75.49048633 16.52523804 77.06921387 C14.860261 78.18710087 13.20408437 79.31805944 11.5480957 80.44921875 C10.53191162 81.12436523 9.51572754 81.79951172 8.46875 82.49511719 C7.58276123 83.09275879 6.69677246 83.69040039 5.78393555 84.30615234 C2.50911154 85.88797927 0.7330171 86.26493982 -2.85546875 85.58105469 C-6.19620921 82.33183081 -7.65223591 80.70048619 -8.49038696 76.08384705 C-8.49436493 74.79764969 -8.4983429 73.51145233 -8.50244141 72.1862793 C-8.511203 71.47167038 -8.5199646 70.75706146 -8.5289917 70.02079773 C-8.55087945 67.67436812 -8.53647484 65.32984491 -8.51953125 62.98339844 C-8.52290213 61.34485006 -8.52775701 59.70630413 -8.5340271 58.06776428 C-8.54138362 54.64055478 -8.5307317 51.21399857 -8.50732422 47.78686523 C-8.47881367 43.39939705 -8.49526119 39.01345665 -8.52518654 34.62604427 C-8.54327384 31.24500562 -8.53749551 27.86432794 -8.52454758 24.48327827 C-8.52121865 22.86578756 -8.52528263 21.24826378 -8.53694534 19.63081169 C-8.54968144 17.36847254 -8.53024518 15.108592 -8.50244141 12.84643555 C-8.49846344 11.56103378 -8.49448547 10.27563202 -8.49038696 8.95127869 C-7.55081669 3.96392408 -5.03538372 1.02464204 0 0 Z " fill="#E23D52" transform="translate(237.85546875,298.4189453125)"/>
<path d="M0 0 C25.63519431 -0.46832143 47.47943747 3.30053853 66.83886719 21.25146484 C78.05329741 32.191416 86.97574609 47.25915991 89 63 C89.01037678 64.66663436 89.01148925 66.33337293 89 68 C70.00427891 70.51444991 70.00427891 70.51444991 62.43267822 65.40603638 C57.9615465 61.78309576 54.09069976 57.59983314 50.1953125 53.37890625 C48.72942405 51.87442909 47.25860884 50.37473826 45.78317261 48.87962341 C41.94777642 44.96659556 38.18348415 40.99175997 34.4307251 36.99963379 C30.57716852 32.92645397 26.65626461 28.91919297 22.7421875 24.90429688 C17.06078829 19.05665278 11.40339331 13.18762537 5.80126953 7.26391602 C5.20933304 6.64101181 4.61739655 6.0181076 4.00752258 5.37632751 C0 1.11892987 0 1.11892987 0 0 Z " fill="#3C5662" transform="translate(405,17)"/>
<path d="M0 0 C18.48 0 36.96 0 56 0 C52.32025542 4.29303534 48.801806 8.32389518 44.83666992 12.29272461 C44.3594751 12.77167175 43.88228027 13.2506189 43.390625 13.74407959 C41.83971565 15.29932977 40.28525035 16.85096543 38.73046875 18.40234375 C37.64270175 19.49078536 36.55508315 20.57937529 35.46760559 21.66810608 C33.20243515 23.93474235 30.93548679 26.19958084 28.66723633 28.46313477 C25.75391151 31.37072187 22.84515429 34.28283087 19.93767834 37.19626522 C17.69966038 39.43788416 15.45928188 41.67713156 13.21816444 43.91565132 C12.14367502 44.9894723 11.0699317 46.06404036 9.99693871 47.13935661 C8.50580975 48.63300887 7.01154177 50.12344596 5.51635742 51.61303711 C4.66619553 52.46240341 3.81603363 53.31176971 2.94010925 54.18687439 C1 56 1 56 0 56 C0 37.52 0 19.04 0 0 Z " fill="#C4DCEB" transform="translate(17,102)"/>
<path d="M0 0 C3.1300133 1.389292 5.25386617 3.00533553 7.66699219 5.42407227 C8.71762848 6.47009361 8.71762848 6.47009361 9.78948975 7.5372467 C10.90689545 8.66543068 10.90689545 8.66543068 12.046875 9.81640625 C13.20367767 10.97389626 13.20367767 10.97389626 14.3838501 12.1547699 C16.01006367 13.78400138 17.63384926 15.41565946 19.25537109 17.04956055 C21.74913373 19.56162737 24.25085368 22.06555244 26.75390625 24.56835938 C28.33120295 26.15056949 29.90804196 27.73323605 31.484375 29.31640625 C32.23740906 30.07055313 32.99044312 30.82470001 33.76629639 31.60169983 C34.45411194 32.29589523 35.14192749 32.99009064 35.85058594 33.70532227 C36.46029236 34.31884048 37.06999878 34.9323587 37.69818115 35.56446838 C39 37 39 37 39 38 C21.18 38 3.36 38 -15 38 C-15 24.52091899 -9.05907707 10.10435519 0 0 Z " fill="#DCEFFD" transform="translate(33,47)"/>
</svg>
