<?xml version="1.0" encoding="UTF-8"?>
<svg version="1.1" xmlns="http://www.w3.org/2000/svg" width="512" height="512">
<path d="M0 0 C3.70570954 3.03286447 7.06074824 6.35863838 10.42578125 9.76171875 C11.38527681 10.71783502 12.34551257 11.67320899 13.30644226 12.62788391 C15.30536475 14.61948739 17.29510006 16.61971369 19.27856445 18.62670898 C21.80098615 21.17761538 24.34520404 23.70540232 26.89680195 26.22708416 C28.88012489 28.19219849 30.85121323 30.16924207 32.81899071 32.14991188 C34.19978968 33.53559114 35.59052634 34.91134538 36.98152161 36.28678894 C42.96613577 42.38259836 47.89722237 48.56145691 49.62890625 57.1015625 C49.59603516 58.35066406 49.59603516 58.35066406 49.5625 59.625 C49.56378906 60.46289062 49.56507813 61.30078125 49.56640625 62.1640625 C47.67150218 71.65165118 40.97247497 77.63381027 34.390625 84.17578125 C33.33882542 85.23282538 32.28754448 86.29038582 31.23675537 87.34843445 C29.04105144 89.5545006 26.83809813 91.75299323 24.62988281 93.9465332 C21.81257295 96.74663952 19.01615215 99.56661348 16.22507095 102.39283466 C14.06166227 104.57828589 11.88659018 106.75183171 9.70800018 108.92214012 C8.67245281 109.95687216 7.64069513 110.99541241 6.6129837 112.03792763 C0.44677269 118.27929574 -4.53105518 122.95596144 -13.46875 124.3984375 C-19.78259062 124.32558549 -25.21478121 123.58235837 -29.984375 119.16015625 C-35.94942117 112.54191287 -37.45506978 108.23170053 -37.32421875 99.2734375 C-36.71889941 93.16190005 -34.29623399 89.21758608 -30 85 C-70.43032477 88.57215721 -104.81135827 113.01283248 -131.45727539 142.04785156 C-138.72331073 149.94206565 -146.36969512 157.46016754 -154 165 C-152.44234073 168.75310882 -150.1220056 171.09417913 -147.23828125 173.921875 C-146.76939987 174.38555481 -146.30051849 174.84923462 -145.81742859 175.32696533 C-144.32048402 176.80617025 -142.81704251 178.27852701 -141.3125 179.75 C-134.96864648 185.97470553 -128.77316342 192.23518267 -123 199 C-99.69647638 224.49481337 -66.77530286 241.03747395 -33 247 C-32.01 247 -31.02 247 -30 247 C-30.78375 246.13375 -31.5675 245.2675 -32.375 244.375 C-36.42888793 239.44832033 -37.44476894 234.57322787 -37.234375 228.29296875 C-36.47321201 220.84625754 -33.35372446 216.39523094 -27.59765625 211.640625 C-22.11514401 208.17798569 -16.01594774 207.32066344 -9.6875 208.625 C-3.84778183 210.80252203 0.45112385 214.20369615 4.85620117 218.54980469 C6.22242867 219.89205109 6.22242867 219.89205109 7.61625671 221.26141357 C8.59230584 222.23108602 9.56786472 223.20125216 10.54296875 224.171875 C11.55846889 225.17839391 12.57403915 226.18484208 13.5896759 227.19122314 C15.71054631 229.29566511 17.82703859 231.40440652 19.94116211 233.515625 C22.63934243 236.20841689 25.35331782 238.88466617 28.07151318 241.5572319 C30.17249756 243.62835646 32.2620235 245.71076095 34.34862709 247.79636383 C35.34400314 248.78755814 36.34346467 249.7746685 37.34718895 250.75740814 C43.71512099 257.00265255 47.98491116 261.70827816 49.43359375 270.6875 C49.43488281 271.450625 49.43617188 272.21375 49.4375 273 C49.46650391 274.1446875 49.46650391 274.1446875 49.49609375 275.3125 C47.75438854 284.74787938 40.84237614 290.73161735 34.3203125 297.17578125 C33.26357377 298.23267523 32.2075039 299.29023835 31.15206909 300.34843445 C28.9476687 302.55421293 26.73651497 304.75291051 24.52001953 306.9465332 C21.68813305 309.74998463 18.87213979 312.56878796 16.06080818 315.39283466 C13.8856267 317.57498906 11.7031094 319.74968377 9.5182457 321.92214012 C8.47724896 322.95864174 7.43830645 323.99721099 6.40152359 325.03792763 C4.94955126 326.49282939 3.48817787 327.93759783 2.02392578 329.38012695 C1.19659943 330.20205032 0.36927307 331.02397369 -0.48312378 331.87080383 C-6.35497073 336.83819711 -11.33945914 337.55227648 -18.80859375 337.33984375 C-25.25473781 336.65341225 -29.21643403 334.30145465 -33.375 329.375 C-37.32366364 323.55989152 -38.64593157 317.31027338 -37.5 310.375 C-35.64466875 303.56810287 -30.88006042 298.8493011 -26 294 C-26.79768799 293.86537354 -27.59537598 293.73074707 -28.41723633 293.59204102 C-81.99887057 284.3636034 -122.52774214 262.42883531 -160.8125 224.3125 C-161.708479 223.42127441 -162.60445801 222.53004883 -163.52758789 221.61181641 C-168.03436412 217.09368809 -172.39300572 212.51464219 -176.55004883 207.67260742 C-178.26471129 205.69463932 -180.06781598 203.8315272 -181.9375 202 C-182.52402344 201.4225 -183.11054688 200.845 -183.71484375 200.25 C-184.13894531 199.8375 -184.56304687 199.425 -185 199 C-188.91209308 200.59415503 -191.37218086 203.13893332 -194.3125 206.125 C-195.21613281 207.03507813 -196.11976563 207.94515625 -197.05078125 208.8828125 C-199.17081834 211.08260132 -201.18386099 213.35185814 -203.17578125 215.66796875 C-216.21363642 230.66994525 -230.6592409 244.66675917 -247 256 C-247.61713867 256.44053711 -248.23427734 256.88107422 -248.87011719 257.33496094 C-281.75427632 280.79872435 -321.72999852 294.05778514 -362.13671875 294.203125 C-363.37492874 294.20882507 -364.61313873 294.21452515 -365.88887024 294.22039795 C-368.4933691 294.22980229 -371.09787961 294.23636365 -373.70239258 294.24023438 C-376.36483481 294.24675877 -379.02644946 294.25865394 -381.6887207 294.28125 C-385.54648627 294.31168039 -389.40384664 294.32227524 -393.26171875 294.328125 C-394.44932297 294.3404718 -395.63692719 294.3528186 -396.86051941 294.36553955 C-404.23914247 294.34562018 -408.82126207 293.64894827 -414.625 288.8125 C-419.70753758 282.79370549 -421.7201236 277.63385041 -421.37890625 269.67578125 C-420.40950791 262.83003009 -417.09849851 258.56209389 -411.87890625 254.2265625 C-406.45864984 250.68818306 -401.5021154 250.70615141 -395.22265625 250.69140625 C-393.24283635 250.666187 -391.26301871 250.64079011 -389.28320312 250.61523438 C-386.20158868 250.58688711 -383.12001531 250.56285753 -380.03833008 250.54370117 C-326.15992154 250.14434179 -281.8314255 232.26977134 -243.81640625 193.984375 C-241.69205358 191.77725534 -239.67979787 189.49190048 -237.6796875 187.171875 C-233.83714314 182.74467557 -229.73077587 178.61869894 -225.5625 174.5 C-224.83095703 173.77296875 -224.09941406 173.0459375 -223.34570312 172.296875 C-221.56610176 170.52890501 -219.78419082 168.76333622 -218 167 C-219.50841813 163.44519997 -221.57633661 161.20440378 -224.32421875 158.515625 C-225.18853516 157.66226563 -226.05285156 156.80890625 -226.94335938 155.9296875 C-227.84892578 155.04539063 -228.75449219 154.16109375 -229.6875 153.25 C-235.14987107 147.89489003 -240.52289933 142.55182144 -245.50415039 136.74267578 C-273.06338986 104.63595938 -314.70449809 86.23560589 -356.27970886 82.20701599 C-360.77151759 81.86518632 -365.25490485 81.84439267 -369.7578125 81.82421875 C-371.78516686 81.80104042 -373.81251067 81.77692393 -375.83984375 81.75195312 C-378.99079725 81.71678953 -382.141354 81.68743067 -385.29248047 81.67407227 C-388.36472473 81.65855106 -391.43586302 81.61835027 -394.5078125 81.57421875 C-395.44134552 81.57612717 -396.37487854 81.57803558 -397.33670044 81.58000183 C-404.32237925 81.45028239 -409.67598156 79.86840974 -415.0234375 75.25390625 C-415.46945312 74.69574219 -415.91546875 74.13757813 -416.375 73.5625 C-416.83648437 73.00691406 -417.29796875 72.45132813 -417.7734375 71.87890625 C-421.47546013 66.2079735 -421.84719256 60.59221707 -421 54 C-418.74272262 46.87546829 -415.43583309 42.69464492 -409 39 C-405.97642699 37.99214233 -403.89605974 37.85584464 -400.73193359 37.82299805 C-399.65164886 37.81016281 -398.57136414 37.79732758 -397.45834351 37.78410339 C-396.28357452 37.77671646 -395.10880554 37.76932953 -393.8984375 37.76171875 C-392.67460358 37.753647 -391.45076965 37.74557526 -390.18984985 37.73725891 C-387.58214741 37.72339948 -384.97442668 37.71268569 -382.36669922 37.70483398 C-379.74489894 37.6934488 -377.12311925 37.67321849 -374.50146484 37.64331055 C-326.79122953 37.09942237 -281.20662758 49.63295207 -243 79 C-242.10023438 79.68835938 -241.20046875 80.37671875 -240.2734375 81.0859375 C-230.65795949 88.61756578 -221.8409554 96.9899624 -213.23071289 105.63891602 C-211.80662508 107.06839717 -210.37721956 108.49240511 -208.94726562 109.91601562 C-204.27288611 114.59690995 -199.73366123 119.32681548 -195.42797852 124.34936523 C-193.72205467 126.3212837 -191.92479738 128.17570869 -190.0625 130 C-189.47597656 130.5775 -188.88945312 131.155 -188.28515625 131.75 C-187.86105469 132.1625 -187.43695313 132.575 -187 133 C-182.91792655 131.38275849 -180.19601937 128.45615199 -177.1875 125.375 C-176.69185547 124.87871094 -176.19621094 124.38242188 -175.68554688 123.87109375 C-172.93888447 121.09261672 -170.32067192 118.2396384 -167.7734375 115.27734375 C-163.21921655 110.02993943 -158.34522764 105.10233802 -153.4375 100.1875 C-152.95233917 99.70133209 -152.46717834 99.21516418 -151.96731567 98.71426392 C-144.41314272 91.17064994 -136.70647523 84.19727988 -128 78 C-126.95199219 77.23042969 -125.90398437 76.46085937 -124.82421875 75.66796875 C-95.31633861 54.51885319 -61.74714051 43.15066326 -26 38 C-26.54269531 37.443125 -27.08539063 36.88625 -27.64453125 36.3125 C-33.42176404 30.15011836 -36.90162162 25.15189196 -37.5 16.625 C-37.26582454 10.47257209 -34.56121056 4.93886896 -30.54296875 0.328125 C-21.18814476 -8.06406539 -9.80680363 -6.20083224 0 0 Z " fill="#000000" transform="translate(442,90)"/>
</svg>
