<?xml version="1.0" encoding="UTF-8"?>
<svg version="1.1" xmlns="http://www.w3.org/2000/svg" width="512" height="512">
<path d="M0 0 C0.74963362 -0.00350607 1.49926724 -0.00701215 2.27161703 -0.01062447 C4.79171772 -0.01995244 7.31158803 -0.01501157 9.83169842 -0.01015663 C11.65347583 -0.01389219 13.47525165 -0.01849333 15.29702491 -0.02388728 C20.30979719 -0.03614438 25.32250288 -0.03585362 30.33528674 -0.03349853 C35.73895751 -0.03309104 41.14260673 -0.04412293 46.54626751 -0.05361366 C57.13552764 -0.07023943 67.72476551 -0.07572392 78.3140376 -0.07683842 C86.91987983 -0.07778813 95.5257147 -0.08189459 104.1315546 -0.08823967 C128.52067984 -0.10585628 152.90978747 -0.11507787 177.29891912 -0.11357872 C178.61424236 -0.11349881 179.9295656 -0.1134189 181.28474712 -0.11333656 C183.26013573 -0.11321392 183.26013573 -0.11321392 185.27543118 -0.1130888 C206.62221219 -0.11227575 227.96891288 -0.13141709 249.31567506 -0.1596133 C271.22455744 -0.18832407 293.1334054 -0.20215459 315.04230708 -0.20042574 C327.34644084 -0.19976122 339.65050066 -0.20528067 351.9546175 -0.22678185 C362.43005525 -0.24496985 372.90538555 -0.24936054 383.38083223 -0.235763 C388.72661172 -0.22922138 394.0721849 -0.22915926 399.41794491 -0.2464695 C404.31142567 -0.26215238 409.20453571 -0.25938555 414.09800716 -0.24190123 C415.86851486 -0.23882078 417.6390499 -0.24250291 419.40952537 -0.25362138 C437.30214815 -0.35854618 437.30214815 -0.35854618 444.96516705 6.44086266 C445.91262798 7.55654625 445.91262798 7.55654625 446.87922955 8.69476891 C447.52633892 9.43597984 448.1734483 10.17719078 448.84016705 10.94086266 C451.78250556 15.03665312 452.75382752 18.60269247 452.76149845 23.61345959 C452.76794734 24.68091689 452.77439624 25.74837419 452.78104055 26.84817868 C452.77639474 28.59825578 452.77639474 28.59825578 452.77165508 30.38368797 C452.7761862 31.62779904 452.78071731 32.87191011 452.78538573 34.15372151 C452.79585942 37.60452892 452.79735499 41.05512798 452.79499698 44.5059365 C452.79458887 48.22861467 452.80562735 51.95126173 452.81511211 55.6739254 C452.83172455 62.96649198 452.83722177 70.25902623 452.83833687 77.55161015 C452.83928724 83.47963112 452.843397 89.40764143 452.84973812 95.33565903 C452.86735131 112.14354456 452.87657689 128.95140455 452.87507717 145.75929938 C452.87499726 146.66540422 452.87491735 147.57150907 452.87483501 148.50507164 C452.87475325 149.41228315 452.87467149 150.31949467 452.87458725 151.25419744 C452.87377436 165.9566335 452.89291256 180.6589671 452.92111175 195.36137352 C452.94983954 210.45854343 452.9636521 225.55566336 452.9619242 240.6528613 C452.96126025 249.12845097 452.96675449 257.60393324 452.9882803 266.07949829 C453.00649074 273.29591661 453.01084061 280.51217885 452.99726145 287.7286102 C452.990731 291.40965467 452.99061699 295.09039971 453.00796795 298.77141571 C453.02659594 302.76447009 453.01414628 306.75683108 452.99870586 310.74989891 C453.00899299 311.90992481 453.01928012 313.06995071 453.02987897 314.26512891 C452.97134032 321.10882023 452.01550419 325.37092811 448.50422955 331.25726891 C447.28452351 334.91638702 447.86480072 335.69608211 449.37922955 339.13226891 C451.77954693 344.62110655 452.62710761 349.31632526 452.65140057 355.30946922 C452.66213352 357.13251579 452.66213352 357.13251579 452.67308331 358.99239159 C452.67592315 360.33109067 452.67863493 361.66979003 452.6812315 363.00848961 C452.68750115 364.42480191 452.69414839 365.84111259 452.70114422 367.25742149 C452.72212332 371.8992862 452.73253926 376.541151 452.7425108 381.18305016 C452.74656033 382.78421292 452.75067731 384.38537551 452.75486088 385.98653793 C452.77389722 393.50862412 452.7881328 401.03070057 452.79647285 408.5528062 C452.8062467 417.22369886 452.8325765 425.89433635 452.87297374 434.56513911 C452.90316335 441.27613961 452.91794432 447.98706705 452.92125386 454.69813412 C452.92360062 458.7024868 452.93251247 462.70656636 452.95771503 466.71084595 C452.98105161 470.47925174 452.98520687 474.24720564 452.97495365 478.01566505 C452.97422493 480.04900301 452.99327545 482.0823183 453.01301861 484.11556053 C452.96490257 492.59584631 452.10148235 498.20311995 446.3206358 504.71820641 C445.2049522 505.66566734 445.2049522 505.66566734 444.06672955 506.63226891 C443.32551861 507.27937828 442.58430767 507.92648766 441.8206358 508.59320641 C437.63215439 511.60213234 434.00923967 512.50686076 428.88981915 512.53142357 C427.77134594 512.5413987 426.65287273 512.55137383 425.5005064 512.56165123 C423.67389477 512.56264824 423.67389477 512.56264824 421.81038189 512.56366539 C420.52034252 512.57198891 419.23030315 512.58031242 417.90117168 512.58888817 C414.36777526 512.61079694 410.83446537 512.6196278 407.3010087 512.62471461 C405.08925485 512.62836416 402.87752343 512.63460749 400.66577816 512.641716 C392.93727663 512.66620329 385.20884209 512.67925968 377.48030376 512.68280602 C370.2974009 512.68643505 363.11492696 512.71628646 355.93215501 512.7582106 C349.75017774 512.79301697 343.56834181 512.80835628 337.3862673 512.80905205 C333.7008945 512.80984172 330.01595834 512.81843494 326.33068752 512.84704971 C322.2116375 512.87831713 318.09359436 512.86912163 313.97444439 512.85663414 C312.16605083 512.87888557 312.16605083 512.87888557 310.32112408 512.90158653 C303.13377988 512.83978 298.08866972 511.67975728 291.77871418 508.17125607 C290.65284429 507.71883242 290.65284429 507.71883242 289.50422955 507.25726891 C285.94923542 508.68132507 285.94923542 508.68132507 283.50422955 511.25726891 C280.4337541 512.28076072 278.3268026 512.3903412 275.1101408 512.40443993 C273.99008144 512.41159523 272.87002209 512.41875053 271.71602154 512.42612267 C269.87155437 512.43015602 269.87155437 512.43015602 267.98982525 512.43427086 C266.69525906 512.44084206 265.40069286 512.44741325 264.06689739 512.45418358 C259.7712811 512.4752096 255.47566453 512.48558604 251.1800108 512.49555016 C249.69957937 512.49959855 248.21914813 512.5037155 246.73871708 512.50790024 C239.78152857 512.52695038 232.82435064 512.54118058 225.86714107 512.54951221 C217.84540462 512.55927799 209.8239446 512.58558079 201.80230552 512.6260131 C195.59664884 512.65621473 189.39107121 512.67098499 183.18534249 512.67429322 C179.48164614 512.67663953 175.77824515 512.68554444 172.07462788 512.71075439 C167.93811176 512.73845586 163.80220959 512.73419167 159.6656065 512.72723961 C158.44608288 512.74004967 157.22655926 512.75285973 155.97008038 512.76605797 C148.92415976 512.72291974 144.58081472 511.81595778 138.50422955 508.25726891 C135.29978389 508.25726891 134.37750189 508.75306292 131.64145184 510.22492027 C125.6081468 512.97691706 119.8466303 512.81866668 113.3086729 512.77484703 C111.36550938 512.78536095 111.36550938 512.78536095 109.38309002 512.79608727 C105.85411805 512.81420805 102.32561768 512.8073008 98.79663825 512.79457092 C95.09015282 512.78438656 91.38370559 512.7938514 87.67721844 512.80011559 C81.45598948 512.80737537 75.23495101 512.79784743 69.01375103 512.77875328 C61.83641685 512.756978 54.65953713 512.7640471 47.48221391 512.7860589 C41.30187672 512.8042493 35.12167581 512.80675382 28.94132048 512.79630423 C25.25788337 512.79009042 21.57465945 512.78917516 17.89123631 512.80245018 C13.78401713 512.81622104 9.67757362 512.79709995 5.57039165 512.77484703 C4.3602943 512.78294395 3.15019695 512.79104088 1.90342999 512.79938316 C-6.23976325 512.71777453 -11.70098872 511.62438476 -17.95670795 506.07367516 C-18.90416889 504.95799156 -18.90416889 504.95799156 -19.87077045 503.81976891 C-20.51787983 503.07855797 -21.1649892 502.33734703 -21.83170795 501.57367516 C-25.5083279 496.45575114 -25.79320681 491.74200859 -25.7862978 485.58319664 C-25.79301502 484.7208239 -25.79973225 483.85845116 -25.80665302 482.96994591 C-25.82561083 480.12685917 -25.82955554 477.28400861 -25.83170795 474.44086266 C-25.83813542 472.46218837 -25.84486374 470.48351504 -25.85188007 468.50484276 C-25.86384584 464.36150469 -25.86756141 460.21824998 -25.86637592 456.07489586 C-25.86617232 450.76278118 -25.89352077 445.45119898 -25.92792034 440.1392107 C-25.95013811 436.0548767 -25.95421511 431.97067213 -25.95315647 427.88628387 C-25.95551838 425.92743716 -25.96437495 423.96858719 -25.97982121 422.00979996 C-25.99938566 419.27346638 -25.99368192 416.5382984 -25.9816103 413.80194664 C-25.99284931 412.99196724 -26.00408833 412.18198784 -26.01566792 411.34746361 C-25.9758769 407.80362723 -25.7780085 405.65898607 -23.71540546 402.72322655 C-21.49577045 401.25726891 -21.49577045 401.25726891 -17.49577045 401.25726891 C-17.49577045 395.64726891 -17.49577045 390.03726891 -17.49577045 384.25726891 C-19.14577045 383.92726891 -20.79577045 383.59726891 -22.49577045 383.25726891 C-24.28117085 382.12421227 -24.28117085 382.12421227 -25.49577045 380.25726891 C-26.07079516 375.86310734 -25.96801784 371.44548322 -25.94181538 367.01825523 C-25.933419 364.85798747 -25.96186689 362.70047054 -25.99381733 360.54047203 C-26.03688445 351.7789025 -24.72117248 344.45609113 -21.49577045 336.25726891 C-20.6991974 334.19970873 -20.6991974 334.19970873 -20.49577045 332.25726891 C-22.3355028 329.16433321 -22.3355028 329.16433321 -24.49577045 326.25726891 C-25.4952012 323.25897667 -25.62390962 321.27911311 -25.62999153 318.14717388 C-25.63444938 317.08369868 -25.63890722 316.02022347 -25.64350015 314.92452174 C-25.64322361 313.16570612 -25.64322361 313.16570612 -25.64294147 311.37135887 C-25.64661816 310.12895665 -25.65029485 308.88655444 -25.65408295 307.60650367 C-25.66321304 304.15123331 -25.6678202 300.69601046 -25.67047226 297.24073255 C-25.67437448 293.51666358 -25.68395289 289.79260838 -25.69268513 286.0685482 C-25.71245198 277.07153958 -25.72251607 268.07452982 -25.73141292 259.0775049 C-25.7357955 254.84121361 -25.74116239 250.60492357 -25.74640179 246.36863327 C-25.76341437 232.28715366 -25.77790867 218.20567483 -25.78515053 204.12418652 C-25.78706044 200.46957269 -25.78898077 196.81495888 -25.79093647 193.16034508 C-25.79166208 191.7978313 -25.79166208 191.7978313 -25.79240235 190.40779199 C-25.80070316 175.69230084 -25.82604078 160.97689097 -25.85851715 146.26143531 C-25.89158408 131.15529429 -25.90959896 116.04919459 -25.91279477 100.94301718 C-25.91496022 92.46068354 -25.92371392 83.97846842 -25.94925594 75.49617004 C-25.97095796 68.2723919 -25.97901585 61.04876106 -25.96928916 53.82495401 C-25.96474296 50.13986701 -25.96664891 46.45508396 -25.98605061 42.7700386 C-26.00691553 38.77251073 -25.99670192 34.77565757 -25.98351765 30.77809715 C-25.99448689 29.61670701 -26.00545614 28.45531687 -26.01675779 27.25873309 C-25.95320919 19.28625794 -24.745062 13.91926117 -19.3121767 7.79633141 C-18.19649311 6.84887047 -18.19649311 6.84887047 -17.05827045 5.88226891 C-16.31705952 5.23515953 -15.57584858 4.58805016 -14.8121767 3.92133141 C-10.04349912 0.4956035 -5.7535089 -0.03409345 0 0 Z " fill="#C3D9DB" transform="translate(42.49577045440674,-0.25726890563964844)"/>
<path d="M0 0 C0.74963362 -0.00350607 1.49926724 -0.00701215 2.27161703 -0.01062447 C4.79171772 -0.01995244 7.31158803 -0.01501157 9.83169842 -0.01015663 C11.65347583 -0.01389219 13.47525165 -0.01849333 15.29702491 -0.02388728 C20.30979719 -0.03614438 25.32250288 -0.03585362 30.33528674 -0.03349853 C35.73895751 -0.03309104 41.14260673 -0.04412293 46.54626751 -0.05361366 C57.13552764 -0.07023943 67.72476551 -0.07572392 78.3140376 -0.07683842 C86.91987983 -0.07778813 95.5257147 -0.08189459 104.1315546 -0.08823967 C128.52067984 -0.10585628 152.90978747 -0.11507787 177.29891912 -0.11357872 C178.61424236 -0.11349881 179.9295656 -0.1134189 181.28474712 -0.11333656 C183.26013573 -0.11321392 183.26013573 -0.11321392 185.27543118 -0.1130888 C206.62221219 -0.11227575 227.96891288 -0.13141709 249.31567506 -0.1596133 C271.22455744 -0.18832407 293.1334054 -0.20215459 315.04230708 -0.20042574 C327.34644084 -0.19976122 339.65050066 -0.20528067 351.9546175 -0.22678185 C362.43005525 -0.24496985 372.90538555 -0.24936054 383.38083223 -0.235763 C388.72661172 -0.22922138 394.0721849 -0.22915926 399.41794491 -0.2464695 C404.31142567 -0.26215238 409.20453571 -0.25938555 414.09800716 -0.24190123 C415.86851486 -0.23882078 417.6390499 -0.24250291 419.40952537 -0.25362138 C437.30214815 -0.35854618 437.30214815 -0.35854618 444.96516705 6.44086266 C445.91262798 7.55654625 445.91262798 7.55654625 446.87922955 8.69476891 C447.52633892 9.43597984 448.1734483 10.17719078 448.84016705 10.94086266 C451.78250556 15.03665312 452.75382752 18.60269247 452.76149845 23.61345959 C452.76794734 24.68091689 452.77439624 25.74837419 452.78104055 26.84817868 C452.77639474 28.59825578 452.77639474 28.59825578 452.77165508 30.38368797 C452.7761862 31.62779904 452.78071731 32.87191011 452.78538573 34.15372151 C452.79585942 37.60452892 452.79735499 41.05512798 452.79499698 44.5059365 C452.79458887 48.22861467 452.80562735 51.95126173 452.81511211 55.6739254 C452.83172455 62.96649198 452.83722177 70.25902623 452.83833687 77.55161015 C452.83928724 83.47963112 452.843397 89.40764143 452.84973812 95.33565903 C452.86735131 112.14354456 452.87657689 128.95140455 452.87507717 145.75929938 C452.87499726 146.66540422 452.87491735 147.57150907 452.87483501 148.50507164 C452.87475325 149.41228315 452.87467149 150.31949467 452.87458725 151.25419744 C452.87377436 165.9566335 452.89291256 180.6589671 452.92111175 195.36137352 C452.94983954 210.45854343 452.9636521 225.55566336 452.9619242 240.6528613 C452.96126025 249.12845097 452.96675449 257.60393324 452.9882803 266.07949829 C453.00649074 273.29591661 453.01084061 280.51217885 452.99726145 287.7286102 C452.990731 291.40965467 452.99061699 295.09039971 453.00796795 298.77141571 C453.02659594 302.76447009 453.01414628 306.75683108 452.99870586 310.74989891 C453.00899299 311.90992481 453.01928012 313.06995071 453.02987897 314.26512891 C452.97134032 321.10882023 452.01550419 325.37092811 448.50422955 331.25726891 C447.28452351 334.91638702 447.86480072 335.69608211 449.37922955 339.13226891 C451.77954693 344.62110655 452.62710761 349.31632526 452.65140057 355.30946922 C452.66213352 357.13251579 452.66213352 357.13251579 452.67308331 358.99239159 C452.67592315 360.33109067 452.67863493 361.66979003 452.6812315 363.00848961 C452.68750115 364.42480191 452.69414839 365.84111259 452.70114422 367.25742149 C452.72212332 371.8992862 452.73253926 376.541151 452.7425108 381.18305016 C452.74656033 382.78421292 452.75067731 384.38537551 452.75486088 385.98653793 C452.77389722 393.50862412 452.7881328 401.03070057 452.79647285 408.5528062 C452.8062467 417.22369886 452.8325765 425.89433635 452.87297374 434.56513911 C452.90316335 441.27613961 452.91794432 447.98706705 452.92125386 454.69813412 C452.92360062 458.7024868 452.93251247 462.70656636 452.95771503 466.71084595 C452.98105161 470.47925174 452.98520687 474.24720564 452.97495365 478.01566505 C452.97422493 480.04900301 452.99327545 482.0823183 453.01301861 484.11556053 C452.96490257 492.59584631 452.10148235 498.20311995 446.3206358 504.71820641 C445.2049522 505.66566734 445.2049522 505.66566734 444.06672955 506.63226891 C443.32551861 507.27937828 442.58430767 507.92648766 441.8206358 508.59320641 C437.63215439 511.60213234 434.00923967 512.50686076 428.88981915 512.53142357 C427.77134594 512.5413987 426.65287273 512.55137383 425.5005064 512.56165123 C423.67389477 512.56264824 423.67389477 512.56264824 421.81038189 512.56366539 C420.52034252 512.57198891 419.23030315 512.58031242 417.90117168 512.58888817 C414.36777526 512.61079694 410.83446537 512.6196278 407.3010087 512.62471461 C405.08925485 512.62836416 402.87752343 512.63460749 400.66577816 512.641716 C392.93727663 512.66620329 385.20884209 512.67925968 377.48030376 512.68280602 C370.2974009 512.68643505 363.11492696 512.71628646 355.93215501 512.7582106 C349.75017774 512.79301697 343.56834181 512.80835628 337.3862673 512.80905205 C333.7008945 512.80984172 330.01595834 512.81843494 326.33068752 512.84704971 C322.2116375 512.87831713 318.09359436 512.86912163 313.97444439 512.85663414 C312.16605083 512.87888557 312.16605083 512.87888557 310.32112408 512.90158653 C303.13377988 512.83978 298.08866972 511.67975728 291.77871418 508.17125607 C290.65284429 507.71883242 290.65284429 507.71883242 289.50422955 507.25726891 C285.94923542 508.68132507 285.94923542 508.68132507 283.50422955 511.25726891 C280.4337541 512.28076072 278.3268026 512.3903412 275.1101408 512.40443993 C273.99008144 512.41159523 272.87002209 512.41875053 271.71602154 512.42612267 C269.87155437 512.43015602 269.87155437 512.43015602 267.98982525 512.43427086 C266.69525906 512.44084206 265.40069286 512.44741325 264.06689739 512.45418358 C259.7712811 512.4752096 255.47566453 512.48558604 251.1800108 512.49555016 C249.69957937 512.49959855 248.21914813 512.5037155 246.73871708 512.50790024 C239.78152857 512.52695038 232.82435064 512.54118058 225.86714107 512.54951221 C217.84540462 512.55927799 209.8239446 512.58558079 201.80230552 512.6260131 C195.59664884 512.65621473 189.39107121 512.67098499 183.18534249 512.67429322 C179.48164614 512.67663953 175.77824515 512.68554444 172.07462788 512.71075439 C167.93811176 512.73845586 163.80220959 512.73419167 159.6656065 512.72723961 C158.44608288 512.74004967 157.22655926 512.75285973 155.97008038 512.76605797 C148.92415976 512.72291974 144.58081472 511.81595778 138.50422955 508.25726891 C135.29978389 508.25726891 134.37750189 508.75306292 131.64145184 510.22492027 C125.6081468 512.97691706 119.8466303 512.81866668 113.3086729 512.77484703 C111.36550938 512.78536095 111.36550938 512.78536095 109.38309002 512.79608727 C105.85411805 512.81420805 102.32561768 512.8073008 98.79663825 512.79457092 C95.09015282 512.78438656 91.38370559 512.7938514 87.67721844 512.80011559 C81.45598948 512.80737537 75.23495101 512.79784743 69.01375103 512.77875328 C61.83641685 512.756978 54.65953713 512.7640471 47.48221391 512.7860589 C41.30187672 512.8042493 35.12167581 512.80675382 28.94132048 512.79630423 C25.25788337 512.79009042 21.57465945 512.78917516 17.89123631 512.80245018 C13.78401713 512.81622104 9.67757362 512.79709995 5.57039165 512.77484703 C4.3602943 512.78294395 3.15019695 512.79104088 1.90342999 512.79938316 C-6.23976325 512.71777453 -11.70098872 511.62438476 -17.95670795 506.07367516 C-18.90416889 504.95799156 -18.90416889 504.95799156 -19.87077045 503.81976891 C-20.51787983 503.07855797 -21.1649892 502.33734703 -21.83170795 501.57367516 C-25.5083279 496.45575114 -25.79320681 491.74200859 -25.7862978 485.58319664 C-25.79301502 484.7208239 -25.79973225 483.85845116 -25.80665302 482.96994591 C-25.82561083 480.12685917 -25.82955554 477.28400861 -25.83170795 474.44086266 C-25.83813542 472.46218837 -25.84486374 470.48351504 -25.85188007 468.50484276 C-25.86384584 464.36150469 -25.86756141 460.21824998 -25.86637592 456.07489586 C-25.86617232 450.76278118 -25.89352077 445.45119898 -25.92792034 440.1392107 C-25.95013811 436.0548767 -25.95421511 431.97067213 -25.95315647 427.88628387 C-25.95551838 425.92743716 -25.96437495 423.96858719 -25.97982121 422.00979996 C-25.99938566 419.27346638 -25.99368192 416.5382984 -25.9816103 413.80194664 C-25.99284931 412.99196724 -26.00408833 412.18198784 -26.01566792 411.34746361 C-25.9758769 407.80362723 -25.7780085 405.65898607 -23.71540546 402.72322655 C-21.49577045 401.25726891 -21.49577045 401.25726891 -17.49577045 401.25726891 C-17.49577045 395.64726891 -17.49577045 390.03726891 -17.49577045 384.25726891 C-19.14577045 383.92726891 -20.79577045 383.59726891 -22.49577045 383.25726891 C-24.28117085 382.12421227 -24.28117085 382.12421227 -25.49577045 380.25726891 C-26.07079516 375.86310734 -25.96801784 371.44548322 -25.94181538 367.01825523 C-25.933419 364.85798747 -25.96186689 362.70047054 -25.99381733 360.54047203 C-26.03688445 351.7789025 -24.72117248 344.45609113 -21.49577045 336.25726891 C-20.6991974 334.19970873 -20.6991974 334.19970873 -20.49577045 332.25726891 C-22.3355028 329.16433321 -22.3355028 329.16433321 -24.49577045 326.25726891 C-25.4952012 323.25897667 -25.62390962 321.27911311 -25.62999153 318.14717388 C-25.63444938 317.08369868 -25.63890722 316.02022347 -25.64350015 314.92452174 C-25.64322361 313.16570612 -25.64322361 313.16570612 -25.64294147 311.37135887 C-25.64661816 310.12895665 -25.65029485 308.88655444 -25.65408295 307.60650367 C-25.66321304 304.15123331 -25.6678202 300.69601046 -25.67047226 297.24073255 C-25.67437448 293.51666358 -25.68395289 289.79260838 -25.69268513 286.0685482 C-25.71245198 277.07153958 -25.72251607 268.07452982 -25.73141292 259.0775049 C-25.7357955 254.84121361 -25.74116239 250.60492357 -25.74640179 246.36863327 C-25.76341437 232.28715366 -25.77790867 218.20567483 -25.78515053 204.12418652 C-25.78706044 200.46957269 -25.78898077 196.81495888 -25.79093647 193.16034508 C-25.79166208 191.7978313 -25.79166208 191.7978313 -25.79240235 190.40779199 C-25.80070316 175.69230084 -25.82604078 160.97689097 -25.85851715 146.26143531 C-25.89158408 131.15529429 -25.90959896 116.04919459 -25.91279477 100.94301718 C-25.91496022 92.46068354 -25.92371392 83.97846842 -25.94925594 75.49617004 C-25.97095796 68.2723919 -25.97901585 61.04876106 -25.96928916 53.82495401 C-25.96474296 50.13986701 -25.96664891 46.45508396 -25.98605061 42.7700386 C-26.00691553 38.77251073 -25.99670192 34.77565757 -25.98351765 30.77809715 C-25.99448689 29.61670701 -26.00545614 28.45531687 -26.01675779 27.25873309 C-25.95320919 19.28625794 -24.745062 13.91926117 -19.3121767 7.79633141 C-18.19649311 6.84887047 -18.19649311 6.84887047 -17.05827045 5.88226891 C-16.31705952 5.23515953 -15.57584858 4.58805016 -14.8121767 3.92133141 C-10.04349912 0.4956035 -5.7535089 -0.03409345 0 0 Z M-7.49577045 21.25726891 C-8.7313049 23.7283378 -8.61999072 25.3458856 -8.61881828 28.11048889 C-8.62080933 29.14207268 -8.62280038 30.17365648 -8.62485176 31.23650038 C-8.62193892 32.37850445 -8.61902608 33.52050851 -8.61602497 34.69711876 C-8.6168794 35.90347556 -8.61773382 37.10983235 -8.61861414 38.35274541 C-8.61998088 41.71171254 -8.61683886 45.07062195 -8.61183608 48.42958212 C-8.60753068 52.04784935 -8.60897806 55.6661147 -8.60973835 59.28438377 C-8.61026353 65.55676893 -8.60711737 71.82914371 -8.60150051 78.10152626 C-8.59338468 87.17041637 -8.59077021 96.23930145 -8.58951252 105.3081948 C-8.58732213 120.02071454 -8.5806624 134.73322874 -8.57120991 149.44574547 C-8.56203545 163.74034154 -8.55495478 178.03493611 -8.5507021 192.32953453 C-8.55043937 193.21017278 -8.55017665 194.09081103 -8.54990596 194.99813528 C-8.54860096 199.41589503 -8.54733724 203.83365478 -8.54609406 208.25141454 C-8.53572186 244.92003657 -8.51810389 281.58865231 -8.49577045 318.25726891 C-7.83577045 318.58726891 -7.17577045 318.91726891 -6.49577045 319.25726891 C-4.24791823 318.13203781 -4.24791823 318.13203781 -1.80827045 316.50726891 C11.10285159 308.51643119 23.07284954 307.92456999 37.79329205 307.88617516 C39.5829554 307.87718986 41.37261808 307.86806773 43.16228008 307.85881615 C46.90600174 307.84238196 50.64963459 307.83463662 54.3933897 307.8317318 C59.15067544 307.82636331 63.90710597 307.78872275 68.66415119 307.74298763 C72.36032812 307.71298953 76.05630507 307.7060033 79.75259304 307.70500565 C81.50420186 307.70084593 83.25581369 307.68858641 85.00730038 307.6674881 C100.74180443 307.49307371 114.86683039 309.99060665 127.50422955 320.25726891 C130.69604821 323.44442798 133.65553741 326.76146646 136.50422955 330.25726891 C138.58509604 328.22350021 140.45276982 326.33050005 142.12922955 323.94476891 C149.84585355 315.21279964 161.8850938 309.16829327 173.50855541 308.06744003 C175.59105274 307.99327842 177.66554804 307.97543213 179.74934673 307.9826107 C180.92187496 307.97494431 180.92187496 307.97494431 182.11809063 307.96712303 C184.67917516 307.95332622 187.23998746 307.95417674 189.80110455 307.95648766 C191.59938435 307.95259437 193.39766324 307.94825841 195.19594097 307.94350243 C198.9582394 307.9360608 202.72044396 307.93631586 206.48274517 307.94159508 C211.27489189 307.94737706 216.06665052 307.93047944 220.85873318 307.9072504 C224.57193992 307.89242689 228.28505515 307.89165318 231.99828625 307.89476013 C233.76350706 307.89425091 235.52873353 307.88908928 237.29392529 307.87894821 C253.97303786 307.79489864 270.18689313 309.79507938 283.03547955 321.66742516 C285.50639532 324.34206005 287.49943847 327.21970668 289.50422955 330.25726891 C290.14360455 329.59726891 290.78297955 328.93726891 291.44172955 328.25726891 C292.46065528 327.25532527 293.48177386 326.25561007 294.50422955 325.25726891 C295.11266705 324.64109703 295.72110455 324.02492516 296.34797955 323.39008141 C306.65091551 313.51002714 319.5271865 307.96397365 333.79353619 307.95087242 C334.58015636 307.9425489 335.36677654 307.93422539 336.1772337 307.92564964 C338.7563361 307.90172234 341.33518445 307.89279678 343.9143858 307.88617516 C345.72789865 307.87719242 347.54141081 307.86807032 349.35492229 307.85881615 C353.15169853 307.84236803 356.94838706 307.83463425 360.74519634 307.8317318 C365.57088738 307.82636677 370.39573392 307.78874667 375.22118759 307.74298763 C378.96797849 307.71299111 382.71457207 307.7060033 386.46147251 307.70500565 C388.23820054 307.70084437 390.01493146 307.68857829 391.79153919 307.6674881 C408.00486507 307.490405 420.43572768 310.74597152 434.50422955 319.25726891 C436.13628302 317.62521543 435.63393771 315.79440101 435.63845062 313.54106331 C435.64513739 312.00129943 435.64513739 312.00129943 435.65195924 310.43042922 C435.65177488 309.28892291 435.65159052 308.14741661 435.65140057 306.9713192 C435.6569156 305.16835739 435.6569156 305.16835739 435.66254205 303.3289721 C435.67169088 299.97740652 435.67628338 296.62588999 435.67893136 293.27431655 C435.68282609 289.6654717 435.69240504 286.05664116 435.70114422 282.4478054 C435.72093326 273.72435897 435.73097839 265.00091133 435.73987201 256.27744806 C435.74425133 252.17276202 435.74961909 248.06807727 435.75486088 243.96339226 C435.77187637 230.32377325 435.78637112 216.68415505 435.79360962 203.04452705 C435.79551962 199.50264803 435.79743994 195.960769 435.79939556 192.41889 C435.7998793 191.5385357 435.80036304 190.65818139 435.80086144 189.75114968 C435.80916383 175.48616033 435.83450282 161.22125477 435.86697624 146.95630202 C435.90002091 132.32145392 435.91805607 117.68664843 435.92125386 103.05176282 C435.92342148 94.83050612 435.93220667 86.60937158 435.95771503 78.38815117 C435.97938678 71.38711815 435.98748996 64.38623694 435.97774825 57.38517419 C435.97319309 53.81185893 435.97515963 50.23885714 435.9945097 46.66558456 C436.01529454 42.7939761 436.00518949 38.92280308 435.99197674 35.05115318 C436.00294598 33.91856976 436.01391523 32.78598634 436.02521688 31.61908221 C436.00309858 25.54893397 436.00309858 25.54893397 433.59874535 20.08265114 C429.88515347 16.84623505 427.40241063 17.1297124 422.52539635 17.12304783 C421.79520921 17.1206956 421.06502207 17.11834337 420.31270805 17.11591986 C417.84078256 17.10920849 415.36890938 17.10968872 412.89697552 17.11009789 C411.11689829 17.1068006 409.33682182 17.10307532 407.5567463 17.09895641 C402.64543706 17.08891306 397.73414004 17.08521588 392.82282197 17.0825671 C387.53368156 17.07867099 382.24455089 17.06909224 376.95541668 17.06035423 C364.17302533 17.04057097 351.39063316 17.03052161 338.60823032 17.02162644 C332.59433326 17.01724691 326.58043708 17.01187926 320.56654072 17.00663757 C300.58489922 16.98962403 280.60325827 16.97512846 260.62161064 16.96788883 C255.4336392 16.96597882 250.24566777 16.96405851 245.05769634 16.96210289 C243.76819332 16.96161915 242.47869029 16.96113541 241.15011141 16.96063701 C220.24730899 16.95233151 199.34456371 16.92698637 178.44178625 16.89452221 C156.99971233 16.86149091 135.55766749 16.84344366 114.11556798 16.84024459 C102.06913863 16.83807593 90.0227926 16.82927529 77.97638798 16.80378342 C67.72001763 16.7821301 57.46375084 16.77399948 47.20736023 16.7837502 C41.97133197 16.78831041 36.73551763 16.78630911 31.49951839 16.76698875 C26.7097025 16.74946685 21.92025832 16.7502649 17.13043908 16.76588605 C15.39421234 16.76827889 13.65796059 16.76385254 11.92177226 16.7520574 C9.56758674 16.73704968 7.21473732 16.74653228 4.86058617 16.76228428 C3.55125545 16.76130747 2.24192474 16.76033066 0.89291734 16.75932425 C-3.05562828 17.33953621 -4.69651293 18.46954567 -7.49577045 21.25726891 Z " fill="#373737" transform="translate(42.49577045440674,-0.25726890563964844)"/>
<path d="M0 0 C1.74818754 -0.00524627 3.49637226 -0.01152638 5.24455261 -0.01878357 C8.89665101 -0.02914913 12.54835887 -0.02468375 16.20043945 -0.01000977 C20.84700866 0.00714524 25.49233733 -0.01629643 30.1387682 -0.05149937 C33.74655627 -0.07361917 37.35405438 -0.07199649 40.96188927 -0.06373405 C42.67325893 -0.06292197 44.3846515 -0.06964104 46.0959568 -0.08450508 C59.1418336 -0.18044642 71.35876175 0.93323815 81.265625 10.546875 C89.8456283 20.65134358 91.28040149 29.91238656 91.27099609 42.76611328 C91.27771332 44.0855896 91.28443054 45.40506592 91.29135132 46.76452637 C91.30894488 50.3676572 91.31370364 53.97069292 91.31498289 57.57386255 C91.31640787 59.82678742 91.32068385 62.07968836 91.32597733 64.33260727 C91.34444972 72.19685138 91.35265071 80.06102788 91.35107422 87.92529297 C91.34987088 95.25030234 91.37101785 102.575018 91.40256155 109.89995301 C91.42871212 116.19737415 91.43944216 122.49469919 91.4381634 128.79217422 C91.43765376 132.54991057 91.44333868 136.30738516 91.4645195 140.06506729 C91.48747976 144.25207923 91.47838862 148.43843088 91.46630859 152.62548828 C91.47754761 153.86821503 91.48878662 155.11094177 91.50036621 156.3913269 C91.49197723 157.53240906 91.48358826 158.67349121 91.47494507 159.84915161 C91.4760346 160.83836168 91.47712414 161.82757175 91.47824669 162.84675789 C90.83573746 166.35715686 89.45395334 168.03720752 86.98046875 170.56640625 C84.00876652 171.55697366 82.04755493 171.69893326 78.9458313 171.71357727 C77.38545135 171.72431023 77.38545135 171.72431023 75.79354858 171.73526001 C74.65269806 171.73794891 73.51184753 171.74063782 72.33642578 171.7434082 C71.13457642 171.7499794 69.93272705 171.7565506 68.69445801 171.76332092 C64.70906323 171.78306584 60.72370868 171.79471928 56.73828125 171.8046875 C55.36550756 171.80873571 53.99273407 171.81285265 52.61996078 171.81703758 C46.17161972 171.83608175 39.72329007 171.85031568 33.2749263 171.85864955 C25.83328567 171.86842635 18.39194213 171.89476027 10.95040619 171.93515044 C5.19659711 171.96530809 -0.55712676 171.98011798 -6.31101334 171.98343056 C-9.74690384 171.98578105 -13.18247665 171.99474085 -16.61828232 172.01989174 C-20.45118485 172.04749735 -24.28369592 172.04334238 -28.11669922 172.03637695 C-29.82190231 172.05559204 -29.82190231 172.05559204 -31.56155396 172.07519531 C-39.25488198 172.02411832 -39.25488198 172.02411832 -43.20095825 169.66203308 C-46.49521183 165.86591041 -46.18260068 162.58632247 -46.20898438 157.76782227 C-46.21727768 156.96280273 -46.22557098 156.1577832 -46.2341156 155.32836914 C-46.25153343 153.57739301 -46.26669549 151.82639335 -46.27989197 150.07538033 C-46.30088881 147.30612678 -46.32791448 144.53699122 -46.35656738 141.76780701 C-46.41631585 135.88821856 -46.46844219 130.00857547 -46.51953125 124.12890625 C-46.57872755 117.3206387 -46.64101385 110.51242924 -46.71141052 103.7042675 C-46.73801402 100.97275015 -46.7588122 98.24122705 -46.77941895 95.50965881 C-46.79602134 93.83789795 -46.81289313 92.16613974 -46.83007812 90.49438477 C-46.83635475 89.3511097 -46.83635475 89.3511097 -46.84275818 88.18473816 C-46.88015066 85.04941127 -47.02057602 82.56327194 -48.01953125 79.56640625 C-50.32953125 78.90640625 -52.63953125 78.24640625 -55.01953125 77.56640625 C-55.01953125 71.95640625 -55.01953125 66.34640625 -55.01953125 60.56640625 C-52.70953125 59.90640625 -50.39953125 59.24640625 -48.01953125 58.56640625 C-47.03973075 55.27627238 -46.8819338 52.26539784 -46.84375 48.83984375 C-46.80797852 47.16728516 -46.80797852 47.16728516 -46.77148438 45.4609375 C-46.72894812 43.13820009 -46.69746577 40.81523056 -46.67773438 38.4921875 C-46.4075653 27.54719828 -43.56810158 18.67412994 -36.01953125 10.56640625 C-25.38283853 0.66327855 -13.85056574 -0.05085419 0 0 Z " fill="#B14C5B" transform="translate(80.01953125,323.43359375)"/>
<path d="M0 0 C0.73247955 -0.0065712 1.46495911 -0.0131424 2.21963501 -0.01991272 C4.63462446 -0.03955872 7.04955183 -0.05129169 9.46459961 -0.0612793 C10.29454374 -0.06535482 11.12448788 -0.06943035 11.97958183 -0.07362938 C16.37652203 -0.09445773 20.77343137 -0.1087708 25.17041016 -0.11816406 C29.68358691 -0.12919402 34.19626597 -0.16356342 38.70926762 -0.20333576 C42.20371842 -0.22964437 45.69805343 -0.23786866 49.19259453 -0.24144554 C50.85457134 -0.24627841 52.51654415 -0.25779669 54.17842293 -0.27648354 C67.28415814 -0.41463712 79.62324048 0.55754086 89.55444336 10.17700195 C98.22307328 19.53105843 100.15347958 29.36195141 100.07202148 41.80908203 C100.07745348 43.15218867 100.08458214 44.49528933 100.09326172 45.83837891 C100.11136172 49.45592683 100.10448585 53.07301408 100.09174538 56.69056916 C100.08155845 60.48787236 100.09102578 64.28513835 100.09729004 68.08244324 C100.10454555 74.45151804 100.09502946 80.82040664 100.07592773 87.18945312 C100.05411606 94.5469316 100.06124962 101.90396738 100.08323336 109.26143533 C100.1013916 115.59291137 100.10394506 121.92425431 100.09347868 128.25574797 C100.08725203 132.03129348 100.08638607 135.80663083 100.09962463 139.58216286 C100.11119056 143.12745274 100.10314486 146.67217135 100.08004761 150.2173996 C100.07225064 152.13552061 100.08410682 154.05369005 100.09655762 155.9717865 C100.08527832 157.11694733 100.07399902 158.26210815 100.06237793 159.44197083 C100.06086983 160.43465878 100.05936172 161.42734674 100.05780792 162.45011616 C99.40948544 165.96228505 98.03029721 167.6456688 95.55444336 170.17700195 C92.58274113 171.16756936 90.62152954 171.30952897 87.51980591 171.32417297 C85.95942596 171.33490593 85.95942596 171.33490593 84.36752319 171.34585571 C83.22667267 171.34854462 82.08582214 171.35123352 80.91040039 171.35400391 C79.70855103 171.3605751 78.50670166 171.3671463 77.26843262 171.37391663 C73.28303784 171.39366155 69.29768329 171.40531499 65.31225586 171.4152832 C63.93948217 171.41933141 62.56670868 171.42344836 61.19393539 171.42763329 C54.74559433 171.44667746 48.29726468 171.46091138 41.84890091 171.46924525 C34.40726028 171.47902205 26.96591674 171.50535597 19.5243808 171.54574615 C13.77057172 171.57590379 8.01684785 171.59071369 2.26296127 171.59402627 C-1.17292923 171.59637675 -4.60850204 171.60533655 -8.04430771 171.63048744 C-11.87721024 171.65809305 -15.70972132 171.65393808 -19.54272461 171.64697266 C-21.2479277 171.66618774 -21.2479277 171.66618774 -22.98757935 171.68579102 C-30.68090737 171.63471403 -30.68090737 171.63471403 -34.62698364 169.27262878 C-37.47740351 165.98795648 -37.57421029 164.1232335 -37.59272766 159.84742737 C-37.59988297 158.71624985 -37.60703827 157.58507233 -37.6144104 156.4196167 C-37.6170993 155.17238831 -37.61978821 153.92515991 -37.62255859 152.64013672 C-37.62912979 151.33102829 -37.63570099 150.02191986 -37.64247131 148.67314148 C-37.66353165 144.32157623 -37.6738814 139.97001058 -37.68383789 135.6184082 C-37.68788591 134.11854471 -37.69200285 132.6186814 -37.69618797 131.11881828 C-37.71525074 124.06604557 -37.72947464 117.01328334 -37.73779994 109.96048981 C-37.747551 101.83463361 -37.77380978 93.70905136 -37.81430084 85.58329159 C-37.84455169 79.29523102 -37.85927762 73.00724851 -37.86258096 66.71911663 C-37.86492295 62.96780336 -37.87377019 59.21678237 -37.89904213 55.46554756 C-37.92248289 51.92862256 -37.92649278 48.39217882 -37.91628075 44.855196 C-37.91555646 42.95480321 -37.93453885 41.05443399 -37.9543457 39.15414429 C-37.88774445 28.06109928 -35.24319873 18.35108193 -27.44555664 10.17700195 C-19.23655659 2.8206679 -10.96416017 0.04315358 0 0 Z " fill="#B14C5B" transform="translate(378.445556640625,323.822998046875)"/>
<path d="M0 0 C0.76320053 -0.0065712 1.52640106 -0.0131424 2.31272888 -0.01991272 C4.83535878 -0.03959975 7.35792913 -0.05130101 9.88061523 -0.0612793 C10.74582228 -0.06535482 11.61102932 -0.06943035 12.50245476 -0.07362938 C17.08626947 -0.09447533 21.67005442 -0.10878073 26.25390625 -0.11816406 C30.96561826 -0.12919662 35.67685387 -0.16356404 40.38839817 -0.20333576 C44.03035803 -0.22961259 47.67220656 -0.2378659 51.31425285 -0.24144554 C53.04962298 -0.24628672 54.78498896 -0.2578294 56.52026558 -0.27648354 C70.38179359 -0.41617559 80.7934454 0.74664599 91.21264648 10.80200195 C96.83958105 16.97741028 100.61632011 23.58009195 100.64413452 32.06629944 C100.65692947 33.83491081 100.65692947 33.83491081 100.66998291 35.63925171 C100.66862335 37.56651596 100.66862335 37.56651596 100.66723633 39.53271484 C100.67322383 40.90625879 100.68002989 42.27979938 100.68759155 43.65333557 C100.70523087 47.37634789 100.7099459 51.09926824 100.71122313 54.82231832 C100.71264583 57.14859359 100.71691757 59.47484556 100.72221756 61.80111504 C100.74070713 69.91706704 100.74888904 78.03295341 100.74731445 86.14892578 C100.74611157 93.71475729 100.76724521 101.28030422 100.79880178 108.84606367 C100.82493846 115.34385142 100.83568293 121.84154601 100.83440363 128.33938593 C100.83389346 132.21951878 100.83960748 136.09939834 100.86075974 139.97947884 C100.88009986 143.62642419 100.88029618 147.27287336 100.86572647 150.91983604 C100.86263333 152.89667533 100.87934211 154.87351445 100.89660645 156.85028076 C100.88821747 158.02653519 100.87982849 159.20278961 100.8711853 160.41468811 C100.87227484 161.43691499 100.87336437 162.45914186 100.87448692 163.51234531 C100.24462255 166.88407425 99.00151323 168.04321664 96.37670898 170.17700195 C93.88902298 171.42084495 92.20851429 171.31391809 89.42436218 171.3309021 C88.3770694 171.33950256 87.32977661 171.34810303 86.25074768 171.35696411 C85.09695114 171.36122406 83.9431546 171.36548401 82.75439453 171.36987305 C80.93720917 171.38213928 80.93720917 171.38213928 79.08331299 171.39465332 C75.06002129 171.41953897 71.03676721 171.43618077 67.01342773 171.45043945 C65.62858384 171.45579913 64.24374001 171.46117664 62.85889626 171.46657181 C57.09846619 171.48820041 51.33803894 171.50693724 45.57757854 171.5181942 C37.32122112 171.53443454 29.06533424 171.56761378 20.80915421 171.62459505 C15.00441278 171.66329188 9.19979722 171.68282653 3.39493018 171.68811476 C-0.07235399 171.69176866 -3.53913632 171.70379238 -7.0062809 171.7362175 C-10.87525883 171.77188192 -14.74364596 171.76792787 -18.61279297 171.76049805 C-19.76051682 171.77690338 -20.90824066 171.79330872 -22.09074402 171.81021118 C-26.65398869 171.77425647 -29.76922293 171.63199463 -33.83251953 169.46733093 C-36.72642523 164.15012444 -36.32617146 158.90607839 -36.28613281 152.94824219 C-36.29455043 151.58766782 -36.30507752 150.22710512 -36.31755066 148.86656189 C-36.34459618 145.17588033 -36.33989639 141.48587498 -36.3278501 137.79513812 C-36.32070876 134.70671067 -36.32922595 131.61840751 -36.3377555 128.52998978 C-36.35771102 121.23472289 -36.35214104 113.93978357 -36.33007812 106.64453125 C-36.30777316 99.14228299 -36.32523962 91.64089787 -36.36312741 84.13873142 C-36.39448089 77.68152995 -36.40223975 71.22459399 -36.39117366 64.76732594 C-36.38471744 60.91815422 -36.38653729 57.06947884 -36.41049767 53.22036552 C-36.4319273 49.59282818 -36.42354611 45.96649289 -36.39340401 42.33902931 C-36.38417248 40.39237379 -36.4041317 38.4456462 -36.425354 36.49908447 C-36.28688796 25.87504821 -33.01239371 17.65493963 -25.87329102 9.73950195 C-18.2938515 2.74309625 -10.10619506 0.03793233 0 0 Z " fill="#CD5964" transform="translate(223.623291015625,323.822998046875)"/>
<path d="M0 0 C2.16134935 1.40668117 4.30945212 2.83191163 6.45556641 4.26171875 C11.90411987 7.88543027 17.45649656 11.33593407 23.01416016 14.7890625 C33.67334661 21.43169485 44.30369858 28.11636112 54.87011719 34.90576172 C57.1791409 36.38223345 59.49943442 37.83914106 61.82275391 39.29296875 C70.54211009 44.81705216 77.54614937 50.19421499 80.85400391 60.35546875 C82.65338107 68.43035965 81.3019537 76.24332161 77.32666016 83.4765625 C72.60590868 90.02739253 66.9218167 94.08976976 60.07666016 98.2265625 C59.10647949 98.82799072 58.13629883 99.42941895 57.13671875 100.04907227 C55.14999014 101.2805974 53.16025153 102.50728045 51.16748047 103.72900391 C47.83161561 105.78109403 44.52293876 107.87346727 41.2175293 109.97412109 C32.19573336 115.70739902 23.12919637 121.37065547 14.0559082 127.02197266 C9.51710597 129.84959174 4.98569122 132.6851269 0.49072266 135.58203125 C-0.59366089 136.27594971 -0.59366089 136.27594971 -1.69995117 136.98388672 C-3.00130403 137.8181633 -4.29847801 138.65901839 -5.59008789 139.50830078 C-14.04251105 144.90336376 -22.87715184 145.58593869 -32.67333984 144.4765625 C-40.77071433 141.94205633 -47.07165972 137.61418753 -51.67333984 130.4765625 C-55.05153375 123.26965879 -56.26053701 116.72367285 -56.19091797 108.82373047 C-56.19792725 107.82220947 -56.20493652 106.82068848 -56.2121582 105.78881836 C-56.2296031 102.51517082 -56.21816516 99.24240459 -56.20458984 95.96875 C-56.2072882 93.67432491 -56.21117348 91.37990094 -56.21618652 89.08547974 C-56.22206293 84.29271484 -56.2135768 79.50024944 -56.19482422 74.70751953 C-56.17201035 68.57995773 -56.18518558 62.45309592 -56.20911407 56.32555962 C-56.2236001 51.59334075 -56.21895356 46.86128661 -56.20860291 42.12906265 C-56.20594473 39.87013795 -56.20917318 37.61119803 -56.21852112 35.35229111 C-56.22873561 32.19132859 -56.21311749 29.03148512 -56.19091797 25.87060547 C-56.19901489 24.94776764 -56.20711182 24.02492981 -56.2154541 23.0741272 C-56.09921347 14.09225503 -52.69782199 6.17043155 -46.67333984 -0.5234375 C-32.26161166 -13.52225115 -14.98981331 -9.56405267 0 0 Z " fill="#B04C5B" transform="translate(251.67333984375,102.5234375)"/>
<path d="M0 0 C2.16134935 1.40668117 4.30945212 2.83191163 6.45556641 4.26171875 C11.90411987 7.88543027 17.45649656 11.33593407 23.01416016 14.7890625 C33.67334661 21.43169485 44.30369858 28.11636112 54.87011719 34.90576172 C57.1791409 36.38223345 59.49943442 37.83914106 61.82275391 39.29296875 C70.54211009 44.81705216 77.54614937 50.19421499 80.85400391 60.35546875 C82.65338107 68.43035965 81.3019537 76.24332161 77.32666016 83.4765625 C72.60590868 90.02739253 66.9218167 94.08976976 60.07666016 98.2265625 C59.10647949 98.82799072 58.13629883 99.42941895 57.13671875 100.04907227 C55.14999014 101.2805974 53.16025153 102.50728045 51.16748047 103.72900391 C47.83161561 105.78109403 44.52293876 107.87346727 41.2175293 109.97412109 C32.19573336 115.70739902 23.12919637 121.37065547 14.0559082 127.02197266 C9.51710597 129.84959174 4.98569122 132.6851269 0.49072266 135.58203125 C-0.59366089 136.27594971 -0.59366089 136.27594971 -1.69995117 136.98388672 C-3.00130403 137.8181633 -4.29847801 138.65901839 -5.59008789 139.50830078 C-14.04251105 144.90336376 -22.87715184 145.58593869 -32.67333984 144.4765625 C-40.77071433 141.94205633 -47.07165972 137.61418753 -51.67333984 130.4765625 C-55.05153375 123.26965879 -56.26053701 116.72367285 -56.19091797 108.82373047 C-56.19792725 107.82220947 -56.20493652 106.82068848 -56.2121582 105.78881836 C-56.2296031 102.51517082 -56.21816516 99.24240459 -56.20458984 95.96875 C-56.2072882 93.67432491 -56.21117348 91.37990094 -56.21618652 89.08547974 C-56.22206293 84.29271484 -56.2135768 79.50024944 -56.19482422 74.70751953 C-56.17201035 68.57995773 -56.18518558 62.45309592 -56.20911407 56.32555962 C-56.2236001 51.59334075 -56.21895356 46.86128661 -56.20860291 42.12906265 C-56.20594473 39.87013795 -56.20917318 37.61119803 -56.21852112 35.35229111 C-56.22873561 32.19132859 -56.21311749 29.03148512 -56.19091797 25.87060547 C-56.19901489 24.94776764 -56.20711182 24.02492981 -56.2154541 23.0741272 C-56.09921347 14.09225503 -52.69782199 6.17043155 -46.67333984 -0.5234375 C-32.26161166 -13.52225115 -14.98981331 -9.56405267 0 0 Z M-38.67333984 18.4765625 C-39.2396921 21.70084942 -39.22053774 24.86722891 -39.19091797 28.13452148 C-39.19792725 29.08975708 -39.20493652 30.04499268 -39.2121582 31.0291748 C-39.22971947 34.17730034 -39.2181208 37.32452204 -39.20458984 40.47265625 C-39.20728551 42.66691764 -39.21116855 44.86117787 -39.21618652 47.05543518 C-39.22207925 51.65108631 -39.21352644 56.24642612 -39.19482422 60.84204102 C-39.1720486 66.72445464 -39.18515085 72.60613767 -39.20911407 78.48852444 C-39.22358943 83.01908339 -39.21895778 87.54947003 -39.20860291 92.08003426 C-39.20593974 94.24850616 -39.20919089 96.41699385 -39.21852112 98.58544731 C-39.22871352 101.62045406 -39.21314667 104.65428918 -39.19091797 107.68920898 C-39.19901489 108.5803389 -39.20711182 109.47146881 -39.2154541 110.38960266 C-39.13625984 116.24495744 -38.03865316 119.65499869 -34.67333984 124.4765625 C-31.05649535 127.77427365 -27.27121194 128.13281365 -22.53027344 127.93286133 C-13.83080428 126.54341441 -5.46783842 119.56558565 1.82666016 114.8515625 C3.7639604 113.60906349 5.70146387 112.3668813 7.63916016 111.125 C8.59693359 110.50979492 9.55470703 109.89458984 10.54150391 109.26074219 C14.62375845 106.64563733 18.72456259 104.06038238 22.82666016 101.4765625 C24.36454478 100.505405 25.90230345 99.53404802 27.43994141 98.5625 C30.01225301 96.93738 32.58540576 95.31363704 35.16015625 93.69238281 C38.11352133 91.83197234 41.06402482 89.96708925 44.01416016 88.1015625 C44.92294922 87.53050781 45.83173828 86.95945312 46.76806641 86.37109375 C57.23820661 80.53322327 57.23820661 80.53322327 64.32666016 71.4765625 C64.83268343 66.92235302 64.54768664 63.9032897 61.875 60.11865234 C58.38950731 56.42211752 53.7825541 54.05550422 49.45166016 51.4765625 C47.27268429 50.1481034 45.09431177 48.81865424 42.91650391 47.48828125 C41.81419434 46.81974121 40.71188477 46.15120117 39.57617188 45.46240234 C34.67998385 42.47024657 29.84642454 39.38300896 25.01416016 36.2890625 C23.20447289 35.13508952 21.39457943 33.98143984 19.58447266 32.828125 C18.70952148 32.2702832 17.83457031 31.71244141 16.93310547 31.13769531 C10.47238841 27.02016826 4.003363 22.91735816 -2.4921875 18.85498047 C-4.63370114 17.50161288 -6.75381152 16.11913068 -8.87255859 14.73046875 C-17.15178473 9.09322241 -17.15178473 9.09322241 -26.81396484 7.91796875 C-32.68015274 9.6802899 -35.8401167 13.22585688 -38.67333984 18.4765625 Z " fill="#393838" transform="translate(251.67333984375,102.5234375)"/>
</svg>
