<?xml version="1.0" standalone="no"?>
<!DOCTYPE svg PUBLIC "-//W3C//DTD SVG 20010904//EN"
 "http://www.w3.org/TR/2001/REC-SVG-20010904/DTD/svg10.dtd">
<svg version="1.0" xmlns="http://www.w3.org/2000/svg"
 width="512.000000pt" height="512.000000pt" viewBox="0 0 512.000000 512.000000"
 preserveAspectRatio="xMidYMid meet">

<g transform="translate(0.000000,512.000000) scale(0.100000,-0.100000)"
fill="#000000" stroke="none">
<path d="M2497 4520 c-71 -12 -136 -48 -191 -104 -42 -44 -82 -117 -280 -516
l-231 -465 -510 -73 c-560 -81 -574 -84 -659 -162 -27 -25 -60 -70 -79 -109
-28 -58 -32 -75 -32 -151 0 -76 4 -93 33 -152 29 -59 69 -102 400 -424 202
-197 370 -363 374 -369 3 -5 -32 -231 -78 -500 -93 -537 -98 -594 -56 -687 46
-104 158 -189 273 -207 114 -19 135 -10 632 250 l459 240 66 -34 c492 -255
836 -429 871 -442 63 -22 178 -19 246 6 72 27 153 101 190 174 51 101 48 142
-48 695 l-85 485 379 380 c436 438 433 435 434 585 0 76 -3 92 -32 151 -19 39
-52 84 -79 109 -85 78 -99 82 -658 162 l-508 73 -230 460 c-127 253 -244 477
-260 498 -77 97 -213 148 -341 127z"/>
</g>
</svg>
