<?xml version="1.0" standalone="no"?>
<!DOCTYPE svg PUBLIC "-//W3C//DTD SVG 20010904//EN"
 "http://www.w3.org/TR/2001/REC-SVG-20010904/DTD/svg10.dtd">
<svg version="1.0" xmlns="http://www.w3.org/2000/svg"
 width="512.000000pt" height="512.000000pt" viewBox="0 0 512.000000 512.000000"
 preserveAspectRatio="xMidYMid meet">

<g transform="translate(0.000000,512.000000) scale(0.100000,-0.100000)"
fill="#000000" stroke="none">
<path d="M1369 4353 c-113 -263 -699 -1643 -699 -1647 0 -3 94 -6 208 -6 l208
0 59 140 59 140 364 -2 364 -3 57 -135 57 -135 208 -3 c207 -2 208 -2 203 19
-3 11 -164 394 -358 850 l-353 829 -178 0 -179 0 -20 -47z m300 -762 c50 -118
90 -216 88 -218 -2 -2 -90 -2 -194 -1 l-190 3 95 223 c52 123 98 220 102 215
5 -4 49 -104 99 -222z"/>
<path d="M3350 2928 l0 -1473 -122 120 c-68 66 -167 163 -221 215 l-97 95
-135 -135 -135 -135 187 -188 c104 -104 308 -305 454 -447 l266 -260 452 447
452 446 -133 134 c-73 73 -136 132 -140 131 -4 -2 -104 -97 -222 -211 l-216
-209 0 1471 0 1471 -195 0 -195 0 0 -1472z"/>
<path d="M827 2423 c-4 -3 -7 -91 -7 -195 l0 -188 453 -2 454 -3 -155 -170
c-85 -93 -289 -317 -454 -498 l-298 -327 0 -160 0 -160 745 0 745 0 0 195 0
195 -449 2 -449 3 449 492 449 493 0 165 0 165 -738 0 c-406 0 -742 -3 -745
-7z"/>
</g>
</svg>
