<?xml version="1.0" standalone="no"?>
<!DOCTYPE svg PUBLIC "-//W3C//DTD SVG 20010904//EN"
 "http://www.w3.org/TR/2001/REC-SVG-20010904/DTD/svg10.dtd">
<svg version="1.0" xmlns="http://www.w3.org/2000/svg"
 width="512.000000pt" height="512.000000pt" viewBox="0 0 512.000000 512.000000"
 preserveAspectRatio="xMidYMid meet">

<g transform="translate(0.000000,512.000000) scale(0.100000,-0.100000)"
fill="#000000" stroke="none">
<path d="M0 4235 l0 -885 396 0 c313 0 395 -3 392 -12 -3 -7 -18 -75 -34 -150
l-28 -138 -158 0 -158 0 0 -150 0 -150 880 0 880 0 0 150 0 150 -143 0 -144 0
-27 133 c-15 72 -30 140 -32 150 -5 16 18 17 390 17 l396 0 0 885 0 885 -1305
0 -1305 0 0 -885z m2310 0 l0 -585 -1005 0 -1005 0 0 585 0 585 1005 0 1005 0
0 -585z m-765 -1035 l32 -145 -270 -3 c-149 -1 -271 -1 -272 0 -2 2 11 69 29
151 l31 147 210 -2 209 -3 31 -145z"/>
<path d="M3330 4970 l0 -150 565 0 565 0 0 -337 0 -337 -73 72 -72 72 -105
-105 -105 -105 255 -255 255 -255 252 252 253 253 -107 107 -108 108 -72 -72
-73 -72 0 487 0 487 -715 0 -715 0 0 -150z"/>
<path d="M2512 1478 l3 -883 388 -3 c223 -1 387 -6 387 -11 0 -11 -48 -238
-56 -263 -5 -16 -21 -18 -160 -18 l-154 0 0 -150 0 -150 875 0 875 0 0 150 0
149 -142 3 -142 3 -27 125 c-16 69 -28 133 -28 143 -1 16 24 17 394 17 l395 0
0 885 0 885 -1305 0 -1305 0 2 -882z m2308 -3 l0 -585 -1002 2 -1003 3 -3 583
-2 582 1005 0 1005 0 0 -585z m-800 -890 c0 -2 14 -66 30 -142 17 -75 30 -138
30 -140 0 -2 -121 -3 -270 -3 -148 0 -270 2 -270 5 0 2 14 66 30 142 17 75 30
138 30 140 0 2 95 3 210 3 116 0 210 -2 210 -5z"/>
<path d="M252 1277 l-252 -252 105 -105 105 -105 75 75 75 74 0 -482 0 -482
715 0 715 0 0 150 0 150 -565 0 -565 0 0 332 0 332 73 -72 72 -72 105 105 105
105 -250 250 c-137 138 -252 250 -255 250 -3 0 -119 -114 -258 -253z"/>
</g>
</svg>
