<?xml version="1.0" encoding="UTF-8"?>
<svg version="1.1" xmlns="http://www.w3.org/2000/svg" width="512" height="512">
<path d="M0 0 C4.02975192 2.24736165 6.53551324 4.60653973 8 9 C8.17019019 10.7323121 8.29569298 12.46918749 8.39453125 14.20703125 C11.8475584 69.11016299 31.93830637 116.46329484 73 154 C108.96942675 184.99777129 157.75796158 201.85434473 205.18359375 198.703125 C255.84702642 194.6014808 297.39613509 173.71240187 333 138 C332.2616391 137.99635437 331.5232782 137.99270874 330.76254272 137.98895264 C323.78871658 137.95101461 316.81527286 137.89409604 309.84178734 137.81609726 C306.25697429 137.77666399 302.67240533 137.74445562 299.08740234 137.72900391 C295.6246726 137.71380926 292.16261408 137.67931592 288.70018387 137.63169098 C286.74280259 137.60973247 284.78523181 137.60752867 282.82772827 137.60565186 C271.70179141 137.42294892 271.70179141 137.42294892 267 133 C263.9059798 128.70829456 263.56232556 125.26107389 264.3671875 120.18359375 C265.47347858 116.36620664 267.00821908 114.66658735 270 112 C275.3774124 110.03464291 280.20001169 109.70776204 285.83764648 109.7253418 C286.69388611 109.72023087 287.55012573 109.71511993 288.43231201 109.70985413 C291.24531158 109.69602438 294.05806435 109.6969098 296.87109375 109.69921875 C298.83732697 109.6953284 300.80355935 109.69099303 302.76979065 109.68623352 C306.88439665 109.6787857 310.99891682 109.67905232 315.11352539 109.68432617 C320.37353935 109.69012115 325.63320123 109.67318202 330.89315701 109.6499815 C334.95190976 109.63521599 339.01057825 109.63437626 343.0693531 109.63749123 C345.00813558 109.63697951 346.94692296 109.63176996 348.88567924 109.62167931 C351.6016689 109.60927645 354.31697935 109.61612934 357.03295898 109.62768555 C357.82541519 109.62004181 358.6178714 109.61239807 359.43434143 109.60452271 C364.69330922 109.65372376 369.40097734 110.29806328 374 113 C378.56433166 117.79493924 378.57075977 122.23812602 378.50170898 128.50610352 C378.50981346 129.91451508 378.50981346 129.91451508 378.51808167 131.35137939 C378.53055347 134.44421241 378.51408913 137.53611183 378.49609375 140.62890625 C378.49624876 142.78311715 378.49773808 144.93732834 378.50050354 147.09153748 C378.5018868 151.60143393 378.48934035 156.11101208 378.46655273 160.62084961 C378.43815154 166.40023857 378.44091116 172.17909942 378.45364285 177.95852757 C378.46059861 182.40492765 378.45281214 186.85120575 378.44038582 191.29759026 C378.43587154 193.42863434 378.43553431 195.55969151 378.43945122 197.69073677 C378.4423628 200.66852792 378.42585912 203.64559179 378.40405273 206.62329102 C378.41080521 207.9427195 378.41080521 207.9427195 378.41769409 209.2888031 C378.36006501 214.02716196 378.0477279 217.13784697 375 221 C371.05557382 224.57463623 366.76400492 224.56527373 361.6640625 224.4140625 C357.3425891 223.74239655 355.82462068 222.33160387 353 219 C350.33526704 213.24662554 350.6508179 207.25383552 350.5859375 201.0390625 C350.55688828 199.32050552 350.55688828 199.32050552 350.5272522 197.56723022 C350.46763215 193.91989509 350.42114082 190.2725281 350.375 186.625 C350.3368041 184.14712191 350.29775143 181.66925686 350.2578125 179.19140625 C350.16194497 173.12772028 350.07684615 167.06395526 350 161 C349.1961084 161.81259277 348.3922168 162.62518555 347.56396484 163.46240234 C346.48805796 164.54534897 345.41204308 165.62818831 344.3359375 166.7109375 C343.80863037 167.24452881 343.28132324 167.77812012 342.73803711 168.32788086 C304.37526823 206.86757257 248.82317493 226.91060775 195.0625 227.25 C144.5012307 226.93102941 94.12311704 209.78078545 56 176 C55.17886719 175.28714844 54.35773438 174.57429687 53.51171875 173.83984375 C11.17177159 136.50430714 -15.16497403 83.74294383 -18.87109375 27.26025391 C-19.93141123 8.66855083 -19.93141123 8.66855083 -14 1.625 C-9.39374887 -0.8700527 -5.11290975 -0.98606117 0 0 Z " fill="#000000" transform="translate(61,243)"/>
<path d="M0 0 C4.55916151 2.29397811 6.1997783 4.44747637 8.10546875 9.30859375 C8.57561131 13.29271452 8.59403726 17.26087346 8.6171875 21.26953125 C8.6441143 22.98808823 8.6441143 22.98808823 8.67158508 24.74136353 C8.72562312 28.38873654 8.75956393 32.03597915 8.79296875 35.68359375 C8.82614745 38.16147645 8.86063762 40.63934196 8.89648438 43.1171875 C8.98134603 49.18087264 9.04972361 55.24457479 9.10546875 61.30859375 C9.7497583 60.65052734 10.39404785 59.99246094 11.05786133 59.31445312 C15.7782406 54.53578675 20.45284362 49.88890062 25.79296875 45.80859375 C26.6732373 45.1290564 26.6732373 45.1290564 27.57128906 44.43579102 C73.45921112 9.46053722 130.19001613 -6.48431142 187.66796875 0.49609375 C225.70022899 5.68689809 261.95099932 20.48518284 292.10546875 44.30859375 C292.64300781 44.73043945 293.18054688 45.15228516 293.734375 45.58691406 C314.10665883 61.74208509 330.68922057 81.1032454 344.10546875 103.30859375 C344.46560059 103.88802734 344.82573242 104.46746094 345.19677734 105.06445312 C364.15900569 135.71824491 373.89200776 173.26536689 374.35546875 209.18359375 C374.38125 210.39789063 374.40703125 211.6121875 374.43359375 212.86328125 C373.96989006 217.73216999 372.22701099 220.97676234 369.10546875 224.68359375 C364.49921762 227.17864645 360.2183785 227.29465492 355.10546875 226.30859375 C351.07571683 224.0612321 348.56995551 221.70205402 347.10546875 217.30859375 C346.93527856 215.57628165 346.80977577 213.83940626 346.7109375 212.1015625 C344.05620213 169.89127005 332.71899382 129.27801724 305.10546875 96.30859375 C304.61369141 95.71675293 304.12191406 95.12491211 303.61523438 94.51513672 C282.84817659 69.61160412 257.38293206 51.1038691 227.10546875 39.30859375 C226.4314502 39.04594727 225.75743164 38.78330078 225.06298828 38.51269531 C179.54661429 21.21283788 128.27284317 23.63899592 83.96044922 43.25830078 C63.06039889 52.91996917 44.73402983 65.63853768 28.45458984 81.95239258 C27.82668549 82.58131912 27.19878113 83.21024567 26.55184937 83.85823059 C26.07454376 84.33685043 25.59723816 84.81547028 25.10546875 85.30859375 C25.84160904 85.31223938 26.57774933 85.31588501 27.3361969 85.31964111 C34.2949953 85.35760667 41.2534114 85.41455625 48.21186924 85.49249649 C51.78880634 85.53190038 55.3654999 85.56412307 58.94262695 85.57958984 C62.3988769 85.59480396 65.85445697 85.62933143 69.31040764 85.67690277 C71.26164926 85.69882302 73.21308013 85.7010634 75.16444397 85.70294189 C81.97735602 85.81482616 86.63938372 86.07197867 92.10546875 90.30859375 C95.0926588 94.64483738 95.66341863 98.10106155 95.10546875 103.30859375 C93.26180556 108.53230611 90.95381418 110.71472553 86.10546875 113.30859375 C82.96656778 113.87073056 79.88952154 113.85590441 76.70703125 113.82617188 C75.77945007 113.83318115 74.8518689 113.84019043 73.8961792 113.84741211 C70.84063473 113.86496727 67.78602207 113.85337793 64.73046875 113.83984375 C62.60107242 113.84253937 60.47167728 113.84642237 58.34228516 113.85144043 C53.88366962 113.85733213 49.42537505 113.84878286 44.96679688 113.83007812 C39.25691173 113.80728905 33.5477787 113.82041385 27.83792114 113.84436798 C23.44208122 113.85883465 19.04641906 113.85421592 14.65057373 113.84385681 C12.54547028 113.84119194 10.4403506 113.84445082 8.33526611 113.85377502 C5.39104571 113.86395468 2.44803663 113.84841923 -0.49609375 113.82617188 C-1.79610321 113.83831726 -1.79610321 113.83831726 -3.12237549 113.85070801 C-8.50264219 113.77554025 -11.69803715 112.98870236 -15.89453125 109.30859375 C-19.59985514 104.94888934 -19.3271533 100.58511429 -19.29858398 95.13134766 C-19.30544724 94.21527237 -19.31231049 93.29919708 -19.31938171 92.35536194 C-19.33765927 89.33180165 -19.33381037 86.30875985 -19.328125 83.28515625 C-19.33268676 81.17914664 -19.33799231 79.07313852 -19.3440094 76.96713257 C-19.35294271 72.55387321 -19.35051529 68.14079478 -19.34057617 63.72753906 C-19.32909395 58.07940277 -19.34928574 52.43189235 -19.37849331 46.78383827 C-19.39686497 42.43429615 -19.39656076 38.08490368 -19.39085579 33.73533249 C-19.39070265 31.65337624 -19.39674063 29.5714098 -19.40914726 27.48949051 C-19.42407115 24.57414089 -19.41336914 21.65994317 -19.39624023 18.74462891 C-19.4059082 17.8893309 -19.41557617 17.0340329 -19.42553711 16.15281677 C-19.35500118 10.40227885 -18.23261587 7.02728397 -14.89453125 2.30859375 C-10.19956314 -0.92571761 -5.49478612 -2.0053137 0 0 Z " fill="#000000" transform="translate(95.89453125,42.69140625)"/>
</svg>
